<mxfile host="app.diagrams.net" modified="2022-11-16T15:19:48.675Z" agent="5.0 (Windows NT 10.0; Win64; x64) AppleWebKit/537.36 (KHTML, like Gecko) Chrome/107.0.0.0 Safari/537.36" etag="7ytynIYcotVOj55mStTL" version="20.5.3" type="github" pages="4">
  <diagram id="gSVBPUJjGzlbWMwJn6Da" name="Relasi Entitas">
    <mxGraphModel dx="1108" dy="1619" grid="1" gridSize="10" guides="1" tooltips="1" connect="1" arrows="1" fold="1" page="1" pageScale="1" pageWidth="827" pageHeight="1169" math="0" shadow="0">
      <root>
        <mxCell id="0" />
        <mxCell id="1" parent="0" />
        <mxCell id="eUsOwxWAGZ1qZX4Bw04E-1" value="Penerbangan" style="swimlane;fontStyle=0;childLayout=stackLayout;horizontal=1;startSize=30;horizontalStack=0;resizeParent=1;resizeParentMax=0;resizeLast=0;collapsible=1;marginBottom=0;whiteSpace=wrap;html=1;" parent="1" vertex="1">
          <mxGeometry x="304" y="-450" width="200" height="300" as="geometry" />
        </mxCell>
        <mxCell id="eUsOwxWAGZ1qZX4Bw04E-2" value="no_penerbangan" style="text;strokeColor=none;fillColor=none;align=left;verticalAlign=middle;spacingLeft=4;spacingRight=4;overflow=hidden;points=[[0,0.5],[1,0.5]];portConstraint=eastwest;rotatable=0;whiteSpace=wrap;html=1;" parent="eUsOwxWAGZ1qZX4Bw04E-1" vertex="1">
          <mxGeometry y="30" width="200" height="30" as="geometry" />
        </mxCell>
        <mxCell id="eUsOwxWAGZ1qZX4Bw04E-4" value="no_maskapai" style="text;strokeColor=none;fillColor=none;align=left;verticalAlign=middle;spacingLeft=4;spacingRight=4;overflow=hidden;points=[[0,0.5],[1,0.5]];portConstraint=eastwest;rotatable=0;whiteSpace=wrap;html=1;" parent="eUsOwxWAGZ1qZX4Bw04E-1" vertex="1">
          <mxGeometry y="60" width="200" height="30" as="geometry" />
        </mxCell>
        <mxCell id="eUsOwxWAGZ1qZX4Bw04E-46" value="id_bandara" style="text;strokeColor=none;fillColor=none;align=left;verticalAlign=middle;spacingLeft=4;spacingRight=4;overflow=hidden;points=[[0,0.5],[1,0.5]];portConstraint=eastwest;rotatable=0;whiteSpace=wrap;html=1;" parent="eUsOwxWAGZ1qZX4Bw04E-1" vertex="1">
          <mxGeometry y="90" width="200" height="30" as="geometry" />
        </mxCell>
        <mxCell id="eUsOwxWAGZ1qZX4Bw04E-8" value="waktu_keberangkatan" style="text;strokeColor=none;fillColor=none;align=left;verticalAlign=middle;spacingLeft=4;spacingRight=4;overflow=hidden;points=[[0,0.5],[1,0.5]];portConstraint=eastwest;rotatable=0;whiteSpace=wrap;html=1;" parent="eUsOwxWAGZ1qZX4Bw04E-1" vertex="1">
          <mxGeometry y="120" width="200" height="30" as="geometry" />
        </mxCell>
        <mxCell id="eUsOwxWAGZ1qZX4Bw04E-6" value="tanggal_keberangkatan" style="text;strokeColor=none;fillColor=none;align=left;verticalAlign=middle;spacingLeft=4;spacingRight=4;overflow=hidden;points=[[0,0.5],[1,0.5]];portConstraint=eastwest;rotatable=0;whiteSpace=wrap;html=1;" parent="eUsOwxWAGZ1qZX4Bw04E-1" vertex="1">
          <mxGeometry y="150" width="200" height="30" as="geometry" />
        </mxCell>
        <mxCell id="eUsOwxWAGZ1qZX4Bw04E-9" value="waktu_tiba" style="text;strokeColor=none;fillColor=none;align=left;verticalAlign=middle;spacingLeft=4;spacingRight=4;overflow=hidden;points=[[0,0.5],[1,0.5]];portConstraint=eastwest;rotatable=0;whiteSpace=wrap;html=1;" parent="eUsOwxWAGZ1qZX4Bw04E-1" vertex="1">
          <mxGeometry y="180" width="200" height="30" as="geometry" />
        </mxCell>
        <mxCell id="eUsOwxWAGZ1qZX4Bw04E-7" value="tanggal_tiba" style="text;strokeColor=none;fillColor=none;align=left;verticalAlign=middle;spacingLeft=4;spacingRight=4;overflow=hidden;points=[[0,0.5],[1,0.5]];portConstraint=eastwest;rotatable=0;whiteSpace=wrap;html=1;" parent="eUsOwxWAGZ1qZX4Bw04E-1" vertex="1">
          <mxGeometry y="210" width="200" height="30" as="geometry" />
        </mxCell>
        <mxCell id="PatVDTmR0bolXrehJ1u2-3" value="gerbang_keberangkatan" style="text;strokeColor=none;fillColor=none;align=left;verticalAlign=middle;spacingLeft=4;spacingRight=4;overflow=hidden;points=[[0,0.5],[1,0.5]];portConstraint=eastwest;rotatable=0;whiteSpace=wrap;html=1;" parent="eUsOwxWAGZ1qZX4Bw04E-1" vertex="1">
          <mxGeometry y="240" width="200" height="30" as="geometry" />
        </mxCell>
        <mxCell id="PatVDTmR0bolXrehJ1u2-10" value="gerbang_tiba" style="text;strokeColor=none;fillColor=none;align=left;verticalAlign=middle;spacingLeft=4;spacingRight=4;overflow=hidden;points=[[0,0.5],[1,0.5]];portConstraint=eastwest;rotatable=0;whiteSpace=wrap;html=1;" parent="eUsOwxWAGZ1qZX4Bw04E-1" vertex="1">
          <mxGeometry y="270" width="200" height="30" as="geometry" />
        </mxCell>
        <mxCell id="eUsOwxWAGZ1qZX4Bw04E-10" value="Penumpang" style="swimlane;fontStyle=0;childLayout=stackLayout;horizontal=1;startSize=30;horizontalStack=0;resizeParent=1;resizeParentMax=0;resizeLast=0;collapsible=1;marginBottom=0;whiteSpace=wrap;html=1;" parent="1" vertex="1">
          <mxGeometry x="34" y="-410" width="200" height="270" as="geometry" />
        </mxCell>
        <mxCell id="eUsOwxWAGZ1qZX4Bw04E-11" value="id_penumpang" style="text;strokeColor=none;fillColor=none;align=left;verticalAlign=middle;spacingLeft=4;spacingRight=4;overflow=hidden;points=[[0,0.5],[1,0.5]];portConstraint=eastwest;rotatable=0;whiteSpace=wrap;html=1;" parent="eUsOwxWAGZ1qZX4Bw04E-10" vertex="1">
          <mxGeometry y="30" width="200" height="30" as="geometry" />
        </mxCell>
        <mxCell id="eUsOwxWAGZ1qZX4Bw04E-12" value="nama_depan" style="text;strokeColor=none;fillColor=none;align=left;verticalAlign=middle;spacingLeft=4;spacingRight=4;overflow=hidden;points=[[0,0.5],[1,0.5]];portConstraint=eastwest;rotatable=0;whiteSpace=wrap;html=1;" parent="eUsOwxWAGZ1qZX4Bw04E-10" vertex="1">
          <mxGeometry y="60" width="200" height="30" as="geometry" />
        </mxCell>
        <mxCell id="PatVDTmR0bolXrehJ1u2-7" value="nama_belakang" style="text;strokeColor=none;fillColor=none;align=left;verticalAlign=middle;spacingLeft=4;spacingRight=4;overflow=hidden;points=[[0,0.5],[1,0.5]];portConstraint=eastwest;rotatable=0;whiteSpace=wrap;html=1;" parent="eUsOwxWAGZ1qZX4Bw04E-10" vertex="1">
          <mxGeometry y="90" width="200" height="30" as="geometry" />
        </mxCell>
        <mxCell id="eUsOwxWAGZ1qZX4Bw04E-13" value="email" style="text;strokeColor=none;fillColor=none;align=left;verticalAlign=middle;spacingLeft=4;spacingRight=4;overflow=hidden;points=[[0,0.5],[1,0.5]];portConstraint=eastwest;rotatable=0;whiteSpace=wrap;html=1;" parent="eUsOwxWAGZ1qZX4Bw04E-10" vertex="1">
          <mxGeometry y="120" width="200" height="30" as="geometry" />
        </mxCell>
        <mxCell id="eUsOwxWAGZ1qZX4Bw04E-14" value="jenis_kelamin" style="text;strokeColor=none;fillColor=none;align=left;verticalAlign=middle;spacingLeft=4;spacingRight=4;overflow=hidden;points=[[0,0.5],[1,0.5]];portConstraint=eastwest;rotatable=0;whiteSpace=wrap;html=1;" parent="eUsOwxWAGZ1qZX4Bw04E-10" vertex="1">
          <mxGeometry y="150" width="200" height="30" as="geometry" />
        </mxCell>
        <mxCell id="eUsOwxWAGZ1qZX4Bw04E-15" value="tanggal_lahir" style="text;strokeColor=none;fillColor=none;align=left;verticalAlign=middle;spacingLeft=4;spacingRight=4;overflow=hidden;points=[[0,0.5],[1,0.5]];portConstraint=eastwest;rotatable=0;whiteSpace=wrap;html=1;" parent="eUsOwxWAGZ1qZX4Bw04E-10" vertex="1">
          <mxGeometry y="180" width="200" height="30" as="geometry" />
        </mxCell>
        <mxCell id="eUsOwxWAGZ1qZX4Bw04E-16" value="kewarganegaraan" style="text;strokeColor=none;fillColor=none;align=left;verticalAlign=middle;spacingLeft=4;spacingRight=4;overflow=hidden;points=[[0,0.5],[1,0.5]];portConstraint=eastwest;rotatable=0;whiteSpace=wrap;html=1;" parent="eUsOwxWAGZ1qZX4Bw04E-10" vertex="1">
          <mxGeometry y="210" width="200" height="30" as="geometry" />
        </mxCell>
        <mxCell id="eUsOwxWAGZ1qZX4Bw04E-17" value="no_telepon" style="text;strokeColor=none;fillColor=none;align=left;verticalAlign=middle;spacingLeft=4;spacingRight=4;overflow=hidden;points=[[0,0.5],[1,0.5]];portConstraint=eastwest;rotatable=0;whiteSpace=wrap;html=1;" parent="eUsOwxWAGZ1qZX4Bw04E-10" vertex="1">
          <mxGeometry y="240" width="200" height="30" as="geometry" />
        </mxCell>
        <mxCell id="eUsOwxWAGZ1qZX4Bw04E-18" value="Tiket" style="swimlane;fontStyle=0;childLayout=stackLayout;horizontal=1;startSize=30;horizontalStack=0;resizeParent=1;resizeParentMax=0;resizeLast=0;collapsible=1;marginBottom=0;whiteSpace=wrap;html=1;" parent="1" vertex="1">
          <mxGeometry x="34" y="-720" width="200" height="270" as="geometry" />
        </mxCell>
        <mxCell id="eUsOwxWAGZ1qZX4Bw04E-19" value="no_booking" style="text;strokeColor=none;fillColor=none;align=left;verticalAlign=middle;spacingLeft=4;spacingRight=4;overflow=hidden;points=[[0,0.5],[1,0.5]];portConstraint=eastwest;rotatable=0;whiteSpace=wrap;html=1;" parent="eUsOwxWAGZ1qZX4Bw04E-18" vertex="1">
          <mxGeometry y="30" width="200" height="30" as="geometry" />
        </mxCell>
        <mxCell id="PatVDTmR0bolXrehJ1u2-4" value="no_penerbangan" style="text;strokeColor=none;fillColor=none;align=left;verticalAlign=middle;spacingLeft=4;spacingRight=4;overflow=hidden;points=[[0,0.5],[1,0.5]];portConstraint=eastwest;rotatable=0;whiteSpace=wrap;html=1;" parent="eUsOwxWAGZ1qZX4Bw04E-18" vertex="1">
          <mxGeometry y="60" width="200" height="30" as="geometry" />
        </mxCell>
        <mxCell id="eUsOwxWAGZ1qZX4Bw04E-20" value="id_penumpang" style="text;strokeColor=none;fillColor=none;align=left;verticalAlign=middle;spacingLeft=4;spacingRight=4;overflow=hidden;points=[[0,0.5],[1,0.5]];portConstraint=eastwest;rotatable=0;whiteSpace=wrap;html=1;" parent="eUsOwxWAGZ1qZX4Bw04E-18" vertex="1">
          <mxGeometry y="90" width="200" height="30" as="geometry" />
        </mxCell>
        <mxCell id="eUsOwxWAGZ1qZX4Bw04E-22" value="lokasi_keberangkatan" style="text;strokeColor=none;fillColor=none;align=left;verticalAlign=middle;spacingLeft=4;spacingRight=4;overflow=hidden;points=[[0,0.5],[1,0.5]];portConstraint=eastwest;rotatable=0;whiteSpace=wrap;html=1;" parent="eUsOwxWAGZ1qZX4Bw04E-18" vertex="1">
          <mxGeometry y="120" width="200" height="30" as="geometry" />
        </mxCell>
        <mxCell id="PatVDTmR0bolXrehJ1u2-5" value="lokasi_tujuan" style="text;strokeColor=none;fillColor=none;align=left;verticalAlign=middle;spacingLeft=4;spacingRight=4;overflow=hidden;points=[[0,0.5],[1,0.5]];portConstraint=eastwest;rotatable=0;whiteSpace=wrap;html=1;" parent="eUsOwxWAGZ1qZX4Bw04E-18" vertex="1">
          <mxGeometry y="150" width="200" height="30" as="geometry" />
        </mxCell>
        <mxCell id="eUsOwxWAGZ1qZX4Bw04E-23" value="tanggal_keberangkatan" style="text;strokeColor=none;fillColor=none;align=left;verticalAlign=middle;spacingLeft=4;spacingRight=4;overflow=hidden;points=[[0,0.5],[1,0.5]];portConstraint=eastwest;rotatable=0;whiteSpace=wrap;html=1;" parent="eUsOwxWAGZ1qZX4Bw04E-18" vertex="1">
          <mxGeometry y="180" width="200" height="30" as="geometry" />
        </mxCell>
        <mxCell id="eUsOwxWAGZ1qZX4Bw04E-24" value="harga" style="text;strokeColor=none;fillColor=none;align=left;verticalAlign=middle;spacingLeft=4;spacingRight=4;overflow=hidden;points=[[0,0.5],[1,0.5]];portConstraint=eastwest;rotatable=0;whiteSpace=wrap;html=1;" parent="eUsOwxWAGZ1qZX4Bw04E-18" vertex="1">
          <mxGeometry y="210" width="200" height="30" as="geometry" />
        </mxCell>
        <mxCell id="PatVDTmR0bolXrehJ1u2-6" value="mata_uang" style="text;strokeColor=none;fillColor=none;align=left;verticalAlign=middle;spacingLeft=4;spacingRight=4;overflow=hidden;points=[[0,0.5],[1,0.5]];portConstraint=eastwest;rotatable=0;whiteSpace=wrap;html=1;" parent="eUsOwxWAGZ1qZX4Bw04E-18" vertex="1">
          <mxGeometry y="240" width="200" height="30" as="geometry" />
        </mxCell>
        <mxCell id="eUsOwxWAGZ1qZX4Bw04E-26" value="Maskapai" style="swimlane;fontStyle=0;childLayout=stackLayout;horizontal=1;startSize=30;horizontalStack=0;resizeParent=1;resizeParentMax=0;resizeLast=0;collapsible=1;marginBottom=0;whiteSpace=wrap;html=1;" parent="1" vertex="1">
          <mxGeometry x="614" y="-420" width="200" height="120" as="geometry" />
        </mxCell>
        <mxCell id="eUsOwxWAGZ1qZX4Bw04E-27" value="no_maskapai" style="text;strokeColor=none;fillColor=none;align=left;verticalAlign=middle;spacingLeft=4;spacingRight=4;overflow=hidden;points=[[0,0.5],[1,0.5]];portConstraint=eastwest;rotatable=0;whiteSpace=wrap;html=1;" parent="eUsOwxWAGZ1qZX4Bw04E-26" vertex="1">
          <mxGeometry y="30" width="200" height="30" as="geometry" />
        </mxCell>
        <mxCell id="JM6qczMnBvIuI5Stv9R3-57" value="nama_maskapai" style="text;strokeColor=none;fillColor=none;align=left;verticalAlign=middle;spacingLeft=4;spacingRight=4;overflow=hidden;points=[[0,0.5],[1,0.5]];portConstraint=eastwest;rotatable=0;whiteSpace=wrap;html=1;" parent="eUsOwxWAGZ1qZX4Bw04E-26" vertex="1">
          <mxGeometry y="60" width="200" height="30" as="geometry" />
        </mxCell>
        <mxCell id="JM6qczMnBvIuI5Stv9R3-56" value="asal_negara_maskapai" style="text;strokeColor=none;fillColor=none;align=left;verticalAlign=middle;spacingLeft=4;spacingRight=4;overflow=hidden;points=[[0,0.5],[1,0.5]];portConstraint=eastwest;rotatable=0;whiteSpace=wrap;html=1;" parent="eUsOwxWAGZ1qZX4Bw04E-26" vertex="1">
          <mxGeometry y="90" width="200" height="30" as="geometry" />
        </mxCell>
        <mxCell id="eUsOwxWAGZ1qZX4Bw04E-34" value="Boarding_pass" style="swimlane;fontStyle=0;childLayout=stackLayout;horizontal=1;startSize=30;horizontalStack=0;resizeParent=1;resizeParentMax=0;resizeLast=0;collapsible=1;marginBottom=0;whiteSpace=wrap;html=1;" parent="1" vertex="1">
          <mxGeometry x="294" y="-1120" width="200" height="330" as="geometry" />
        </mxCell>
        <mxCell id="eUsOwxWAGZ1qZX4Bw04E-35" value="no_booking" style="text;strokeColor=none;fillColor=none;align=left;verticalAlign=middle;spacingLeft=4;spacingRight=4;overflow=hidden;points=[[0,0.5],[1,0.5]];portConstraint=eastwest;rotatable=0;whiteSpace=wrap;html=1;" parent="eUsOwxWAGZ1qZX4Bw04E-34" vertex="1">
          <mxGeometry y="30" width="200" height="30" as="geometry" />
        </mxCell>
        <mxCell id="eUsOwxWAGZ1qZX4Bw04E-36" value="no_penerbangan" style="text;strokeColor=none;fillColor=none;align=left;verticalAlign=middle;spacingLeft=4;spacingRight=4;overflow=hidden;points=[[0,0.5],[1,0.5]];portConstraint=eastwest;rotatable=0;whiteSpace=wrap;html=1;" parent="eUsOwxWAGZ1qZX4Bw04E-34" vertex="1">
          <mxGeometry y="60" width="200" height="30" as="geometry" />
        </mxCell>
        <mxCell id="eUsOwxWAGZ1qZX4Bw04E-47" value="gerbang_keberangkatan" style="text;strokeColor=none;fillColor=none;align=left;verticalAlign=middle;spacingLeft=4;spacingRight=4;overflow=hidden;points=[[0,0.5],[1,0.5]];portConstraint=eastwest;rotatable=0;whiteSpace=wrap;html=1;" parent="eUsOwxWAGZ1qZX4Bw04E-34" vertex="1">
          <mxGeometry y="90" width="200" height="30" as="geometry" />
        </mxCell>
        <mxCell id="eUsOwxWAGZ1qZX4Bw04E-45" value="no_urut_check_in" style="text;strokeColor=none;fillColor=none;align=left;verticalAlign=middle;spacingLeft=4;spacingRight=4;overflow=hidden;points=[[0,0.5],[1,0.5]];portConstraint=eastwest;rotatable=0;whiteSpace=wrap;html=1;" parent="eUsOwxWAGZ1qZX4Bw04E-34" vertex="1">
          <mxGeometry y="120" width="200" height="30" as="geometry" />
        </mxCell>
        <mxCell id="eUsOwxWAGZ1qZX4Bw04E-37" value="nama_penumpang" style="text;strokeColor=none;fillColor=none;align=left;verticalAlign=middle;spacingLeft=4;spacingRight=4;overflow=hidden;points=[[0,0.5],[1,0.5]];portConstraint=eastwest;rotatable=0;whiteSpace=wrap;html=1;" parent="eUsOwxWAGZ1qZX4Bw04E-34" vertex="1">
          <mxGeometry y="150" width="200" height="30" as="geometry" />
        </mxCell>
        <mxCell id="eUsOwxWAGZ1qZX4Bw04E-38" value="no_kursi" style="text;strokeColor=none;fillColor=none;align=left;verticalAlign=middle;spacingLeft=4;spacingRight=4;overflow=hidden;points=[[0,0.5],[1,0.5]];portConstraint=eastwest;rotatable=0;whiteSpace=wrap;html=1;" parent="eUsOwxWAGZ1qZX4Bw04E-34" vertex="1">
          <mxGeometry y="180" width="200" height="30" as="geometry" />
        </mxCell>
        <mxCell id="PatVDTmR0bolXrehJ1u2-34" value="no_passport" style="text;strokeColor=none;fillColor=none;align=left;verticalAlign=middle;spacingLeft=4;spacingRight=4;overflow=hidden;points=[[0,0.5],[1,0.5]];portConstraint=eastwest;rotatable=0;whiteSpace=wrap;html=1;" parent="eUsOwxWAGZ1qZX4Bw04E-34" vertex="1">
          <mxGeometry y="210" width="200" height="30" as="geometry" />
        </mxCell>
        <mxCell id="PatVDTmR0bolXrehJ1u2-44" value="kewarganegaraan" style="text;strokeColor=none;fillColor=none;align=left;verticalAlign=middle;spacingLeft=4;spacingRight=4;overflow=hidden;points=[[0,0.5],[1,0.5]];portConstraint=eastwest;rotatable=0;whiteSpace=wrap;html=1;" parent="eUsOwxWAGZ1qZX4Bw04E-34" vertex="1">
          <mxGeometry y="240" width="200" height="30" as="geometry" />
        </mxCell>
        <mxCell id="PatVDTmR0bolXrehJ1u2-45" value="tanggal_kadaluwarsa" style="text;strokeColor=none;fillColor=none;align=left;verticalAlign=middle;spacingLeft=4;spacingRight=4;overflow=hidden;points=[[0,0.5],[1,0.5]];portConstraint=eastwest;rotatable=0;whiteSpace=wrap;html=1;" parent="eUsOwxWAGZ1qZX4Bw04E-34" vertex="1">
          <mxGeometry y="270" width="200" height="30" as="geometry" />
        </mxCell>
        <mxCell id="PatVDTmR0bolXrehJ1u2-51" value="zona" style="text;strokeColor=none;fillColor=none;align=left;verticalAlign=middle;spacingLeft=4;spacingRight=4;overflow=hidden;points=[[0,0.5],[1,0.5]];portConstraint=eastwest;rotatable=0;whiteSpace=wrap;html=1;" parent="eUsOwxWAGZ1qZX4Bw04E-34" vertex="1">
          <mxGeometry y="300" width="200" height="30" as="geometry" />
        </mxCell>
        <mxCell id="eUsOwxWAGZ1qZX4Bw04E-48" value="Pegawai" style="swimlane;fontStyle=0;childLayout=stackLayout;horizontal=1;startSize=30;horizontalStack=0;resizeParent=1;resizeParentMax=0;resizeLast=0;collapsible=1;marginBottom=0;whiteSpace=wrap;html=1;" parent="1" vertex="1">
          <mxGeometry x="614" y="-970" width="200" height="300" as="geometry" />
        </mxCell>
        <mxCell id="eUsOwxWAGZ1qZX4Bw04E-49" value="id_pegawai" style="text;strokeColor=none;fillColor=none;align=left;verticalAlign=middle;spacingLeft=4;spacingRight=4;overflow=hidden;points=[[0,0.5],[1,0.5]];portConstraint=eastwest;rotatable=0;whiteSpace=wrap;html=1;" parent="eUsOwxWAGZ1qZX4Bw04E-48" vertex="1">
          <mxGeometry y="30" width="200" height="30" as="geometry" />
        </mxCell>
        <mxCell id="eUsOwxWAGZ1qZX4Bw04E-56" value="no_penerbangan" style="text;strokeColor=none;fillColor=none;align=left;verticalAlign=middle;spacingLeft=4;spacingRight=4;overflow=hidden;points=[[0,0.5],[1,0.5]];portConstraint=eastwest;rotatable=0;whiteSpace=wrap;html=1;" parent="eUsOwxWAGZ1qZX4Bw04E-48" vertex="1">
          <mxGeometry y="60" width="200" height="30" as="geometry" />
        </mxCell>
        <mxCell id="eUsOwxWAGZ1qZX4Bw04E-57" value="nama_depan" style="text;strokeColor=none;fillColor=none;align=left;verticalAlign=middle;spacingLeft=4;spacingRight=4;overflow=hidden;points=[[0,0.5],[1,0.5]];portConstraint=eastwest;rotatable=0;whiteSpace=wrap;html=1;" parent="eUsOwxWAGZ1qZX4Bw04E-48" vertex="1">
          <mxGeometry y="90" width="200" height="30" as="geometry" />
        </mxCell>
        <mxCell id="eUsOwxWAGZ1qZX4Bw04E-50" value="nama_belakang" style="text;strokeColor=none;fillColor=none;align=left;verticalAlign=middle;spacingLeft=4;spacingRight=4;overflow=hidden;points=[[0,0.5],[1,0.5]];portConstraint=eastwest;rotatable=0;whiteSpace=wrap;html=1;" parent="eUsOwxWAGZ1qZX4Bw04E-48" vertex="1">
          <mxGeometry y="120" width="200" height="30" as="geometry" />
        </mxCell>
        <mxCell id="PatVDTmR0bolXrehJ1u2-16" value="alamat" style="text;strokeColor=none;fillColor=none;align=left;verticalAlign=middle;spacingLeft=4;spacingRight=4;overflow=hidden;points=[[0,0.5],[1,0.5]];portConstraint=eastwest;rotatable=0;whiteSpace=wrap;html=1;" parent="eUsOwxWAGZ1qZX4Bw04E-48" vertex="1">
          <mxGeometry y="150" width="200" height="30" as="geometry" />
        </mxCell>
        <mxCell id="PatVDTmR0bolXrehJ1u2-17" value="no_telepon" style="text;strokeColor=none;fillColor=none;align=left;verticalAlign=middle;spacingLeft=4;spacingRight=4;overflow=hidden;points=[[0,0.5],[1,0.5]];portConstraint=eastwest;rotatable=0;whiteSpace=wrap;html=1;" parent="eUsOwxWAGZ1qZX4Bw04E-48" vertex="1">
          <mxGeometry y="180" width="200" height="30" as="geometry" />
        </mxCell>
        <mxCell id="PatVDTmR0bolXrehJ1u2-18" value="lokasi_tujuan" style="text;strokeColor=none;fillColor=none;align=left;verticalAlign=middle;spacingLeft=4;spacingRight=4;overflow=hidden;points=[[0,0.5],[1,0.5]];portConstraint=eastwest;rotatable=0;whiteSpace=wrap;html=1;" parent="eUsOwxWAGZ1qZX4Bw04E-48" vertex="1">
          <mxGeometry y="210" width="200" height="30" as="geometry" />
        </mxCell>
        <mxCell id="eUsOwxWAGZ1qZX4Bw04E-51" value="no_lisensi" style="text;strokeColor=none;fillColor=none;align=left;verticalAlign=middle;spacingLeft=4;spacingRight=4;overflow=hidden;points=[[0,0.5],[1,0.5]];portConstraint=eastwest;rotatable=0;whiteSpace=wrap;html=1;" parent="eUsOwxWAGZ1qZX4Bw04E-48" vertex="1">
          <mxGeometry y="240" width="200" height="30" as="geometry" />
        </mxCell>
        <mxCell id="Kf9OaHiqVlHMBkd281uz-19" value="jenis_pekerjaan" style="text;strokeColor=none;fillColor=none;align=left;verticalAlign=middle;spacingLeft=4;spacingRight=4;overflow=hidden;points=[[0,0.5],[1,0.5]];portConstraint=eastwest;rotatable=0;whiteSpace=wrap;html=1;" parent="eUsOwxWAGZ1qZX4Bw04E-48" vertex="1">
          <mxGeometry y="270" width="200" height="30" as="geometry" />
        </mxCell>
        <mxCell id="PatVDTmR0bolXrehJ1u2-11" value="Pesawat" style="swimlane;fontStyle=0;childLayout=stackLayout;horizontal=1;startSize=30;horizontalStack=0;resizeParent=1;resizeParentMax=0;resizeLast=0;collapsible=1;marginBottom=0;whiteSpace=wrap;html=1;" parent="1" vertex="1">
          <mxGeometry x="614" y="-630" width="200" height="150" as="geometry" />
        </mxCell>
        <mxCell id="PatVDTmR0bolXrehJ1u2-15" value="no_pesawat" style="text;strokeColor=none;fillColor=none;align=left;verticalAlign=middle;spacingLeft=4;spacingRight=4;overflow=hidden;points=[[0,0.5],[1,0.5]];portConstraint=eastwest;rotatable=0;whiteSpace=wrap;html=1;" parent="PatVDTmR0bolXrehJ1u2-11" vertex="1">
          <mxGeometry y="30" width="200" height="30" as="geometry" />
        </mxCell>
        <mxCell id="PatVDTmR0bolXrehJ1u2-12" value="no_maskapai" style="text;strokeColor=none;fillColor=none;align=left;verticalAlign=middle;spacingLeft=4;spacingRight=4;overflow=hidden;points=[[0,0.5],[1,0.5]];portConstraint=eastwest;rotatable=0;whiteSpace=wrap;html=1;" parent="PatVDTmR0bolXrehJ1u2-11" vertex="1">
          <mxGeometry y="60" width="200" height="30" as="geometry" />
        </mxCell>
        <mxCell id="PatVDTmR0bolXrehJ1u2-13" value="no_model" style="text;strokeColor=none;fillColor=none;align=left;verticalAlign=middle;spacingLeft=4;spacingRight=4;overflow=hidden;points=[[0,0.5],[1,0.5]];portConstraint=eastwest;rotatable=0;whiteSpace=wrap;html=1;" parent="PatVDTmR0bolXrehJ1u2-11" vertex="1">
          <mxGeometry y="90" width="200" height="30" as="geometry" />
        </mxCell>
        <mxCell id="PatVDTmR0bolXrehJ1u2-14" value="no_manufaktur" style="text;strokeColor=none;fillColor=none;align=left;verticalAlign=middle;spacingLeft=4;spacingRight=4;overflow=hidden;points=[[0,0.5],[1,0.5]];portConstraint=eastwest;rotatable=0;whiteSpace=wrap;html=1;" parent="PatVDTmR0bolXrehJ1u2-11" vertex="1">
          <mxGeometry y="120" width="200" height="30" as="geometry" />
        </mxCell>
        <mxCell id="PatVDTmR0bolXrehJ1u2-28" value="Bandara" style="swimlane;fontStyle=0;childLayout=stackLayout;horizontal=1;startSize=30;horizontalStack=0;resizeParent=1;resizeParentMax=0;resizeLast=0;collapsible=1;marginBottom=0;whiteSpace=wrap;html=1;" parent="1" vertex="1">
          <mxGeometry x="614" y="-260" width="200" height="180" as="geometry" />
        </mxCell>
        <mxCell id="PatVDTmR0bolXrehJ1u2-29" value="id_bandara" style="text;strokeColor=none;fillColor=none;align=left;verticalAlign=middle;spacingLeft=4;spacingRight=4;overflow=hidden;points=[[0,0.5],[1,0.5]];portConstraint=eastwest;rotatable=0;whiteSpace=wrap;html=1;" parent="PatVDTmR0bolXrehJ1u2-28" vertex="1">
          <mxGeometry y="30" width="200" height="30" as="geometry" />
        </mxCell>
        <mxCell id="PatVDTmR0bolXrehJ1u2-30" value="nama_bandara" style="text;strokeColor=none;fillColor=none;align=left;verticalAlign=middle;spacingLeft=4;spacingRight=4;overflow=hidden;points=[[0,0.5],[1,0.5]];portConstraint=eastwest;rotatable=0;whiteSpace=wrap;html=1;" parent="PatVDTmR0bolXrehJ1u2-28" vertex="1">
          <mxGeometry y="60" width="200" height="30" as="geometry" />
        </mxCell>
        <mxCell id="PatVDTmR0bolXrehJ1u2-31" value="kota" style="text;strokeColor=none;fillColor=none;align=left;verticalAlign=middle;spacingLeft=4;spacingRight=4;overflow=hidden;points=[[0,0.5],[1,0.5]];portConstraint=eastwest;rotatable=0;whiteSpace=wrap;html=1;" parent="PatVDTmR0bolXrehJ1u2-28" vertex="1">
          <mxGeometry y="90" width="200" height="30" as="geometry" />
        </mxCell>
        <mxCell id="PatVDTmR0bolXrehJ1u2-32" value="negara_bagian" style="text;strokeColor=none;fillColor=none;align=left;verticalAlign=middle;spacingLeft=4;spacingRight=4;overflow=hidden;points=[[0,0.5],[1,0.5]];portConstraint=eastwest;rotatable=0;whiteSpace=wrap;html=1;" parent="PatVDTmR0bolXrehJ1u2-28" vertex="1">
          <mxGeometry y="120" width="200" height="30" as="geometry" />
        </mxCell>
        <mxCell id="PatVDTmR0bolXrehJ1u2-33" value="negara" style="text;strokeColor=none;fillColor=none;align=left;verticalAlign=middle;spacingLeft=4;spacingRight=4;overflow=hidden;points=[[0,0.5],[1,0.5]];portConstraint=eastwest;rotatable=0;whiteSpace=wrap;html=1;" parent="PatVDTmR0bolXrehJ1u2-28" vertex="1">
          <mxGeometry y="150" width="200" height="30" as="geometry" />
        </mxCell>
        <mxCell id="PatVDTmR0bolXrehJ1u2-46" value="Pelayanan" style="swimlane;fontStyle=0;childLayout=stackLayout;horizontal=1;startSize=30;horizontalStack=0;resizeParent=1;resizeParentMax=0;resizeLast=0;collapsible=1;marginBottom=0;whiteSpace=wrap;html=1;" parent="1" vertex="1">
          <mxGeometry x="44" y="-1130" width="200" height="120" as="geometry" />
        </mxCell>
        <mxCell id="PatVDTmR0bolXrehJ1u2-47" value="id_servis" style="text;strokeColor=none;fillColor=none;align=left;verticalAlign=middle;spacingLeft=4;spacingRight=4;overflow=hidden;points=[[0,0.5],[1,0.5]];portConstraint=eastwest;rotatable=0;whiteSpace=wrap;html=1;" parent="PatVDTmR0bolXrehJ1u2-46" vertex="1">
          <mxGeometry y="30" width="200" height="30" as="geometry" />
        </mxCell>
        <mxCell id="PatVDTmR0bolXrehJ1u2-68" value="no_booking" style="text;strokeColor=none;fillColor=none;align=left;verticalAlign=middle;spacingLeft=4;spacingRight=4;overflow=hidden;points=[[0,0.5],[1,0.5]];portConstraint=eastwest;rotatable=0;whiteSpace=wrap;html=1;" parent="PatVDTmR0bolXrehJ1u2-46" vertex="1">
          <mxGeometry y="60" width="200" height="30" as="geometry" />
        </mxCell>
        <mxCell id="PatVDTmR0bolXrehJ1u2-48" value="berat_barang_bawaan" style="text;strokeColor=none;fillColor=none;align=left;verticalAlign=middle;spacingLeft=4;spacingRight=4;overflow=hidden;points=[[0,0.5],[1,0.5]];portConstraint=eastwest;rotatable=0;whiteSpace=wrap;html=1;" parent="PatVDTmR0bolXrehJ1u2-46" vertex="1">
          <mxGeometry y="90" width="200" height="30" as="geometry" />
        </mxCell>
        <mxCell id="PatVDTmR0bolXrehJ1u2-53" value="Pemesanan" style="swimlane;fontStyle=0;childLayout=stackLayout;horizontal=1;startSize=30;horizontalStack=0;resizeParent=1;resizeParentMax=0;resizeLast=0;collapsible=1;marginBottom=0;whiteSpace=wrap;html=1;" parent="1" vertex="1">
          <mxGeometry x="34" y="-980" width="200" height="150" as="geometry" />
        </mxCell>
        <mxCell id="PatVDTmR0bolXrehJ1u2-54" value="no_booking" style="text;strokeColor=none;fillColor=none;align=left;verticalAlign=middle;spacingLeft=4;spacingRight=4;overflow=hidden;points=[[0,0.5],[1,0.5]];portConstraint=eastwest;rotatable=0;whiteSpace=wrap;html=1;" parent="PatVDTmR0bolXrehJ1u2-53" vertex="1">
          <mxGeometry y="30" width="200" height="30" as="geometry" />
        </mxCell>
        <mxCell id="PatVDTmR0bolXrehJ1u2-67" value="id_servis" style="text;strokeColor=none;fillColor=none;align=left;verticalAlign=middle;spacingLeft=4;spacingRight=4;overflow=hidden;points=[[0,0.5],[1,0.5]];portConstraint=eastwest;rotatable=0;whiteSpace=wrap;html=1;" parent="PatVDTmR0bolXrehJ1u2-53" vertex="1">
          <mxGeometry y="60" width="200" height="30" as="geometry" />
        </mxCell>
        <mxCell id="PatVDTmR0bolXrehJ1u2-55" value="status_booking" style="text;strokeColor=none;fillColor=none;align=left;verticalAlign=middle;spacingLeft=4;spacingRight=4;overflow=hidden;points=[[0,0.5],[1,0.5]];portConstraint=eastwest;rotatable=0;whiteSpace=wrap;html=1;" parent="PatVDTmR0bolXrehJ1u2-53" vertex="1">
          <mxGeometry y="90" width="200" height="30" as="geometry" />
        </mxCell>
        <mxCell id="PatVDTmR0bolXrehJ1u2-66" value="tempat_duduk" style="text;strokeColor=none;fillColor=none;align=left;verticalAlign=middle;spacingLeft=4;spacingRight=4;overflow=hidden;points=[[0,0.5],[1,0.5]];portConstraint=eastwest;rotatable=0;whiteSpace=wrap;html=1;" parent="PatVDTmR0bolXrehJ1u2-53" vertex="1">
          <mxGeometry y="120" width="200" height="30" as="geometry" />
        </mxCell>
        <mxCell id="Kf9OaHiqVlHMBkd281uz-1" style="edgeStyle=orthogonalEdgeStyle;rounded=0;orthogonalLoop=1;jettySize=auto;html=1;entryX=0;entryY=0.5;entryDx=0;entryDy=0;" parent="1" source="eUsOwxWAGZ1qZX4Bw04E-20" target="eUsOwxWAGZ1qZX4Bw04E-11" edge="1">
          <mxGeometry relative="1" as="geometry" />
        </mxCell>
        <mxCell id="Kf9OaHiqVlHMBkd281uz-3" style="edgeStyle=orthogonalEdgeStyle;rounded=0;orthogonalLoop=1;jettySize=auto;html=1;exitX=1;exitY=0.5;exitDx=0;exitDy=0;" parent="1" source="eUsOwxWAGZ1qZX4Bw04E-19" target="PatVDTmR0bolXrehJ1u2-54" edge="1">
          <mxGeometry relative="1" as="geometry" />
        </mxCell>
        <mxCell id="Kf9OaHiqVlHMBkd281uz-16" style="edgeStyle=orthogonalEdgeStyle;rounded=0;orthogonalLoop=1;jettySize=auto;html=1;" parent="1" source="PatVDTmR0bolXrehJ1u2-4" target="eUsOwxWAGZ1qZX4Bw04E-2" edge="1">
          <mxGeometry relative="1" as="geometry" />
        </mxCell>
        <mxCell id="Kf9OaHiqVlHMBkd281uz-18" style="edgeStyle=orthogonalEdgeStyle;rounded=0;orthogonalLoop=1;jettySize=auto;html=1;entryX=1;entryY=0.5;entryDx=0;entryDy=0;" parent="1" source="eUsOwxWAGZ1qZX4Bw04E-19" target="eUsOwxWAGZ1qZX4Bw04E-35" edge="1">
          <mxGeometry relative="1" as="geometry" />
        </mxCell>
        <mxCell id="Kf9OaHiqVlHMBkd281uz-20" style="edgeStyle=orthogonalEdgeStyle;rounded=0;orthogonalLoop=1;jettySize=auto;html=1;entryX=0;entryY=0.5;entryDx=0;entryDy=0;" parent="1" source="eUsOwxWAGZ1qZX4Bw04E-4" target="eUsOwxWAGZ1qZX4Bw04E-27" edge="1">
          <mxGeometry relative="1" as="geometry" />
        </mxCell>
        <mxCell id="Kf9OaHiqVlHMBkd281uz-21" style="edgeStyle=orthogonalEdgeStyle;rounded=0;orthogonalLoop=1;jettySize=auto;html=1;entryX=0;entryY=0.5;entryDx=0;entryDy=0;" parent="1" source="eUsOwxWAGZ1qZX4Bw04E-46" target="PatVDTmR0bolXrehJ1u2-29" edge="1">
          <mxGeometry relative="1" as="geometry" />
        </mxCell>
        <mxCell id="Kf9OaHiqVlHMBkd281uz-24" style="edgeStyle=orthogonalEdgeStyle;rounded=0;orthogonalLoop=1;jettySize=auto;html=1;" parent="1" source="PatVDTmR0bolXrehJ1u2-4" target="eUsOwxWAGZ1qZX4Bw04E-56" edge="1">
          <mxGeometry relative="1" as="geometry">
            <Array as="points">
              <mxPoint x="574" y="-645" />
              <mxPoint x="574" y="-895" />
            </Array>
          </mxGeometry>
        </mxCell>
        <mxCell id="Kf9OaHiqVlHMBkd281uz-27" style="edgeStyle=orthogonalEdgeStyle;rounded=0;orthogonalLoop=1;jettySize=auto;html=1;entryX=1;entryY=0.5;entryDx=0;entryDy=0;" parent="1" source="PatVDTmR0bolXrehJ1u2-4" target="eUsOwxWAGZ1qZX4Bw04E-36" edge="1">
          <mxGeometry relative="1" as="geometry">
            <Array as="points">
              <mxPoint x="544" y="-645" />
              <mxPoint x="544" y="-1045" />
            </Array>
          </mxGeometry>
        </mxCell>
        <mxCell id="Kf9OaHiqVlHMBkd281uz-29" style="edgeStyle=orthogonalEdgeStyle;rounded=0;orthogonalLoop=1;jettySize=auto;html=1;entryX=0;entryY=0.5;entryDx=0;entryDy=0;" parent="1" source="eUsOwxWAGZ1qZX4Bw04E-4" target="PatVDTmR0bolXrehJ1u2-12" edge="1">
          <mxGeometry relative="1" as="geometry" />
        </mxCell>
        <mxCell id="Kf9OaHiqVlHMBkd281uz-37" style="edgeStyle=orthogonalEdgeStyle;rounded=0;orthogonalLoop=1;jettySize=auto;html=1;entryX=0;entryY=0.5;entryDx=0;entryDy=0;" parent="1" source="PatVDTmR0bolXrehJ1u2-67" target="PatVDTmR0bolXrehJ1u2-47" edge="1">
          <mxGeometry relative="1" as="geometry">
            <Array as="points">
              <mxPoint x="24" y="-905" />
              <mxPoint x="24" y="-1085" />
            </Array>
          </mxGeometry>
        </mxCell>
      </root>
    </mxGraphModel>
  </diagram>
  <diagram id="CQO1slFtSC0W5WltkF4u" name="ER-Diagram">
    <mxGraphModel dx="1494" dy="700" grid="1" gridSize="10" guides="1" tooltips="1" connect="1" arrows="1" fold="1" page="1" pageScale="1" pageWidth="1654" pageHeight="1169" math="0" shadow="0">
      <root>
        <mxCell id="0" />
        <mxCell id="1" parent="0" />
        <mxCell id="LiE9dQvSeZkpO_dIyxeo-2" value="Tiket" style="rounded=0;whiteSpace=wrap;html=1;" parent="1" vertex="1">
          <mxGeometry x="1214.59" y="150" width="120" height="60" as="geometry" />
        </mxCell>
        <mxCell id="LiE9dQvSeZkpO_dIyxeo-3" value="no_booking" style="ellipse;whiteSpace=wrap;html=1;" parent="1" vertex="1">
          <mxGeometry x="1174.59" y="80" width="80" height="40" as="geometry" />
        </mxCell>
        <mxCell id="LiE9dQvSeZkpO_dIyxeo-4" value="no_penerbangan" style="ellipse;whiteSpace=wrap;html=1;" parent="1" vertex="1">
          <mxGeometry x="1224.59" y="40" width="110" height="40" as="geometry" />
        </mxCell>
        <mxCell id="LiE9dQvSeZkpO_dIyxeo-6" value="Id_penumpang" style="ellipse;whiteSpace=wrap;html=1;" parent="1" vertex="1">
          <mxGeometry x="1144.59" y="240" width="110" height="40" as="geometry" />
        </mxCell>
        <mxCell id="LiE9dQvSeZkpO_dIyxeo-7" value="lokasi_keberangkatan" style="ellipse;whiteSpace=wrap;html=1;" parent="1" vertex="1">
          <mxGeometry x="980" y="170" width="140" height="40" as="geometry" />
        </mxCell>
        <mxCell id="LiE9dQvSeZkpO_dIyxeo-8" value="Lokasi_tujuan" style="ellipse;whiteSpace=wrap;html=1;" parent="1" vertex="1">
          <mxGeometry x="1334.59" y="40" width="110" height="40" as="geometry" />
        </mxCell>
        <mxCell id="LiE9dQvSeZkpO_dIyxeo-9" value="tanggal_keberangkatan" style="ellipse;whiteSpace=wrap;html=1;" parent="1" vertex="1">
          <mxGeometry x="1034.59" y="105" width="140" height="40" as="geometry" />
        </mxCell>
        <mxCell id="LiE9dQvSeZkpO_dIyxeo-10" value="harga" style="ellipse;whiteSpace=wrap;html=1;" parent="1" vertex="1">
          <mxGeometry x="1364.59" y="90" width="110" height="40" as="geometry" />
        </mxCell>
        <mxCell id="LiE9dQvSeZkpO_dIyxeo-11" value="mata_uang" style="ellipse;whiteSpace=wrap;html=1;" parent="1" vertex="1">
          <mxGeometry x="1364.59" y="150" width="110" height="40" as="geometry" />
        </mxCell>
        <mxCell id="LiE9dQvSeZkpO_dIyxeo-14" value="" style="endArrow=none;html=1;rounded=0;exitX=0.5;exitY=0;exitDx=0;exitDy=0;" parent="1" source="LiE9dQvSeZkpO_dIyxeo-2" target="LiE9dQvSeZkpO_dIyxeo-3" edge="1">
          <mxGeometry width="50" height="50" relative="1" as="geometry">
            <mxPoint x="1874.5900000000001" y="-72.13" as="sourcePoint" />
            <mxPoint x="1924.5900000000001" y="-122.13" as="targetPoint" />
          </mxGeometry>
        </mxCell>
        <mxCell id="LiE9dQvSeZkpO_dIyxeo-15" value="" style="endArrow=none;html=1;rounded=0;exitX=0.5;exitY=0;exitDx=0;exitDy=0;" parent="1" source="LiE9dQvSeZkpO_dIyxeo-2" target="LiE9dQvSeZkpO_dIyxeo-4" edge="1">
          <mxGeometry width="50" height="50" relative="1" as="geometry">
            <mxPoint x="1724.5900000000001" y="-42.129999999999995" as="sourcePoint" />
            <mxPoint x="1563.681886848016" y="-118.40354634635878" as="targetPoint" />
          </mxGeometry>
        </mxCell>
        <mxCell id="LiE9dQvSeZkpO_dIyxeo-16" value="" style="endArrow=none;html=1;rounded=0;" parent="1" source="LiE9dQvSeZkpO_dIyxeo-2" target="LiE9dQvSeZkpO_dIyxeo-6" edge="1">
          <mxGeometry width="50" height="50" relative="1" as="geometry">
            <mxPoint x="1734.5900000000001" y="-32.129999999999995" as="sourcePoint" />
            <mxPoint x="1573.681886848016" y="-108.40354634635878" as="targetPoint" />
          </mxGeometry>
        </mxCell>
        <mxCell id="LiE9dQvSeZkpO_dIyxeo-17" value="" style="endArrow=none;html=1;rounded=0;entryX=0;entryY=1;entryDx=0;entryDy=0;" parent="1" source="LiE9dQvSeZkpO_dIyxeo-2" target="LiE9dQvSeZkpO_dIyxeo-10" edge="1">
          <mxGeometry width="50" height="50" relative="1" as="geometry">
            <mxPoint x="1744.5900000000001" y="-22.129999999999995" as="sourcePoint" />
            <mxPoint x="1583.681886848016" y="-98.40354634635878" as="targetPoint" />
          </mxGeometry>
        </mxCell>
        <mxCell id="LiE9dQvSeZkpO_dIyxeo-18" value="" style="endArrow=none;html=1;rounded=0;" parent="1" source="LiE9dQvSeZkpO_dIyxeo-2" target="LiE9dQvSeZkpO_dIyxeo-8" edge="1">
          <mxGeometry width="50" height="50" relative="1" as="geometry">
            <mxPoint x="1754.5900000000001" y="-12.129999999999995" as="sourcePoint" />
            <mxPoint x="1593.681886848016" y="-88.40354634635878" as="targetPoint" />
          </mxGeometry>
        </mxCell>
        <mxCell id="LiE9dQvSeZkpO_dIyxeo-19" value="" style="endArrow=none;html=1;rounded=0;" parent="1" source="LiE9dQvSeZkpO_dIyxeo-2" target="LiE9dQvSeZkpO_dIyxeo-11" edge="1">
          <mxGeometry width="50" height="50" relative="1" as="geometry">
            <mxPoint x="1764.5900000000001" y="-2.1299999999999955" as="sourcePoint" />
            <mxPoint x="1603.681886848016" y="-78.40354634635878" as="targetPoint" />
          </mxGeometry>
        </mxCell>
        <mxCell id="LiE9dQvSeZkpO_dIyxeo-20" value="" style="endArrow=none;html=1;rounded=0;" parent="1" source="LiE9dQvSeZkpO_dIyxeo-2" target="LiE9dQvSeZkpO_dIyxeo-7" edge="1">
          <mxGeometry width="50" height="50" relative="1" as="geometry">
            <mxPoint x="1734.5900000000001" y="-2.1299999999999955" as="sourcePoint" />
            <mxPoint x="1613.681886848016" y="-68.40354634635878" as="targetPoint" />
          </mxGeometry>
        </mxCell>
        <mxCell id="LiE9dQvSeZkpO_dIyxeo-21" value="" style="endArrow=none;html=1;rounded=0;" parent="1" source="LiE9dQvSeZkpO_dIyxeo-2" target="LiE9dQvSeZkpO_dIyxeo-9" edge="1">
          <mxGeometry width="50" height="50" relative="1" as="geometry">
            <mxPoint x="1784.5900000000001" y="17.870000000000005" as="sourcePoint" />
            <mxPoint x="1623.681886848016" y="-58.40354634635878" as="targetPoint" />
          </mxGeometry>
        </mxCell>
        <mxCell id="LiE9dQvSeZkpO_dIyxeo-22" value="Pemesanan" style="rounded=0;whiteSpace=wrap;html=1;" parent="1" vertex="1">
          <mxGeometry x="745" y="132" width="120" height="60" as="geometry" />
        </mxCell>
        <mxCell id="LiE9dQvSeZkpO_dIyxeo-23" value="no_booking" style="ellipse;whiteSpace=wrap;html=1;" parent="1" vertex="1">
          <mxGeometry x="630" y="98" width="80" height="40" as="geometry" />
        </mxCell>
        <mxCell id="LiE9dQvSeZkpO_dIyxeo-24" value="kode_pelayanan" style="ellipse;whiteSpace=wrap;html=1;" parent="1" vertex="1">
          <mxGeometry x="765" y="57" width="110" height="40" as="geometry" />
        </mxCell>
        <mxCell id="LiE9dQvSeZkpO_dIyxeo-25" value="status_booking" style="ellipse;whiteSpace=wrap;html=1;" parent="1" vertex="1">
          <mxGeometry x="605" y="187" width="110" height="40" as="geometry" />
        </mxCell>
        <mxCell id="LiE9dQvSeZkpO_dIyxeo-29" value="tempat_duduk" style="ellipse;whiteSpace=wrap;html=1;" parent="1" vertex="1">
          <mxGeometry x="700" y="237" width="110" height="40" as="geometry" />
        </mxCell>
        <mxCell id="LiE9dQvSeZkpO_dIyxeo-31" value="" style="endArrow=none;html=1;rounded=0;" parent="1" source="LiE9dQvSeZkpO_dIyxeo-22" target="LiE9dQvSeZkpO_dIyxeo-23" edge="1">
          <mxGeometry width="50" height="50" relative="1" as="geometry">
            <mxPoint x="965" y="112" as="sourcePoint" />
            <mxPoint x="1015" y="62" as="targetPoint" />
          </mxGeometry>
        </mxCell>
        <mxCell id="LiE9dQvSeZkpO_dIyxeo-32" value="" style="endArrow=none;html=1;rounded=0;exitX=0.5;exitY=0;exitDx=0;exitDy=0;" parent="1" source="LiE9dQvSeZkpO_dIyxeo-22" target="LiE9dQvSeZkpO_dIyxeo-24" edge="1">
          <mxGeometry width="50" height="50" relative="1" as="geometry">
            <mxPoint x="815" y="142" as="sourcePoint" />
            <mxPoint x="654.0918868480157" y="65.72645365364122" as="targetPoint" />
          </mxGeometry>
        </mxCell>
        <mxCell id="LiE9dQvSeZkpO_dIyxeo-33" value="" style="endArrow=none;html=1;rounded=0;" parent="1" source="LiE9dQvSeZkpO_dIyxeo-22" target="LiE9dQvSeZkpO_dIyxeo-25" edge="1">
          <mxGeometry width="50" height="50" relative="1" as="geometry">
            <mxPoint x="825" y="152" as="sourcePoint" />
            <mxPoint x="664.0918868480157" y="75.72645365364122" as="targetPoint" />
          </mxGeometry>
        </mxCell>
        <mxCell id="LiE9dQvSeZkpO_dIyxeo-34" value="" style="endArrow=none;html=1;rounded=0;" parent="1" source="LiE9dQvSeZkpO_dIyxeo-22" target="LiE9dQvSeZkpO_dIyxeo-29" edge="1">
          <mxGeometry width="50" height="50" relative="1" as="geometry">
            <mxPoint x="835" y="162" as="sourcePoint" />
            <mxPoint x="700" y="262" as="targetPoint" />
          </mxGeometry>
        </mxCell>
        <mxCell id="LiE9dQvSeZkpO_dIyxeo-39" value="Pelayanan" style="rounded=0;whiteSpace=wrap;html=1;" parent="1" vertex="1">
          <mxGeometry x="310" y="188" width="120" height="60" as="geometry" />
        </mxCell>
        <mxCell id="LiE9dQvSeZkpO_dIyxeo-41" value="&lt;u&gt;kode_pelayanan&lt;/u&gt;" style="ellipse;whiteSpace=wrap;html=1;" parent="1" vertex="1">
          <mxGeometry x="290" y="128" width="110" height="40" as="geometry" />
        </mxCell>
        <mxCell id="LiE9dQvSeZkpO_dIyxeo-42" value="nama_pelayanan" style="ellipse;whiteSpace=wrap;html=1;" parent="1" vertex="1">
          <mxGeometry x="300" y="263" width="110" height="40" as="geometry" />
        </mxCell>
        <mxCell id="LiE9dQvSeZkpO_dIyxeo-45" value="" style="endArrow=none;html=1;rounded=0;exitX=0.5;exitY=0;exitDx=0;exitDy=0;" parent="1" source="LiE9dQvSeZkpO_dIyxeo-39" target="LiE9dQvSeZkpO_dIyxeo-41" edge="1">
          <mxGeometry width="50" height="50" relative="1" as="geometry">
            <mxPoint x="380" y="198" as="sourcePoint" />
            <mxPoint x="219.09188684801575" y="121.72645365364122" as="targetPoint" />
          </mxGeometry>
        </mxCell>
        <mxCell id="LiE9dQvSeZkpO_dIyxeo-46" value="" style="endArrow=none;html=1;rounded=0;" parent="1" source="LiE9dQvSeZkpO_dIyxeo-39" target="LiE9dQvSeZkpO_dIyxeo-42" edge="1">
          <mxGeometry width="50" height="50" relative="1" as="geometry">
            <mxPoint x="390" y="208" as="sourcePoint" />
            <mxPoint x="229.09188684801575" y="131.72645365364122" as="targetPoint" />
          </mxGeometry>
        </mxCell>
        <mxCell id="LiE9dQvSeZkpO_dIyxeo-48" value="boarding_pass" style="rounded=0;whiteSpace=wrap;html=1;" parent="1" vertex="1">
          <mxGeometry x="1175" y="490" width="120" height="60" as="geometry" />
        </mxCell>
        <mxCell id="LiE9dQvSeZkpO_dIyxeo-49" value="no_booking" style="ellipse;whiteSpace=wrap;html=1;" parent="1" vertex="1">
          <mxGeometry x="1005" y="380" width="80" height="40" as="geometry" />
        </mxCell>
        <mxCell id="LiE9dQvSeZkpO_dIyxeo-50" value="no_penerbangan" style="ellipse;whiteSpace=wrap;html=1;" parent="1" vertex="1">
          <mxGeometry x="1095" y="380" width="110" height="40" as="geometry" />
        </mxCell>
        <mxCell id="LiE9dQvSeZkpO_dIyxeo-51" value="no_kursi" style="ellipse;whiteSpace=wrap;html=1;" parent="1" vertex="1">
          <mxGeometry x="1205" y="605" width="110" height="40" as="geometry" />
        </mxCell>
        <mxCell id="LiE9dQvSeZkpO_dIyxeo-52" value="gerbang_keberangkatan" style="ellipse;whiteSpace=wrap;html=1;" parent="1" vertex="1">
          <mxGeometry x="990" y="450" width="140" height="40" as="geometry" />
        </mxCell>
        <mxCell id="LiE9dQvSeZkpO_dIyxeo-53" value="kewarganegaraan" style="ellipse;whiteSpace=wrap;html=1;" parent="1" vertex="1">
          <mxGeometry x="1370" y="420" width="110" height="40" as="geometry" />
        </mxCell>
        <mxCell id="LiE9dQvSeZkpO_dIyxeo-54" value="nu_urut_check_in" style="ellipse;whiteSpace=wrap;html=1;" parent="1" vertex="1">
          <mxGeometry x="980" y="545" width="140" height="40" as="geometry" />
        </mxCell>
        <mxCell id="LiE9dQvSeZkpO_dIyxeo-55" value="no_passport" style="ellipse;whiteSpace=wrap;html=1;" parent="1" vertex="1">
          <mxGeometry x="1270" y="390" width="110" height="40" as="geometry" />
        </mxCell>
        <mxCell id="LiE9dQvSeZkpO_dIyxeo-56" value="nama_penumpang" style="ellipse;whiteSpace=wrap;html=1;" parent="1" vertex="1">
          <mxGeometry x="1070" y="600" width="110" height="40" as="geometry" />
        </mxCell>
        <mxCell id="LiE9dQvSeZkpO_dIyxeo-57" value="" style="endArrow=none;html=1;rounded=0;exitX=0.5;exitY=0;exitDx=0;exitDy=0;" parent="1" source="LiE9dQvSeZkpO_dIyxeo-48" target="LiE9dQvSeZkpO_dIyxeo-49" edge="1">
          <mxGeometry width="50" height="50" relative="1" as="geometry">
            <mxPoint x="1395" y="470" as="sourcePoint" />
            <mxPoint x="1445" y="420" as="targetPoint" />
          </mxGeometry>
        </mxCell>
        <mxCell id="LiE9dQvSeZkpO_dIyxeo-58" value="" style="endArrow=none;html=1;rounded=0;exitX=0.5;exitY=0;exitDx=0;exitDy=0;" parent="1" source="LiE9dQvSeZkpO_dIyxeo-48" target="LiE9dQvSeZkpO_dIyxeo-50" edge="1">
          <mxGeometry width="50" height="50" relative="1" as="geometry">
            <mxPoint x="1245" y="500" as="sourcePoint" />
            <mxPoint x="1084.0918868480157" y="423.7264536536412" as="targetPoint" />
          </mxGeometry>
        </mxCell>
        <mxCell id="LiE9dQvSeZkpO_dIyxeo-59" value="" style="endArrow=none;html=1;rounded=0;" parent="1" source="LiE9dQvSeZkpO_dIyxeo-48" target="LiE9dQvSeZkpO_dIyxeo-51" edge="1">
          <mxGeometry width="50" height="50" relative="1" as="geometry">
            <mxPoint x="1255" y="510" as="sourcePoint" />
            <mxPoint x="1094.0918868480157" y="433.7264536536412" as="targetPoint" />
          </mxGeometry>
        </mxCell>
        <mxCell id="LiE9dQvSeZkpO_dIyxeo-60" value="" style="endArrow=none;html=1;rounded=0;entryX=0;entryY=1;entryDx=0;entryDy=0;" parent="1" source="LiE9dQvSeZkpO_dIyxeo-48" target="LiE9dQvSeZkpO_dIyxeo-55" edge="1">
          <mxGeometry width="50" height="50" relative="1" as="geometry">
            <mxPoint x="1265" y="520" as="sourcePoint" />
            <mxPoint x="1104.0918868480157" y="443.7264536536412" as="targetPoint" />
          </mxGeometry>
        </mxCell>
        <mxCell id="LiE9dQvSeZkpO_dIyxeo-61" value="" style="endArrow=none;html=1;rounded=0;" parent="1" source="LiE9dQvSeZkpO_dIyxeo-48" target="LiE9dQvSeZkpO_dIyxeo-53" edge="1">
          <mxGeometry width="50" height="50" relative="1" as="geometry">
            <mxPoint x="1275" y="530" as="sourcePoint" />
            <mxPoint x="1114.0918868480157" y="453.7264536536412" as="targetPoint" />
          </mxGeometry>
        </mxCell>
        <mxCell id="LiE9dQvSeZkpO_dIyxeo-62" value="" style="endArrow=none;html=1;rounded=0;" parent="1" source="LiE9dQvSeZkpO_dIyxeo-48" target="LiE9dQvSeZkpO_dIyxeo-56" edge="1">
          <mxGeometry width="50" height="50" relative="1" as="geometry">
            <mxPoint x="1285" y="540" as="sourcePoint" />
            <mxPoint x="1124.0918868480157" y="463.7264536536412" as="targetPoint" />
          </mxGeometry>
        </mxCell>
        <mxCell id="LiE9dQvSeZkpO_dIyxeo-63" value="" style="endArrow=none;html=1;rounded=0;" parent="1" source="LiE9dQvSeZkpO_dIyxeo-48" target="LiE9dQvSeZkpO_dIyxeo-52" edge="1">
          <mxGeometry width="50" height="50" relative="1" as="geometry">
            <mxPoint x="1255" y="540" as="sourcePoint" />
            <mxPoint x="1134.0918868480157" y="473.7264536536412" as="targetPoint" />
          </mxGeometry>
        </mxCell>
        <mxCell id="LiE9dQvSeZkpO_dIyxeo-64" value="" style="endArrow=none;html=1;rounded=0;" parent="1" source="LiE9dQvSeZkpO_dIyxeo-48" target="LiE9dQvSeZkpO_dIyxeo-54" edge="1">
          <mxGeometry width="50" height="50" relative="1" as="geometry">
            <mxPoint x="1305" y="560" as="sourcePoint" />
            <mxPoint x="1144.0918868480157" y="483.7264536536412" as="targetPoint" />
          </mxGeometry>
        </mxCell>
        <mxCell id="LiE9dQvSeZkpO_dIyxeo-65" value="tanggal_kadaluwarsa" style="ellipse;whiteSpace=wrap;html=1;" parent="1" vertex="1">
          <mxGeometry x="1330" y="480" width="130" height="40" as="geometry" />
        </mxCell>
        <mxCell id="LiE9dQvSeZkpO_dIyxeo-66" value="no_zona" style="ellipse;whiteSpace=wrap;html=1;" parent="1" vertex="1">
          <mxGeometry x="1310" y="545" width="130" height="40" as="geometry" />
        </mxCell>
        <mxCell id="LiE9dQvSeZkpO_dIyxeo-67" value="" style="endArrow=none;html=1;rounded=0;" parent="1" source="LiE9dQvSeZkpO_dIyxeo-48" target="LiE9dQvSeZkpO_dIyxeo-65" edge="1">
          <mxGeometry width="50" height="50" relative="1" as="geometry">
            <mxPoint x="1305" y="509.27006470118226" as="sourcePoint" />
            <mxPoint x="1349.994036664135" y="493.72467355317974" as="targetPoint" />
          </mxGeometry>
        </mxCell>
        <mxCell id="LiE9dQvSeZkpO_dIyxeo-68" value="" style="endArrow=none;html=1;rounded=0;entryX=0;entryY=0;entryDx=0;entryDy=0;" parent="1" source="LiE9dQvSeZkpO_dIyxeo-48" target="LiE9dQvSeZkpO_dIyxeo-66" edge="1">
          <mxGeometry width="50" height="50" relative="1" as="geometry">
            <mxPoint x="1315" y="519.2700647011823" as="sourcePoint" />
            <mxPoint x="1359.994036664135" y="503.72467355317974" as="targetPoint" />
          </mxGeometry>
        </mxCell>
        <mxCell id="LiE9dQvSeZkpO_dIyxeo-90" value="Penumpang" style="rounded=0;whiteSpace=wrap;html=1;" parent="1" vertex="1">
          <mxGeometry x="1390" y="736.8" width="120" height="60" as="geometry" />
        </mxCell>
        <mxCell id="LiE9dQvSeZkpO_dIyxeo-91" value="id_penumpang" style="ellipse;whiteSpace=wrap;html=1;" parent="1" vertex="1">
          <mxGeometry x="1264.59" y="710" width="100" height="40" as="geometry" />
        </mxCell>
        <mxCell id="LiE9dQvSeZkpO_dIyxeo-92" value="nama_depan" style="ellipse;whiteSpace=wrap;html=1;" parent="1" vertex="1">
          <mxGeometry x="1330" y="650" width="110" height="40" as="geometry" />
        </mxCell>
        <mxCell id="LiE9dQvSeZkpO_dIyxeo-93" value="nama_belakang" style="ellipse;whiteSpace=wrap;html=1;" parent="1" vertex="1">
          <mxGeometry x="1415" y="856.8" width="110" height="40" as="geometry" />
        </mxCell>
        <mxCell id="LiE9dQvSeZkpO_dIyxeo-94" value="no_telp" style="ellipse;whiteSpace=wrap;html=1;" parent="1" vertex="1">
          <mxGeometry x="1230" y="780" width="140" height="40" as="geometry" />
        </mxCell>
        <mxCell id="LiE9dQvSeZkpO_dIyxeo-95" value="tanggal_lahir" style="ellipse;whiteSpace=wrap;html=1;" parent="1" vertex="1">
          <mxGeometry x="1290" y="856.8" width="110" height="40" as="geometry" />
        </mxCell>
        <mxCell id="LiE9dQvSeZkpO_dIyxeo-97" value="jenis_kelamin" style="ellipse;whiteSpace=wrap;html=1;" parent="1" vertex="1">
          <mxGeometry x="1495" y="680" width="110" height="40" as="geometry" />
        </mxCell>
        <mxCell id="LiE9dQvSeZkpO_dIyxeo-99" value="" style="endArrow=none;html=1;rounded=0;exitX=0.5;exitY=0;exitDx=0;exitDy=0;" parent="1" source="LiE9dQvSeZkpO_dIyxeo-90" target="LiE9dQvSeZkpO_dIyxeo-91" edge="1">
          <mxGeometry width="50" height="50" relative="1" as="geometry">
            <mxPoint x="1645" y="755" as="sourcePoint" />
            <mxPoint x="1695" y="705" as="targetPoint" />
          </mxGeometry>
        </mxCell>
        <mxCell id="LiE9dQvSeZkpO_dIyxeo-100" value="" style="endArrow=none;html=1;rounded=0;exitX=0.5;exitY=0;exitDx=0;exitDy=0;" parent="1" source="LiE9dQvSeZkpO_dIyxeo-90" target="LiE9dQvSeZkpO_dIyxeo-92" edge="1">
          <mxGeometry width="50" height="50" relative="1" as="geometry">
            <mxPoint x="1495" y="785" as="sourcePoint" />
            <mxPoint x="1334.0918868480157" y="708.7264536536413" as="targetPoint" />
          </mxGeometry>
        </mxCell>
        <mxCell id="LiE9dQvSeZkpO_dIyxeo-101" value="" style="endArrow=none;html=1;rounded=0;" parent="1" source="LiE9dQvSeZkpO_dIyxeo-90" target="LiE9dQvSeZkpO_dIyxeo-93" edge="1">
          <mxGeometry width="50" height="50" relative="1" as="geometry">
            <mxPoint x="1505" y="795" as="sourcePoint" />
            <mxPoint x="1344.0918868480157" y="718.7264536536413" as="targetPoint" />
          </mxGeometry>
        </mxCell>
        <mxCell id="LiE9dQvSeZkpO_dIyxeo-102" value="" style="endArrow=none;html=1;rounded=0;entryX=0;entryY=1;entryDx=0;entryDy=0;" parent="1" source="LiE9dQvSeZkpO_dIyxeo-90" target="LiE9dQvSeZkpO_dIyxeo-97" edge="1">
          <mxGeometry width="50" height="50" relative="1" as="geometry">
            <mxPoint x="1515" y="805" as="sourcePoint" />
            <mxPoint x="1354.0918868480157" y="728.7264536536413" as="targetPoint" />
          </mxGeometry>
        </mxCell>
        <mxCell id="LiE9dQvSeZkpO_dIyxeo-103" value="" style="endArrow=none;html=1;rounded=0;" parent="1" source="LiE9dQvSeZkpO_dIyxeo-90" target="LiE9dQvSeZkpO_dIyxeo-95" edge="1">
          <mxGeometry width="50" height="50" relative="1" as="geometry">
            <mxPoint x="1525" y="815" as="sourcePoint" />
            <mxPoint x="1364.0918868480157" y="738.7264536536413" as="targetPoint" />
          </mxGeometry>
        </mxCell>
        <mxCell id="LiE9dQvSeZkpO_dIyxeo-105" value="" style="endArrow=none;html=1;rounded=0;" parent="1" source="LiE9dQvSeZkpO_dIyxeo-90" target="LiE9dQvSeZkpO_dIyxeo-94" edge="1">
          <mxGeometry width="50" height="50" relative="1" as="geometry">
            <mxPoint x="1505" y="825" as="sourcePoint" />
            <mxPoint x="1384.0918868480157" y="758.7264536536413" as="targetPoint" />
          </mxGeometry>
        </mxCell>
        <mxCell id="LiE9dQvSeZkpO_dIyxeo-107" value="kewarganegaraan" style="ellipse;whiteSpace=wrap;html=1;" parent="1" vertex="1">
          <mxGeometry x="1520" y="740" width="130" height="40" as="geometry" />
        </mxCell>
        <mxCell id="LiE9dQvSeZkpO_dIyxeo-108" value="email" style="ellipse;whiteSpace=wrap;html=1;" parent="1" vertex="1">
          <mxGeometry x="1485" y="816.8" width="130" height="40" as="geometry" />
        </mxCell>
        <mxCell id="LiE9dQvSeZkpO_dIyxeo-109" value="" style="endArrow=none;html=1;rounded=0;" parent="1" source="LiE9dQvSeZkpO_dIyxeo-90" target="LiE9dQvSeZkpO_dIyxeo-107" edge="1">
          <mxGeometry width="50" height="50" relative="1" as="geometry">
            <mxPoint x="1555" y="794.2700647011823" as="sourcePoint" />
            <mxPoint x="1599.994036664135" y="778.7246735531799" as="targetPoint" />
          </mxGeometry>
        </mxCell>
        <mxCell id="LiE9dQvSeZkpO_dIyxeo-110" value="" style="endArrow=none;html=1;rounded=0;entryX=0;entryY=0;entryDx=0;entryDy=0;" parent="1" source="LiE9dQvSeZkpO_dIyxeo-90" target="LiE9dQvSeZkpO_dIyxeo-108" edge="1">
          <mxGeometry width="50" height="50" relative="1" as="geometry">
            <mxPoint x="1565" y="804.2700647011823" as="sourcePoint" />
            <mxPoint x="1609.994036664135" y="788.7246735531799" as="targetPoint" />
          </mxGeometry>
        </mxCell>
        <mxCell id="LiE9dQvSeZkpO_dIyxeo-111" value="Penerbangan" style="rounded=0;whiteSpace=wrap;html=1;" parent="1" vertex="1">
          <mxGeometry x="595" y="510" width="120" height="60" as="geometry" />
        </mxCell>
        <mxCell id="LiE9dQvSeZkpO_dIyxeo-112" value="&lt;u&gt;no_penerbangan&lt;/u&gt;" style="ellipse;whiteSpace=wrap;html=1;" parent="1" vertex="1">
          <mxGeometry x="430" y="435" width="100" height="40" as="geometry" />
        </mxCell>
        <mxCell id="LiE9dQvSeZkpO_dIyxeo-113" value="no_maskapai" style="ellipse;whiteSpace=wrap;html=1;" parent="1" vertex="1">
          <mxGeometry x="515" y="400" width="110" height="40" as="geometry" />
        </mxCell>
        <mxCell id="LiE9dQvSeZkpO_dIyxeo-114" value="id_bandara" style="ellipse;whiteSpace=wrap;html=1;" parent="1" vertex="1">
          <mxGeometry x="580" y="340" width="110" height="40" as="geometry" />
        </mxCell>
        <mxCell id="LiE9dQvSeZkpO_dIyxeo-115" value="gerbang_keberangkatan&lt;span style=&quot;color: rgba(0, 0, 0, 0); font-family: monospace; font-size: 0px; text-align: start;&quot;&gt;%3CmxGraphModel%3E%3Croot%3E%3CmxCell%20id%3D%220%22%2F%3E%3CmxCell%20id%3D%221%22%20parent%3D%220%22%2F%3E%3CmxCell%20id%3D%222%22%20value%3D%22Penumpang%22%20style%3D%22rounded%3D0%3BwhiteSpace%3Dwrap%3Bhtml%3D1%3B%22%20vertex%3D%221%22%20parent%3D%221%22%3E%3CmxGeometry%20x%3D%222510%22%20y%3D%22185%22%20width%3D%22120%22%20height%3D%2260%22%20as%3D%22geometry%22%2F%3E%3C%2FmxCell%3E%3CmxCell%20id%3D%223%22%20value%3D%22id_penumpang%22%20style%3D%22ellipse%3BwhiteSpace%3Dwrap%3Bhtml%3D1%3B%22%20vertex%3D%221%22%20parent%3D%221%22%3E%3CmxGeometry%20x%3D%222320%22%20y%3D%2275%22%20width%3D%22100%22%20height%3D%2240%22%20as%3D%22geometry%22%2F%3E%3C%2FmxCell%3E%3CmxCell%20id%3D%224%22%20value%3D%22nama_depan%22%20style%3D%22ellipse%3BwhiteSpace%3Dwrap%3Bhtml%3D1%3B%22%20vertex%3D%221%22%20parent%3D%221%22%3E%3CmxGeometry%20x%3D%222430%22%20y%3D%2275%22%20width%3D%22110%22%20height%3D%2240%22%20as%3D%22geometry%22%2F%3E%3C%2FmxCell%3E%3CmxCell%20id%3D%225%22%20value%3D%22nama_belakang%22%20style%3D%22ellipse%3BwhiteSpace%3Dwrap%3Bhtml%3D1%3B%22%20vertex%3D%221%22%20parent%3D%221%22%3E%3CmxGeometry%20x%3D%222550%22%20y%3D%2275%22%20width%3D%22110%22%20height%3D%2240%22%20as%3D%22geometry%22%2F%3E%3C%2FmxCell%3E%3CmxCell%20id%3D%226%22%20value%3D%22no_telp%22%20style%3D%22ellipse%3BwhiteSpace%3Dwrap%3Bhtml%3D1%3B%22%20vertex%3D%221%22%20parent%3D%221%22%3E%3CmxGeometry%20x%3D%222260%22%20y%3D%22125%22%20width%3D%22140%22%20height%3D%2240%22%20as%3D%22geometry%22%2F%3E%3C%2FmxCell%3E%3CmxCell%20id%3D%227%22%20value%3D%22tanggal_lahir%22%20style%3D%22ellipse%3BwhiteSpace%3Dwrap%3Bhtml%3D1%3B%22%20vertex%3D%221%22%20parent%3D%221%22%3E%3CmxGeometry%20x%3D%222800%22%20y%3D%2255%22%20width%3D%22110%22%20height%3D%2240%22%20as%3D%22geometry%22%2F%3E%3C%2FmxCell%3E%3CmxCell%20id%3D%228%22%20value%3D%22jenis_kelamin%22%20style%3D%22ellipse%3BwhiteSpace%3Dwrap%3Bhtml%3D1%3B%22%20vertex%3D%221%22%20parent%3D%221%22%3E%3CmxGeometry%20x%3D%222670%22%20y%3D%2275%22%20width%3D%22110%22%20height%3D%2240%22%20as%3D%22geometry%22%2F%3E%3C%2FmxCell%3E%3CmxCell%20id%3D%229%22%20value%3D%22%22%20style%3D%22endArrow%3Dnone%3Bhtml%3D1%3Brounded%3D0%3BexitX%3D0.5%3BexitY%3D0%3BexitDx%3D0%3BexitDy%3D0%3B%22%20edge%3D%221%22%20source%3D%222%22%20target%3D%223%22%20parent%3D%221%22%3E%3CmxGeometry%20width%3D%2250%22%20height%3D%2250%22%20relative%3D%221%22%20as%3D%22geometry%22%3E%3CmxPoint%20x%3D%222730%22%20y%3D%22165%22%20as%3D%22sourcePoint%22%2F%3E%3CmxPoint%20x%3D%222780%22%20y%3D%22115%22%20as%3D%22targetPoint%22%2F%3E%3C%2FmxGeometry%3E%3C%2FmxCell%3E%3CmxCell%20id%3D%2210%22%20value%3D%22%22%20style%3D%22endArrow%3Dnone%3Bhtml%3D1%3Brounded%3D0%3BexitX%3D0.5%3BexitY%3D0%3BexitDx%3D0%3BexitDy%3D0%3B%22%20edge%3D%221%22%20source%3D%222%22%20target%3D%224%22%20parent%3D%221%22%3E%3CmxGeometry%20width%3D%2250%22%20height%3D%2250%22%20relative%3D%221%22%20as%3D%22geometry%22%3E%3CmxPoint%20x%3D%222580%22%20y%3D%22195%22%20as%3D%22sourcePoint%22%2F%3E%3CmxPoint%20x%3D%222419.0918868480157%22%20y%3D%22118.72645365364122%22%20as%3D%22targetPoint%22%2F%3E%3C%2FmxGeometry%3E%3C%2FmxCell%3E%3CmxCell%20id%3D%2211%22%20value%3D%22%22%20style%3D%22endArrow%3Dnone%3Bhtml%3D1%3Brounded%3D0%3B%22%20edge%3D%221%22%20source%3D%222%22%20target%3D%225%22%20parent%3D%221%22%3E%3CmxGeometry%20width%3D%2250%22%20height%3D%2250%22%20relative%3D%221%22%20as%3D%22geometry%22%3E%3CmxPoint%20x%3D%222590%22%20y%3D%22205%22%20as%3D%22sourcePoint%22%2F%3E%3CmxPoint%20x%3D%222429.0918868480157%22%20y%3D%22128.72645365364122%22%20as%3D%22targetPoint%22%2F%3E%3C%2FmxGeometry%3E%3C%2FmxCell%3E%3CmxCell%20id%3D%2212%22%20value%3D%22%22%20style%3D%22endArrow%3Dnone%3Bhtml%3D1%3Brounded%3D0%3BentryX%3D0%3BentryY%3D1%3BentryDx%3D0%3BentryDy%3D0%3B%22%20edge%3D%221%22%20source%3D%222%22%20target%3D%228%22%20parent%3D%221%22%3E%3CmxGeometry%20width%3D%2250%22%20height%3D%2250%22%20relative%3D%221%22%20as%3D%22geometry%22%3E%3CmxPoint%20x%3D%222600%22%20y%3D%22215%22%20as%3D%22sourcePoint%22%2F%3E%3CmxPoint%20x%3D%222439.0918868480157%22%20y%3D%22138.72645365364122%22%20as%3D%22targetPoint%22%2F%3E%3C%2FmxGeometry%3E%3C%2FmxCell%3E%3CmxCell%20id%3D%2213%22%20value%3D%22%22%20style%3D%22endArrow%3Dnone%3Bhtml%3D1%3Brounded%3D0%3B%22%20edge%3D%221%22%20source%3D%222%22%20target%3D%227%22%20parent%3D%221%22%3E%3CmxGeometry%20width%3D%2250%22%20height%3D%2250%22%20relative%3D%221%22%20as%3D%22geometry%22%3E%3CmxPoint%20x%3D%222610%22%20y%3D%22225%22%20as%3D%22sourcePoint%22%2F%3E%3CmxPoint%20x%3D%222449.0918868480157%22%20y%3D%22148.72645365364122%22%20as%3D%22targetPoint%22%2F%3E%3C%2FmxGeometry%3E%3C%2FmxCell%3E%3CmxCell%20id%3D%2214%22%20value%3D%22%22%20style%3D%22endArrow%3Dnone%3Bhtml%3D1%3Brounded%3D0%3B%22%20edge%3D%221%22%20source%3D%222%22%20target%3D%226%22%20parent%3D%221%22%3E%3CmxGeometry%20width%3D%2250%22%20height%3D%2250%22%20relative%3D%221%22%20as%3D%22geometry%22%3E%3CmxPoint%20x%3D%222590%22%20y%3D%22235%22%20as%3D%22sourcePoint%22%2F%3E%3CmxPoint%20x%3D%222469.0918868480157%22%20y%3D%22168.72645365364122%22%20as%3D%22targetPoint%22%2F%3E%3C%2FmxGeometry%3E%3C%2FmxCell%3E%3CmxCell%20id%3D%2215%22%20value%3D%22kewarganegaraan%22%20style%3D%22ellipse%3BwhiteSpace%3Dwrap%3Bhtml%3D1%3B%22%20vertex%3D%221%22%20parent%3D%221%22%3E%3CmxGeometry%20x%3D%222730%22%20y%3D%22135%22%20width%3D%22130%22%20height%3D%2240%22%20as%3D%22geometry%22%2F%3E%3C%2FmxCell%3E%3CmxCell%20id%3D%2216%22%20value%3D%22email%22%20style%3D%22ellipse%3BwhiteSpace%3Dwrap%3Bhtml%3D1%3B%22%20vertex%3D%221%22%20parent%3D%221%22%3E%3CmxGeometry%20x%3D%222690%22%20y%3D%22245%22%20width%3D%22130%22%20height%3D%2240%22%20as%3D%22geometry%22%2F%3E%3C%2FmxCell%3E%3CmxCell%20id%3D%2217%22%20value%3D%22%22%20style%3D%22endArrow%3Dnone%3Bhtml%3D1%3Brounded%3D0%3B%22%20edge%3D%221%22%20source%3D%222%22%20target%3D%2215%22%20parent%3D%221%22%3E%3CmxGeometry%20width%3D%2250%22%20height%3D%2250%22%20relative%3D%221%22%20as%3D%22geometry%22%3E%3CmxPoint%20x%3D%222640%22%20y%3D%22204.27006470118226%22%20as%3D%22sourcePoint%22%2F%3E%3CmxPoint%20x%3D%222684.994036664135%22%20y%3D%22188.72467355317974%22%20as%3D%22targetPoint%22%2F%3E%3C%2FmxGeometry%3E%3C%2FmxCell%3E%3CmxCell%20id%3D%2218%22%20value%3D%22%22%20style%3D%22endArrow%3Dnone%3Bhtml%3D1%3Brounded%3D0%3BentryX%3D0%3BentryY%3D0%3BentryDx%3D0%3BentryDy%3D0%3B%22%20edge%3D%221%22%20source%3D%222%22%20target%3D%2216%22%20parent%3D%221%22%3E%3CmxGeometry%20width%3D%2250%22%20height%3D%2250%22%20relative%3D%221%22%20as%3D%22geometry%22%3E%3CmxPoint%20x%3D%222650%22%20y%3D%22214.27006470118226%22%20as%3D%22sourcePoint%22%2F%3E%3CmxPoint%20x%3D%222694.994036664135%22%20y%3D%22198.72467355317974%22%20as%3D%22targetPoint%22%2F%3E%3C%2FmxGeometry%3E%3C%2FmxCell%3E%3C%2Froot%3E%3C%2FmxGraphModel%3E&lt;/span&gt;" style="ellipse;whiteSpace=wrap;html=1;" parent="1" vertex="1">
          <mxGeometry x="700" y="455" width="140" height="40" as="geometry" />
        </mxCell>
        <mxCell id="LiE9dQvSeZkpO_dIyxeo-116" value="tanggal_keberangkatan" style="ellipse;whiteSpace=wrap;html=1;" parent="1" vertex="1">
          <mxGeometry x="540" y="605" width="160" height="40" as="geometry" />
        </mxCell>
        <mxCell id="LiE9dQvSeZkpO_dIyxeo-117" value="waktu_keberangkatan" style="ellipse;whiteSpace=wrap;html=1;" parent="1" vertex="1">
          <mxGeometry x="650" y="395" width="130" height="40" as="geometry" />
        </mxCell>
        <mxCell id="LiE9dQvSeZkpO_dIyxeo-118" value="" style="endArrow=none;html=1;rounded=0;exitX=0.5;exitY=0;exitDx=0;exitDy=0;" parent="1" source="LiE9dQvSeZkpO_dIyxeo-111" target="LiE9dQvSeZkpO_dIyxeo-112" edge="1">
          <mxGeometry width="50" height="50" relative="1" as="geometry">
            <mxPoint x="815" y="490" as="sourcePoint" />
            <mxPoint x="865" y="440" as="targetPoint" />
          </mxGeometry>
        </mxCell>
        <mxCell id="LiE9dQvSeZkpO_dIyxeo-119" value="" style="endArrow=none;html=1;rounded=0;exitX=0.5;exitY=0;exitDx=0;exitDy=0;" parent="1" source="LiE9dQvSeZkpO_dIyxeo-111" target="LiE9dQvSeZkpO_dIyxeo-113" edge="1">
          <mxGeometry width="50" height="50" relative="1" as="geometry">
            <mxPoint x="665" y="520" as="sourcePoint" />
            <mxPoint x="504.09188684801575" y="443.72645365364133" as="targetPoint" />
          </mxGeometry>
        </mxCell>
        <mxCell id="LiE9dQvSeZkpO_dIyxeo-120" value="" style="endArrow=none;html=1;rounded=0;" parent="1" source="LiE9dQvSeZkpO_dIyxeo-111" target="LiE9dQvSeZkpO_dIyxeo-114" edge="1">
          <mxGeometry width="50" height="50" relative="1" as="geometry">
            <mxPoint x="675" y="530" as="sourcePoint" />
            <mxPoint x="514.0918868480157" y="453.72645365364133" as="targetPoint" />
          </mxGeometry>
        </mxCell>
        <mxCell id="LiE9dQvSeZkpO_dIyxeo-121" value="" style="endArrow=none;html=1;rounded=0;entryX=0;entryY=1;entryDx=0;entryDy=0;" parent="1" source="LiE9dQvSeZkpO_dIyxeo-111" target="LiE9dQvSeZkpO_dIyxeo-117" edge="1">
          <mxGeometry width="50" height="50" relative="1" as="geometry">
            <mxPoint x="685" y="540" as="sourcePoint" />
            <mxPoint x="524.0918868480157" y="463.72645365364133" as="targetPoint" />
            <Array as="points" />
          </mxGeometry>
        </mxCell>
        <mxCell id="LiE9dQvSeZkpO_dIyxeo-122" value="" style="endArrow=none;html=1;rounded=0;" parent="1" source="LiE9dQvSeZkpO_dIyxeo-111" target="LiE9dQvSeZkpO_dIyxeo-116" edge="1">
          <mxGeometry width="50" height="50" relative="1" as="geometry">
            <mxPoint x="695" y="550" as="sourcePoint" />
            <mxPoint x="534.0918868480157" y="473.72645365364133" as="targetPoint" />
          </mxGeometry>
        </mxCell>
        <mxCell id="LiE9dQvSeZkpO_dIyxeo-123" value="" style="endArrow=none;html=1;rounded=0;" parent="1" source="LiE9dQvSeZkpO_dIyxeo-111" target="LiE9dQvSeZkpO_dIyxeo-115" edge="1">
          <mxGeometry width="50" height="50" relative="1" as="geometry">
            <mxPoint x="675" y="560" as="sourcePoint" />
            <mxPoint x="554.0918868480157" y="493.72645365364133" as="targetPoint" />
          </mxGeometry>
        </mxCell>
        <mxCell id="LiE9dQvSeZkpO_dIyxeo-124" value="waktu_tiba" style="ellipse;whiteSpace=wrap;html=1;" parent="1" vertex="1">
          <mxGeometry x="365" y="572.5" width="130" height="40" as="geometry" />
        </mxCell>
        <mxCell id="LiE9dQvSeZkpO_dIyxeo-125" value="tanggal_tiba" style="ellipse;whiteSpace=wrap;html=1;" parent="1" vertex="1">
          <mxGeometry x="730" y="585" width="130" height="40" as="geometry" />
        </mxCell>
        <mxCell id="LiE9dQvSeZkpO_dIyxeo-126" value="" style="endArrow=none;html=1;rounded=0;" parent="1" source="LiE9dQvSeZkpO_dIyxeo-111" target="LiE9dQvSeZkpO_dIyxeo-124" edge="1">
          <mxGeometry width="50" height="50" relative="1" as="geometry">
            <mxPoint x="725" y="529.2700647011823" as="sourcePoint" />
            <mxPoint x="769.9940366641349" y="513.7246735531799" as="targetPoint" />
          </mxGeometry>
        </mxCell>
        <mxCell id="LiE9dQvSeZkpO_dIyxeo-127" value="" style="endArrow=none;html=1;rounded=0;entryX=0;entryY=0;entryDx=0;entryDy=0;" parent="1" source="LiE9dQvSeZkpO_dIyxeo-111" target="LiE9dQvSeZkpO_dIyxeo-125" edge="1">
          <mxGeometry width="50" height="50" relative="1" as="geometry">
            <mxPoint x="735" y="539.2700647011823" as="sourcePoint" />
            <mxPoint x="779.9940366641349" y="523.7246735531799" as="targetPoint" />
          </mxGeometry>
        </mxCell>
        <mxCell id="LiE9dQvSeZkpO_dIyxeo-128" value="gerbang_tiba&lt;span style=&quot;color: rgba(0, 0, 0, 0); font-family: monospace; font-size: 0px; text-align: start;&quot;&gt;%3CmxGraphModel%3E%3Croot%3E%3CmxCell%20id%3D%220%22%2F%3E%3CmxCell%20id%3D%221%22%20parent%3D%220%22%2F%3E%3CmxCell%20id%3D%222%22%20value%3D%22Penumpang%22%20style%3D%22rounded%3D0%3BwhiteSpace%3Dwrap%3Bhtml%3D1%3B%22%20vertex%3D%221%22%20parent%3D%221%22%3E%3CmxGeometry%20x%3D%222510%22%20y%3D%22185%22%20width%3D%22120%22%20height%3D%2260%22%20as%3D%22geometry%22%2F%3E%3C%2FmxCell%3E%3CmxCell%20id%3D%223%22%20value%3D%22id_penumpang%22%20style%3D%22ellipse%3BwhiteSpace%3Dwrap%3Bhtml%3D1%3B%22%20vertex%3D%221%22%20parent%3D%221%22%3E%3CmxGeometry%20x%3D%222320%22%20y%3D%2275%22%20width%3D%22100%22%20height%3D%2240%22%20as%3D%22geometry%22%2F%3E%3C%2FmxCell%3E%3CmxCell%20id%3D%224%22%20value%3D%22nama_depan%22%20style%3D%22ellipse%3BwhiteSpace%3Dwrap%3Bhtml%3D1%3B%22%20vertex%3D%221%22%20parent%3D%221%22%3E%3CmxGeometry%20x%3D%222430%22%20y%3D%2275%22%20width%3D%22110%22%20height%3D%2240%22%20as%3D%22geometry%22%2F%3E%3C%2FmxCell%3E%3CmxCell%20id%3D%225%22%20value%3D%22nama_belakang%22%20style%3D%22ellipse%3BwhiteSpace%3Dwrap%3Bhtml%3D1%3B%22%20vertex%3D%221%22%20parent%3D%221%22%3E%3CmxGeometry%20x%3D%222550%22%20y%3D%2275%22%20width%3D%22110%22%20height%3D%2240%22%20as%3D%22geometry%22%2F%3E%3C%2FmxCell%3E%3CmxCell%20id%3D%226%22%20value%3D%22no_telp%22%20style%3D%22ellipse%3BwhiteSpace%3Dwrap%3Bhtml%3D1%3B%22%20vertex%3D%221%22%20parent%3D%221%22%3E%3CmxGeometry%20x%3D%222260%22%20y%3D%22125%22%20width%3D%22140%22%20height%3D%2240%22%20as%3D%22geometry%22%2F%3E%3C%2FmxCell%3E%3CmxCell%20id%3D%227%22%20value%3D%22tanggal_lahir%22%20style%3D%22ellipse%3BwhiteSpace%3Dwrap%3Bhtml%3D1%3B%22%20vertex%3D%221%22%20parent%3D%221%22%3E%3CmxGeometry%20x%3D%222800%22%20y%3D%2255%22%20width%3D%22110%22%20height%3D%2240%22%20as%3D%22geometry%22%2F%3E%3C%2FmxCell%3E%3CmxCell%20id%3D%228%22%20value%3D%22jenis_kelamin%22%20style%3D%22ellipse%3BwhiteSpace%3Dwrap%3Bhtml%3D1%3B%22%20vertex%3D%221%22%20parent%3D%221%22%3E%3CmxGeometry%20x%3D%222670%22%20y%3D%2275%22%20width%3D%22110%22%20height%3D%2240%22%20as%3D%22geometry%22%2F%3E%3C%2FmxCell%3E%3CmxCell%20id%3D%229%22%20value%3D%22%22%20style%3D%22endArrow%3Dnone%3Bhtml%3D1%3Brounded%3D0%3BexitX%3D0.5%3BexitY%3D0%3BexitDx%3D0%3BexitDy%3D0%3B%22%20edge%3D%221%22%20source%3D%222%22%20target%3D%223%22%20parent%3D%221%22%3E%3CmxGeometry%20width%3D%2250%22%20height%3D%2250%22%20relative%3D%221%22%20as%3D%22geometry%22%3E%3CmxPoint%20x%3D%222730%22%20y%3D%22165%22%20as%3D%22sourcePoint%22%2F%3E%3CmxPoint%20x%3D%222780%22%20y%3D%22115%22%20as%3D%22targetPoint%22%2F%3E%3C%2FmxGeometry%3E%3C%2FmxCell%3E%3CmxCell%20id%3D%2210%22%20value%3D%22%22%20style%3D%22endArrow%3Dnone%3Bhtml%3D1%3Brounded%3D0%3BexitX%3D0.5%3BexitY%3D0%3BexitDx%3D0%3BexitDy%3D0%3B%22%20edge%3D%221%22%20source%3D%222%22%20target%3D%224%22%20parent%3D%221%22%3E%3CmxGeometry%20width%3D%2250%22%20height%3D%2250%22%20relative%3D%221%22%20as%3D%22geometry%22%3E%3CmxPoint%20x%3D%222580%22%20y%3D%22195%22%20as%3D%22sourcePoint%22%2F%3E%3CmxPoint%20x%3D%222419.0918868480157%22%20y%3D%22118.72645365364122%22%20as%3D%22targetPoint%22%2F%3E%3C%2FmxGeometry%3E%3C%2FmxCell%3E%3CmxCell%20id%3D%2211%22%20value%3D%22%22%20style%3D%22endArrow%3Dnone%3Bhtml%3D1%3Brounded%3D0%3B%22%20edge%3D%221%22%20source%3D%222%22%20target%3D%225%22%20parent%3D%221%22%3E%3CmxGeometry%20width%3D%2250%22%20height%3D%2250%22%20relative%3D%221%22%20as%3D%22geometry%22%3E%3CmxPoint%20x%3D%222590%22%20y%3D%22205%22%20as%3D%22sourcePoint%22%2F%3E%3CmxPoint%20x%3D%222429.0918868480157%22%20y%3D%22128.72645365364122%22%20as%3D%22targetPoint%22%2F%3E%3C%2FmxGeometry%3E%3C%2FmxCell%3E%3CmxCell%20id%3D%2212%22%20value%3D%22%22%20style%3D%22endArrow%3Dnone%3Bhtml%3D1%3Brounded%3D0%3BentryX%3D0%3BentryY%3D1%3BentryDx%3D0%3BentryDy%3D0%3B%22%20edge%3D%221%22%20source%3D%222%22%20target%3D%228%22%20parent%3D%221%22%3E%3CmxGeometry%20width%3D%2250%22%20height%3D%2250%22%20relative%3D%221%22%20as%3D%22geometry%22%3E%3CmxPoint%20x%3D%222600%22%20y%3D%22215%22%20as%3D%22sourcePoint%22%2F%3E%3CmxPoint%20x%3D%222439.0918868480157%22%20y%3D%22138.72645365364122%22%20as%3D%22targetPoint%22%2F%3E%3C%2FmxGeometry%3E%3C%2FmxCell%3E%3CmxCell%20id%3D%2213%22%20value%3D%22%22%20style%3D%22endArrow%3Dnone%3Bhtml%3D1%3Brounded%3D0%3B%22%20edge%3D%221%22%20source%3D%222%22%20target%3D%227%22%20parent%3D%221%22%3E%3CmxGeometry%20width%3D%2250%22%20height%3D%2250%22%20relative%3D%221%22%20as%3D%22geometry%22%3E%3CmxPoint%20x%3D%222610%22%20y%3D%22225%22%20as%3D%22sourcePoint%22%2F%3E%3CmxPoint%20x%3D%222449.0918868480157%22%20y%3D%22148.72645365364122%22%20as%3D%22targetPoint%22%2F%3E%3C%2FmxGeometry%3E%3C%2FmxCell%3E%3CmxCell%20id%3D%2214%22%20value%3D%22%22%20style%3D%22endArrow%3Dnone%3Bhtml%3D1%3Brounded%3D0%3B%22%20edge%3D%221%22%20source%3D%222%22%20target%3D%226%22%20parent%3D%221%22%3E%3CmxGeometry%20width%3D%2250%22%20height%3D%2250%22%20relative%3D%221%22%20as%3D%22geometry%22%3E%3CmxPoint%20x%3D%222590%22%20y%3D%22235%22%20as%3D%22sourcePoint%22%2F%3E%3CmxPoint%20x%3D%222469.0918868480157%22%20y%3D%22168.72645365364122%22%20as%3D%22targetPoint%22%2F%3E%3C%2FmxGeometry%3E%3C%2FmxCell%3E%3CmxCell%20id%3D%2215%22%20value%3D%22kewarganegaraan%22%20style%3D%22ellipse%3BwhiteSpace%3Dwrap%3Bhtml%3D1%3B%22%20vertex%3D%221%22%20parent%3D%221%22%3E%3CmxGeometry%20x%3D%222730%22%20y%3D%22135%22%20width%3D%22130%22%20height%3D%2240%22%20as%3D%22geometry%22%2F%3E%3C%2FmxCell%3E%3CmxCell%20id%3D%2216%22%20value%3D%22email%22%20style%3D%22ellipse%3BwhiteSpace%3Dwrap%3Bhtml%3D1%3B%22%20vertex%3D%221%22%20parent%3D%221%22%3E%3CmxGeometry%20x%3D%222690%22%20y%3D%22245%22%20width%3D%22130%22%20height%3D%2240%22%20as%3D%22geometry%22%2F%3E%3C%2FmxCell%3E%3CmxCell%20id%3D%2217%22%20value%3D%22%22%20style%3D%22endArrow%3Dnone%3Bhtml%3D1%3Brounded%3D0%3B%22%20edge%3D%221%22%20source%3D%222%22%20target%3D%2215%22%20parent%3D%221%22%3E%3CmxGeometry%20width%3D%2250%22%20height%3D%2250%22%20relative%3D%221%22%20as%3D%22geometry%22%3E%3CmxPoint%20x%3D%222640%22%20y%3D%22204.27006470118226%22%20as%3D%22sourcePoint%22%2F%3E%3CmxPoint%20x%3D%222684.994036664135%22%20y%3D%22188.72467355317974%22%20as%3D%22targetPoint%22%2F%3E%3C%2FmxGeometry%3E%3C%2FmxCell%3E%3CmxCell%20id%3D%2218%22%20value%3D%22%22%20style%3D%22endArrow%3Dnone%3Bhtml%3D1%3Brounded%3D0%3BentryX%3D0%3BentryY%3D0%3BentryDx%3D0%3BentryDy%3D0%3B%22%20edge%3D%221%22%20source%3D%222%22%20target%3D%2216%22%20parent%3D%221%22%3E%3CmxGeometry%20width%3D%2250%22%20height%3D%2250%22%20relative%3D%221%22%20as%3D%22geometry%22%3E%3CmxPoint%20x%3D%222650%22%20y%3D%22214.27006470118226%22%20as%3D%22sourcePoint%22%2F%3E%3CmxPoint%20x%3D%222694.994036664135%22%20y%3D%22198.72467355317974%22%20as%3D%22targetPoint%22%2F%3E%3C%2FmxGeometry%3E%3C%2FmxCell%3E%3C%2Froot%3E%3C%2FmxGraphMode&lt;/span&gt;" style="ellipse;whiteSpace=wrap;html=1;" parent="1" vertex="1">
          <mxGeometry x="385" y="510" width="140" height="40" as="geometry" />
        </mxCell>
        <mxCell id="LiE9dQvSeZkpO_dIyxeo-129" value="" style="endArrow=none;html=1;rounded=0;" parent="1" source="LiE9dQvSeZkpO_dIyxeo-111" target="LiE9dQvSeZkpO_dIyxeo-128" edge="1">
          <mxGeometry width="50" height="50" relative="1" as="geometry">
            <mxPoint x="605" y="532.5" as="sourcePoint" />
            <mxPoint x="473.984588437155" y="494.28717162750354" as="targetPoint" />
          </mxGeometry>
        </mxCell>
        <mxCell id="LiE9dQvSeZkpO_dIyxeo-130" value="pegawai" style="rounded=0;whiteSpace=wrap;html=1;" parent="1" vertex="1">
          <mxGeometry x="210" y="880" width="120" height="60" as="geometry" />
        </mxCell>
        <mxCell id="LiE9dQvSeZkpO_dIyxeo-131" value="&lt;u&gt;id_pegawai&lt;/u&gt;" style="ellipse;whiteSpace=wrap;html=1;" parent="1" vertex="1">
          <mxGeometry x="120" y="805" width="80" height="40" as="geometry" />
        </mxCell>
        <mxCell id="LiE9dQvSeZkpO_dIyxeo-132" value="no_penerbangan" style="ellipse;whiteSpace=wrap;html=1;" parent="1" vertex="1">
          <mxGeometry x="115" y="970" width="110" height="40" as="geometry" />
        </mxCell>
        <mxCell id="LiE9dQvSeZkpO_dIyxeo-133" value="nama_depan" style="ellipse;whiteSpace=wrap;html=1;" parent="1" vertex="1">
          <mxGeometry x="290" y="980" width="110" height="40" as="geometry" />
        </mxCell>
        <mxCell id="LiE9dQvSeZkpO_dIyxeo-134" value="no_lisensi" style="ellipse;whiteSpace=wrap;html=1;" parent="1" vertex="1">
          <mxGeometry x="45" y="856.8" width="140" height="40" as="geometry" />
        </mxCell>
        <mxCell id="LiE9dQvSeZkpO_dIyxeo-135" value="alamat" style="ellipse;whiteSpace=wrap;html=1;" parent="1" vertex="1">
          <mxGeometry x="400" y="790" width="110" height="40" as="geometry" />
        </mxCell>
        <mxCell id="LiE9dQvSeZkpO_dIyxeo-136" value="jenis_pekerjaan" style="ellipse;whiteSpace=wrap;html=1;" parent="1" vertex="1">
          <mxGeometry x="30" y="910" width="140" height="40" as="geometry" />
        </mxCell>
        <mxCell id="LiE9dQvSeZkpO_dIyxeo-137" value="nama_belakang" style="ellipse;whiteSpace=wrap;html=1;" parent="1" vertex="1">
          <mxGeometry x="215" y="796.8" width="110" height="40" as="geometry" />
        </mxCell>
        <mxCell id="LiE9dQvSeZkpO_dIyxeo-139" value="" style="endArrow=none;html=1;rounded=0;exitX=0.5;exitY=0;exitDx=0;exitDy=0;" parent="1" source="LiE9dQvSeZkpO_dIyxeo-130" target="LiE9dQvSeZkpO_dIyxeo-131" edge="1">
          <mxGeometry width="50" height="50" relative="1" as="geometry">
            <mxPoint x="430" y="860" as="sourcePoint" />
            <mxPoint x="480" y="810" as="targetPoint" />
          </mxGeometry>
        </mxCell>
        <mxCell id="LiE9dQvSeZkpO_dIyxeo-140" value="" style="endArrow=none;html=1;rounded=0;" parent="1" source="LiE9dQvSeZkpO_dIyxeo-130" target="LiE9dQvSeZkpO_dIyxeo-132" edge="1">
          <mxGeometry width="50" height="50" relative="1" as="geometry">
            <mxPoint x="280" y="890" as="sourcePoint" />
            <mxPoint x="119.09188684801575" y="813.7264536536413" as="targetPoint" />
          </mxGeometry>
        </mxCell>
        <mxCell id="LiE9dQvSeZkpO_dIyxeo-141" value="" style="endArrow=none;html=1;rounded=0;" parent="1" source="LiE9dQvSeZkpO_dIyxeo-130" target="LiE9dQvSeZkpO_dIyxeo-133" edge="1">
          <mxGeometry width="50" height="50" relative="1" as="geometry">
            <mxPoint x="290" y="900" as="sourcePoint" />
            <mxPoint x="129.09188684801575" y="823.7264536536413" as="targetPoint" />
          </mxGeometry>
        </mxCell>
        <mxCell id="LiE9dQvSeZkpO_dIyxeo-142" value="" style="endArrow=none;html=1;rounded=0;entryX=0.411;entryY=0.971;entryDx=0;entryDy=0;entryPerimeter=0;" parent="1" source="LiE9dQvSeZkpO_dIyxeo-130" target="LiE9dQvSeZkpO_dIyxeo-137" edge="1">
          <mxGeometry width="50" height="50" relative="1" as="geometry">
            <mxPoint x="235" y="983.2" as="sourcePoint" />
            <mxPoint x="74.09188684801575" y="906.9264536536414" as="targetPoint" />
          </mxGeometry>
        </mxCell>
        <mxCell id="LiE9dQvSeZkpO_dIyxeo-143" value="" style="endArrow=none;html=1;rounded=0;" parent="1" source="LiE9dQvSeZkpO_dIyxeo-130" target="LiE9dQvSeZkpO_dIyxeo-135" edge="1">
          <mxGeometry width="50" height="50" relative="1" as="geometry">
            <mxPoint x="310" y="920" as="sourcePoint" />
            <mxPoint x="149.09188684801575" y="843.7264536536413" as="targetPoint" />
          </mxGeometry>
        </mxCell>
        <mxCell id="LiE9dQvSeZkpO_dIyxeo-145" value="" style="endArrow=none;html=1;rounded=0;" parent="1" source="LiE9dQvSeZkpO_dIyxeo-130" target="LiE9dQvSeZkpO_dIyxeo-134" edge="1">
          <mxGeometry width="50" height="50" relative="1" as="geometry">
            <mxPoint x="290" y="930" as="sourcePoint" />
            <mxPoint x="169.09188684801575" y="863.7264536536413" as="targetPoint" />
          </mxGeometry>
        </mxCell>
        <mxCell id="LiE9dQvSeZkpO_dIyxeo-146" value="" style="endArrow=none;html=1;rounded=0;" parent="1" source="LiE9dQvSeZkpO_dIyxeo-130" target="LiE9dQvSeZkpO_dIyxeo-136" edge="1">
          <mxGeometry width="50" height="50" relative="1" as="geometry">
            <mxPoint x="340" y="950" as="sourcePoint" />
            <mxPoint x="179.09188684801575" y="873.7264536536413" as="targetPoint" />
          </mxGeometry>
        </mxCell>
        <mxCell id="LiE9dQvSeZkpO_dIyxeo-147" value="no_telepon" style="ellipse;whiteSpace=wrap;html=1;" parent="1" vertex="1">
          <mxGeometry x="400" y="846.8" width="130" height="40" as="geometry" />
        </mxCell>
        <mxCell id="LiE9dQvSeZkpO_dIyxeo-148" value="lokasi_tujuan" style="ellipse;whiteSpace=wrap;html=1;" parent="1" vertex="1">
          <mxGeometry x="350" y="910" width="130" height="40" as="geometry" />
        </mxCell>
        <mxCell id="LiE9dQvSeZkpO_dIyxeo-149" value="" style="endArrow=none;html=1;rounded=0;" parent="1" source="LiE9dQvSeZkpO_dIyxeo-130" target="LiE9dQvSeZkpO_dIyxeo-147" edge="1">
          <mxGeometry width="50" height="50" relative="1" as="geometry">
            <mxPoint x="340" y="899.2700647011823" as="sourcePoint" />
            <mxPoint x="384.9940366641349" y="883.7246735531799" as="targetPoint" />
          </mxGeometry>
        </mxCell>
        <mxCell id="LiE9dQvSeZkpO_dIyxeo-150" value="" style="endArrow=none;html=1;rounded=0;entryX=0;entryY=0;entryDx=0;entryDy=0;" parent="1" source="LiE9dQvSeZkpO_dIyxeo-130" target="LiE9dQvSeZkpO_dIyxeo-148" edge="1">
          <mxGeometry width="50" height="50" relative="1" as="geometry">
            <mxPoint x="350" y="909.2700647011823" as="sourcePoint" />
            <mxPoint x="394.9940366641349" y="893.7246735531799" as="targetPoint" />
          </mxGeometry>
        </mxCell>
        <mxCell id="LiE9dQvSeZkpO_dIyxeo-155" value="pesawat" style="rounded=0;whiteSpace=wrap;html=1;" parent="1" vertex="1">
          <mxGeometry x="980" y="856.8" width="120" height="60" as="geometry" />
        </mxCell>
        <mxCell id="LiE9dQvSeZkpO_dIyxeo-156" value="&lt;u&gt;no_pesawat&lt;/u&gt;" style="ellipse;whiteSpace=wrap;html=1;" parent="1" vertex="1">
          <mxGeometry x="970" y="955" width="80" height="40" as="geometry" />
        </mxCell>
        <mxCell id="LiE9dQvSeZkpO_dIyxeo-157" value="no_maskapai" style="ellipse;whiteSpace=wrap;html=1;" parent="1" vertex="1">
          <mxGeometry x="1060" y="979.9999999999999" width="110" height="40" as="geometry" />
        </mxCell>
        <mxCell id="LiE9dQvSeZkpO_dIyxeo-158" value="no_model" style="ellipse;whiteSpace=wrap;html=1;" parent="1" vertex="1">
          <mxGeometry x="1114.59" y="935.0000000000001" width="110" height="40" as="geometry" />
        </mxCell>
        <mxCell id="LiE9dQvSeZkpO_dIyxeo-159" value="no_manufaktur" style="ellipse;whiteSpace=wrap;html=1;" parent="1" vertex="1">
          <mxGeometry x="1120" y="880" width="110" height="40" as="geometry" />
        </mxCell>
        <mxCell id="LiE9dQvSeZkpO_dIyxeo-160" value="" style="endArrow=none;html=1;rounded=0;" parent="1" source="LiE9dQvSeZkpO_dIyxeo-155" target="LiE9dQvSeZkpO_dIyxeo-156" edge="1">
          <mxGeometry width="50" height="50" relative="1" as="geometry">
            <mxPoint x="1135" y="1119.689932870966" as="sourcePoint" />
            <mxPoint x="1500" y="964.8000000000001" as="targetPoint" />
          </mxGeometry>
        </mxCell>
        <mxCell id="LiE9dQvSeZkpO_dIyxeo-161" value="" style="endArrow=none;html=1;rounded=0;" parent="1" source="LiE9dQvSeZkpO_dIyxeo-155" target="LiE9dQvSeZkpO_dIyxeo-157" edge="1">
          <mxGeometry width="50" height="50" relative="1" as="geometry">
            <mxPoint x="1186.994347840946" y="1121.6" as="sourcePoint" />
            <mxPoint x="1139.0918868480157" y="968.5264536536412" as="targetPoint" />
          </mxGeometry>
        </mxCell>
        <mxCell id="LiE9dQvSeZkpO_dIyxeo-162" value="" style="endArrow=none;html=1;rounded=0;" parent="1" source="LiE9dQvSeZkpO_dIyxeo-155" target="LiE9dQvSeZkpO_dIyxeo-158" edge="1">
          <mxGeometry width="50" height="50" relative="1" as="geometry">
            <mxPoint x="1300" y="971.6" as="sourcePoint" />
            <mxPoint x="1139.0918868480157" y="895.3264536536411" as="targetPoint" />
          </mxGeometry>
        </mxCell>
        <mxCell id="LiE9dQvSeZkpO_dIyxeo-163" value="" style="endArrow=none;html=1;rounded=0;" parent="1" source="LiE9dQvSeZkpO_dIyxeo-155" target="LiE9dQvSeZkpO_dIyxeo-159" edge="1">
          <mxGeometry width="50" height="50" relative="1" as="geometry">
            <mxPoint x="1310" y="981.6" as="sourcePoint" />
            <mxPoint x="1149.0918868480157" y="905.3264536536411" as="targetPoint" />
          </mxGeometry>
        </mxCell>
        <mxCell id="LiE9dQvSeZkpO_dIyxeo-164" value="maskapai" style="rounded=0;whiteSpace=wrap;html=1;" parent="1" vertex="1">
          <mxGeometry x="645" y="945" width="120" height="60" as="geometry" />
        </mxCell>
        <mxCell id="LiE9dQvSeZkpO_dIyxeo-165" value="&lt;u&gt;no_maskapai&lt;/u&gt;" style="ellipse;whiteSpace=wrap;html=1;" parent="1" vertex="1">
          <mxGeometry x="535" y="971.8" width="80" height="40" as="geometry" />
        </mxCell>
        <mxCell id="LiE9dQvSeZkpO_dIyxeo-166" value="nama_maskapai" style="ellipse;whiteSpace=wrap;html=1;" parent="1" vertex="1">
          <mxGeometry x="735" y="885" width="110" height="40" as="geometry" />
        </mxCell>
        <mxCell id="LiE9dQvSeZkpO_dIyxeo-167" value="asal_negara_maskapai" style="ellipse;whiteSpace=wrap;html=1;" parent="1" vertex="1">
          <mxGeometry x="555" y="885" width="130" height="40" as="geometry" />
        </mxCell>
        <mxCell id="LiE9dQvSeZkpO_dIyxeo-169" value="" style="endArrow=none;html=1;rounded=0;" parent="1" source="LiE9dQvSeZkpO_dIyxeo-164" target="LiE9dQvSeZkpO_dIyxeo-165" edge="1">
          <mxGeometry width="50" height="50" relative="1" as="geometry">
            <mxPoint x="1430" y="545" as="sourcePoint" />
            <mxPoint x="1480" y="495" as="targetPoint" />
          </mxGeometry>
        </mxCell>
        <mxCell id="LiE9dQvSeZkpO_dIyxeo-170" value="" style="endArrow=none;html=1;rounded=0;" parent="1" source="LiE9dQvSeZkpO_dIyxeo-164" target="LiE9dQvSeZkpO_dIyxeo-166" edge="1">
          <mxGeometry width="50" height="50" relative="1" as="geometry">
            <mxPoint x="1280" y="575" as="sourcePoint" />
            <mxPoint x="1119.0918868480157" y="498.7264536536412" as="targetPoint" />
          </mxGeometry>
        </mxCell>
        <mxCell id="LiE9dQvSeZkpO_dIyxeo-171" value="" style="endArrow=none;html=1;rounded=0;" parent="1" source="LiE9dQvSeZkpO_dIyxeo-164" target="LiE9dQvSeZkpO_dIyxeo-167" edge="1">
          <mxGeometry width="50" height="50" relative="1" as="geometry">
            <mxPoint x="1290" y="585" as="sourcePoint" />
            <mxPoint x="1129.0918868480157" y="508.7264536536412" as="targetPoint" />
          </mxGeometry>
        </mxCell>
        <mxCell id="LiE9dQvSeZkpO_dIyxeo-173" value="bandara" style="rounded=0;whiteSpace=wrap;html=1;" parent="1" vertex="1">
          <mxGeometry x="95" y="560" width="120" height="60" as="geometry" />
        </mxCell>
        <mxCell id="LiE9dQvSeZkpO_dIyxeo-174" value="&lt;u&gt;id_bandara&lt;/u&gt;" style="ellipse;whiteSpace=wrap;html=1;" parent="1" vertex="1">
          <mxGeometry x="260" y="580" width="80" height="40" as="geometry" />
        </mxCell>
        <mxCell id="LiE9dQvSeZkpO_dIyxeo-175" value="nama_bandara" style="ellipse;whiteSpace=wrap;html=1;" parent="1" vertex="1">
          <mxGeometry x="45" y="640" width="110" height="40" as="geometry" />
        </mxCell>
        <mxCell id="LiE9dQvSeZkpO_dIyxeo-176" value="negara_bagian" style="ellipse;whiteSpace=wrap;html=1;" parent="1" vertex="1">
          <mxGeometry x="170" y="640" width="130" height="40" as="geometry" />
        </mxCell>
        <mxCell id="LiE9dQvSeZkpO_dIyxeo-177" value="" style="endArrow=none;html=1;rounded=0;" parent="1" source="LiE9dQvSeZkpO_dIyxeo-173" target="LiE9dQvSeZkpO_dIyxeo-174" edge="1">
          <mxGeometry width="50" height="50" relative="1" as="geometry">
            <mxPoint x="380" y="535" as="sourcePoint" />
            <mxPoint x="430" y="485" as="targetPoint" />
          </mxGeometry>
        </mxCell>
        <mxCell id="LiE9dQvSeZkpO_dIyxeo-178" value="" style="endArrow=none;html=1;rounded=0;" parent="1" source="LiE9dQvSeZkpO_dIyxeo-173" target="LiE9dQvSeZkpO_dIyxeo-175" edge="1">
          <mxGeometry width="50" height="50" relative="1" as="geometry">
            <mxPoint x="230" y="565" as="sourcePoint" />
            <mxPoint x="69.09188684801575" y="488.7264536536412" as="targetPoint" />
          </mxGeometry>
        </mxCell>
        <mxCell id="LiE9dQvSeZkpO_dIyxeo-179" value="" style="endArrow=none;html=1;rounded=0;" parent="1" source="LiE9dQvSeZkpO_dIyxeo-173" target="LiE9dQvSeZkpO_dIyxeo-176" edge="1">
          <mxGeometry width="50" height="50" relative="1" as="geometry">
            <mxPoint x="240" y="575" as="sourcePoint" />
            <mxPoint x="79.09188684801575" y="498.7264536536412" as="targetPoint" />
          </mxGeometry>
        </mxCell>
        <mxCell id="LiE9dQvSeZkpO_dIyxeo-180" value="kota" style="ellipse;whiteSpace=wrap;html=1;" parent="1" vertex="1">
          <mxGeometry x="80" y="495" width="70" height="40" as="geometry" />
        </mxCell>
        <mxCell id="LiE9dQvSeZkpO_dIyxeo-181" value="negara" style="ellipse;whiteSpace=wrap;html=1;" parent="1" vertex="1">
          <mxGeometry x="155" y="495" width="70" height="40" as="geometry" />
        </mxCell>
        <mxCell id="LiE9dQvSeZkpO_dIyxeo-182" value="" style="endArrow=none;html=1;rounded=0;" parent="1" source="LiE9dQvSeZkpO_dIyxeo-173" target="LiE9dQvSeZkpO_dIyxeo-180" edge="1">
          <mxGeometry width="50" height="50" relative="1" as="geometry">
            <mxPoint x="240" y="565" as="sourcePoint" />
            <mxPoint x="304.2147982833153" y="508.37680199852855" as="targetPoint" />
          </mxGeometry>
        </mxCell>
        <mxCell id="LiE9dQvSeZkpO_dIyxeo-183" value="" style="endArrow=none;html=1;rounded=0;" parent="1" source="LiE9dQvSeZkpO_dIyxeo-173" target="LiE9dQvSeZkpO_dIyxeo-181" edge="1">
          <mxGeometry width="50" height="50" relative="1" as="geometry">
            <mxPoint x="231.49319339240583" y="565" as="sourcePoint" />
            <mxPoint x="234.23095494575682" y="509.99517141032265" as="targetPoint" />
          </mxGeometry>
        </mxCell>
        <mxCell id="LiE9dQvSeZkpO_dIyxeo-184" value="Zona" style="rounded=0;whiteSpace=wrap;html=1;" parent="1" vertex="1">
          <mxGeometry x="914.59" y="655" width="120" height="60" as="geometry" />
        </mxCell>
        <mxCell id="LiE9dQvSeZkpO_dIyxeo-185" value="&lt;u&gt;no_zona&lt;/u&gt;" style="ellipse;whiteSpace=wrap;html=1;" parent="1" vertex="1">
          <mxGeometry x="830" y="750" width="110" height="40" as="geometry" />
        </mxCell>
        <mxCell id="LiE9dQvSeZkpO_dIyxeo-186" value="kelas" style="ellipse;whiteSpace=wrap;html=1;" parent="1" vertex="1">
          <mxGeometry x="960" y="740" width="110" height="40" as="geometry" />
        </mxCell>
        <mxCell id="LiE9dQvSeZkpO_dIyxeo-187" value="" style="endArrow=none;html=1;rounded=0;" parent="1" source="LiE9dQvSeZkpO_dIyxeo-184" target="LiE9dQvSeZkpO_dIyxeo-185" edge="1">
          <mxGeometry width="50" height="50" relative="1" as="geometry">
            <mxPoint x="1280" y="885" as="sourcePoint" />
            <mxPoint x="1119.0918868480157" y="808.7264536536413" as="targetPoint" />
          </mxGeometry>
        </mxCell>
        <mxCell id="LiE9dQvSeZkpO_dIyxeo-188" value="" style="endArrow=none;html=1;rounded=0;" parent="1" source="LiE9dQvSeZkpO_dIyxeo-184" target="LiE9dQvSeZkpO_dIyxeo-186" edge="1">
          <mxGeometry width="50" height="50" relative="1" as="geometry">
            <mxPoint x="1290" y="895" as="sourcePoint" />
            <mxPoint x="1129.0918868480157" y="818.7264536536413" as="targetPoint" />
          </mxGeometry>
        </mxCell>
        <mxCell id="ZWcLzRlT44x6w-4YUG4y-1" value="menambahkan" style="rhombus;whiteSpace=wrap;html=1;" parent="1" vertex="1">
          <mxGeometry x="485" y="157" width="95" height="83" as="geometry" />
        </mxCell>
        <mxCell id="ZWcLzRlT44x6w-4YUG4y-2" value="" style="endArrow=none;html=1;rounded=0;" parent="1" source="ZWcLzRlT44x6w-4YUG4y-1" target="LiE9dQvSeZkpO_dIyxeo-22" edge="1">
          <mxGeometry relative="1" as="geometry">
            <mxPoint x="605.7142857142858" y="51.285714285714334" as="sourcePoint" />
            <mxPoint x="1105" y="192" as="targetPoint" />
          </mxGeometry>
        </mxCell>
        <mxCell id="ZWcLzRlT44x6w-4YUG4y-3" value="1" style="resizable=0;html=1;align=right;verticalAlign=bottom;" parent="ZWcLzRlT44x6w-4YUG4y-2" connectable="0" vertex="1">
          <mxGeometry x="1" relative="1" as="geometry">
            <mxPoint x="20" as="offset" />
          </mxGeometry>
        </mxCell>
        <mxCell id="ZWcLzRlT44x6w-4YUG4y-4" value="" style="endArrow=none;html=1;rounded=0;exitX=0;exitY=1;exitDx=0;exitDy=0;" parent="1" source="ZWcLzRlT44x6w-4YUG4y-1" target="LiE9dQvSeZkpO_dIyxeo-39" edge="1">
          <mxGeometry relative="1" as="geometry">
            <mxPoint x="462.8688524590166" y="128.00114754098365" as="sourcePoint" />
            <mxPoint x="1170" y="260.87" as="targetPoint" />
          </mxGeometry>
        </mxCell>
        <mxCell id="ZWcLzRlT44x6w-4YUG4y-5" value="N" style="resizable=0;html=1;align=right;verticalAlign=bottom;" parent="ZWcLzRlT44x6w-4YUG4y-4" connectable="0" vertex="1">
          <mxGeometry x="1" relative="1" as="geometry">
            <mxPoint x="-10" as="offset" />
          </mxGeometry>
        </mxCell>
        <mxCell id="ZWcLzRlT44x6w-4YUG4y-6" value="Membeli" style="rhombus;whiteSpace=wrap;html=1;" parent="1" vertex="1">
          <mxGeometry x="1495" y="420" width="80" height="80" as="geometry" />
        </mxCell>
        <mxCell id="ZWcLzRlT44x6w-4YUG4y-7" value="memiliki" style="rhombus;whiteSpace=wrap;html=1;" parent="1" vertex="1">
          <mxGeometry x="860" y="935" width="80" height="80" as="geometry" />
        </mxCell>
        <mxCell id="ZWcLzRlT44x6w-4YUG4y-8" value="" style="endArrow=none;html=1;rounded=0;" parent="1" source="ZWcLzRlT44x6w-4YUG4y-7" target="LiE9dQvSeZkpO_dIyxeo-164" edge="1">
          <mxGeometry relative="1" as="geometry">
            <mxPoint x="1530" y="510" as="sourcePoint" />
            <mxPoint x="1700" y="500" as="targetPoint" />
          </mxGeometry>
        </mxCell>
        <mxCell id="ZWcLzRlT44x6w-4YUG4y-9" value="1" style="resizable=0;html=1;align=right;verticalAlign=bottom;" parent="ZWcLzRlT44x6w-4YUG4y-8" connectable="0" vertex="1">
          <mxGeometry x="1" relative="1" as="geometry">
            <mxPoint x="-6" as="offset" />
          </mxGeometry>
        </mxCell>
        <mxCell id="ZWcLzRlT44x6w-4YUG4y-10" value="" style="endArrow=none;html=1;rounded=0;entryX=0;entryY=0.5;entryDx=0;entryDy=0;" parent="1" source="ZWcLzRlT44x6w-4YUG4y-7" target="LiE9dQvSeZkpO_dIyxeo-155" edge="1">
          <mxGeometry relative="1" as="geometry">
            <mxPoint x="950" y="1028.3999999999999" as="sourcePoint" />
            <mxPoint x="1135" y="1093.9529411764706" as="targetPoint" />
          </mxGeometry>
        </mxCell>
        <mxCell id="ZWcLzRlT44x6w-4YUG4y-11" value="N" style="resizable=0;html=1;align=right;verticalAlign=bottom;" parent="ZWcLzRlT44x6w-4YUG4y-10" connectable="0" vertex="1">
          <mxGeometry x="1" relative="1" as="geometry">
            <mxPoint x="3" y="-3" as="offset" />
          </mxGeometry>
        </mxCell>
        <mxCell id="VNyKWHrAPkUmcb7GlUrD-1" value="" style="endArrow=none;html=1;rounded=0;" parent="1" source="LiE9dQvSeZkpO_dIyxeo-2" target="ZWcLzRlT44x6w-4YUG4y-6" edge="1">
          <mxGeometry width="50" height="50" relative="1" as="geometry">
            <mxPoint x="1805" y="-20" as="sourcePoint" />
            <mxPoint x="1855" y="-70" as="targetPoint" />
          </mxGeometry>
        </mxCell>
        <mxCell id="VNyKWHrAPkUmcb7GlUrD-2" value="" style="endArrow=none;html=1;rounded=0;" parent="1" source="ZWcLzRlT44x6w-4YUG4y-6" target="LiE9dQvSeZkpO_dIyxeo-90" edge="1">
          <mxGeometry width="50" height="50" relative="1" as="geometry">
            <mxPoint x="2110.0031578947364" y="40" as="sourcePoint" />
            <mxPoint x="2110" y="240" as="targetPoint" />
          </mxGeometry>
        </mxCell>
        <mxCell id="VNyKWHrAPkUmcb7GlUrD-3" value="Memverifikasi" style="rhombus;whiteSpace=wrap;html=1;" parent="1" vertex="1">
          <mxGeometry x="1215" y="309" width="95" height="80" as="geometry" />
        </mxCell>
        <mxCell id="VNyKWHrAPkUmcb7GlUrD-4" value="" style="endArrow=none;html=1;rounded=0;" parent="1" source="VNyKWHrAPkUmcb7GlUrD-3" target="LiE9dQvSeZkpO_dIyxeo-48" edge="1">
          <mxGeometry width="50" height="50" relative="1" as="geometry">
            <mxPoint x="1305.0031578947364" y="190" as="sourcePoint" />
            <mxPoint x="1265" y="455" as="targetPoint" />
          </mxGeometry>
        </mxCell>
        <mxCell id="VNyKWHrAPkUmcb7GlUrD-5" value="" style="endArrow=none;html=1;rounded=0;" parent="1" source="LiE9dQvSeZkpO_dIyxeo-2" target="VNyKWHrAPkUmcb7GlUrD-3" edge="1">
          <mxGeometry width="50" height="50" relative="1" as="geometry">
            <mxPoint x="1670" y="-95" as="sourcePoint" />
            <mxPoint x="1600" y="115" as="targetPoint" />
          </mxGeometry>
        </mxCell>
        <mxCell id="2jmj1D3v9FncDI5Srwcd-1" value="Memiliki" style="rhombus;whiteSpace=wrap;html=1;" parent="1" vertex="1">
          <mxGeometry x="915" y="250" width="80" height="80" as="geometry" />
        </mxCell>
        <mxCell id="2jmj1D3v9FncDI5Srwcd-2" value="" style="endArrow=none;html=1;rounded=0;" parent="1" source="2jmj1D3v9FncDI5Srwcd-1" target="LiE9dQvSeZkpO_dIyxeo-22" edge="1">
          <mxGeometry width="50" height="50" relative="1" as="geometry">
            <mxPoint x="909.1025641025644" y="173.8974358974358" as="sourcePoint" />
            <mxPoint x="473.75" y="88" as="targetPoint" />
          </mxGeometry>
        </mxCell>
        <mxCell id="2jmj1D3v9FncDI5Srwcd-3" value="" style="endArrow=none;html=1;rounded=0;entryX=1;entryY=1;entryDx=0;entryDy=0;" parent="1" source="LiE9dQvSeZkpO_dIyxeo-2" target="2jmj1D3v9FncDI5Srwcd-1" edge="1">
          <mxGeometry width="50" height="50" relative="1" as="geometry">
            <mxPoint x="1220" y="180" as="sourcePoint" />
            <mxPoint x="979.9998360655738" y="195.40983606557347" as="targetPoint" />
            <Array as="points" />
          </mxGeometry>
        </mxCell>
        <mxCell id="2jmj1D3v9FncDI5Srwcd-4" value="bertanggung jawab" style="rhombus;whiteSpace=wrap;html=1;" parent="1" vertex="1">
          <mxGeometry x="370" y="645" width="95" height="95" as="geometry" />
        </mxCell>
        <mxCell id="2jmj1D3v9FncDI5Srwcd-5" value="" style="endArrow=none;html=1;rounded=0;" parent="1" source="2jmj1D3v9FncDI5Srwcd-4" target="LiE9dQvSeZkpO_dIyxeo-130" edge="1">
          <mxGeometry width="50" height="50" relative="1" as="geometry">
            <mxPoint x="434.8019801980199" y="805.0019801980195" as="sourcePoint" />
            <mxPoint x="20" y="1128.4" as="targetPoint" />
          </mxGeometry>
        </mxCell>
        <mxCell id="2jmj1D3v9FncDI5Srwcd-6" value="" style="endArrow=none;html=1;rounded=0;" parent="1" source="LiE9dQvSeZkpO_dIyxeo-111" target="2jmj1D3v9FncDI5Srwcd-4" edge="1">
          <mxGeometry width="50" height="50" relative="1" as="geometry">
            <mxPoint x="675.003125" y="599.9999999999998" as="sourcePoint" />
            <mxPoint x="929.3" y="734.3299999999999" as="targetPoint" />
            <Array as="points" />
          </mxGeometry>
        </mxCell>
        <mxCell id="2jmj1D3v9FncDI5Srwcd-7" value="" style="rhombus;whiteSpace=wrap;html=1;" parent="1" vertex="1">
          <mxGeometry x="660" y="695" width="80" height="80" as="geometry" />
        </mxCell>
        <mxCell id="2jmj1D3v9FncDI5Srwcd-8" value="" style="endArrow=none;html=1;rounded=0;" parent="1" source="2jmj1D3v9FncDI5Srwcd-7" target="LiE9dQvSeZkpO_dIyxeo-164" edge="1">
          <mxGeometry width="50" height="50" relative="1" as="geometry">
            <mxPoint x="866.8131578947364" y="710" as="sourcePoint" />
            <mxPoint x="1070" y="745.1621936466686" as="targetPoint" />
          </mxGeometry>
        </mxCell>
        <mxCell id="2jmj1D3v9FncDI5Srwcd-9" value="" style="endArrow=none;html=1;rounded=0;entryX=1;entryY=0;entryDx=0;entryDy=0;exitX=0.903;exitY=0.992;exitDx=0;exitDy=0;exitPerimeter=0;" parent="1" source="LiE9dQvSeZkpO_dIyxeo-111" target="2jmj1D3v9FncDI5Srwcd-7" edge="1">
          <mxGeometry width="50" height="50" relative="1" as="geometry">
            <mxPoint x="644.9999999999995" y="565.584410675134" as="sourcePoint" />
            <mxPoint x="981.8099999999995" y="625" as="targetPoint" />
            <Array as="points" />
          </mxGeometry>
        </mxCell>
        <mxCell id="2jmj1D3v9FncDI5Srwcd-10" value="Tujuan" style="rhombus;whiteSpace=wrap;html=1;" parent="1" vertex="1">
          <mxGeometry x="305" y="430" width="80" height="80" as="geometry" />
        </mxCell>
        <mxCell id="2jmj1D3v9FncDI5Srwcd-11" value="" style="endArrow=none;html=1;rounded=0;" parent="1" source="2jmj1D3v9FncDI5Srwcd-10" target="LiE9dQvSeZkpO_dIyxeo-173" edge="1">
          <mxGeometry width="50" height="50" relative="1" as="geometry">
            <mxPoint x="319.4117647058829" y="539.4117647058824" as="sourcePoint" />
            <mxPoint x="1630" y="443.128090657935" as="targetPoint" />
          </mxGeometry>
        </mxCell>
        <mxCell id="2jmj1D3v9FncDI5Srwcd-12" value="" style="endArrow=none;html=1;rounded=0;" parent="1" source="LiE9dQvSeZkpO_dIyxeo-111" target="2jmj1D3v9FncDI5Srwcd-10" edge="1">
          <mxGeometry width="50" height="50" relative="1" as="geometry">
            <mxPoint x="984.9999999999995" y="340.29441067513403" as="sourcePoint" />
            <mxPoint x="1401.81" y="404.03999999999996" as="targetPoint" />
            <Array as="points" />
          </mxGeometry>
        </mxCell>
        <mxCell id="2jmj1D3v9FncDI5Srwcd-13" value="" style="rhombus;whiteSpace=wrap;html=1;" parent="1" vertex="1">
          <mxGeometry x="890" y="475" width="80" height="80" as="geometry" />
        </mxCell>
        <mxCell id="2jmj1D3v9FncDI5Srwcd-14" value="" style="endArrow=none;html=1;rounded=0;" parent="1" source="2jmj1D3v9FncDI5Srwcd-13" target="LiE9dQvSeZkpO_dIyxeo-48" edge="1">
          <mxGeometry width="50" height="50" relative="1" as="geometry">
            <mxPoint x="906.8131578947364" y="630" as="sourcePoint" />
            <mxPoint x="1215" y="724.3228772966879" as="targetPoint" />
          </mxGeometry>
        </mxCell>
        <mxCell id="2jmj1D3v9FncDI5Srwcd-15" value="" style="endArrow=none;html=1;rounded=0;entryX=0;entryY=1;entryDx=0;entryDy=0;" parent="1" source="LiE9dQvSeZkpO_dIyxeo-111" target="2jmj1D3v9FncDI5Srwcd-13" edge="1">
          <mxGeometry width="50" height="50" relative="1" as="geometry">
            <mxPoint x="375" y="617.666614027984" as="sourcePoint" />
            <mxPoint x="980" y="520" as="targetPoint" />
            <Array as="points" />
          </mxGeometry>
        </mxCell>
        <mxCell id="2jmj1D3v9FncDI5Srwcd-16" value="mendapatkan" style="rhombus;whiteSpace=wrap;html=1;" parent="1" vertex="1">
          <mxGeometry x="1120" y="680" width="80" height="80" as="geometry" />
        </mxCell>
        <mxCell id="2jmj1D3v9FncDI5Srwcd-17" value="" style="endArrow=none;html=1;rounded=0;" parent="1" source="2jmj1D3v9FncDI5Srwcd-16" target="LiE9dQvSeZkpO_dIyxeo-184" edge="1">
          <mxGeometry width="50" height="50" relative="1" as="geometry">
            <mxPoint x="1191.8131578947364" y="535" as="sourcePoint" />
            <mxPoint x="1450" y="680.1298576512454" as="targetPoint" />
          </mxGeometry>
        </mxCell>
        <mxCell id="2jmj1D3v9FncDI5Srwcd-18" value="" style="endArrow=none;html=1;rounded=0;" parent="1" source="LiE9dQvSeZkpO_dIyxeo-48" target="2jmj1D3v9FncDI5Srwcd-16" edge="1">
          <mxGeometry width="50" height="50" relative="1" as="geometry">
            <mxPoint x="1270" y="747.666614027984" as="sourcePoint" />
            <mxPoint x="1956.81" y="624.3299999999999" as="targetPoint" />
            <Array as="points" />
          </mxGeometry>
        </mxCell>
        <mxCell id="2jmj1D3v9FncDI5Srwcd-42" style="edgeStyle=orthogonalEdgeStyle;rounded=0;orthogonalLoop=1;jettySize=auto;html=1;exitX=0.5;exitY=1;exitDx=0;exitDy=0;" parent="1" source="LiE9dQvSeZkpO_dIyxeo-29" target="LiE9dQvSeZkpO_dIyxeo-29" edge="1">
          <mxGeometry relative="1" as="geometry" />
        </mxCell>
      </root>
    </mxGraphModel>
  </diagram>
  <diagram id="HzoQdfchN6whmzVetAmZ" name="Page-3">
    <mxGraphModel dx="2215" dy="490" grid="1" gridSize="10" guides="1" tooltips="1" connect="1" arrows="1" fold="1" page="1" pageScale="1" pageWidth="1169" pageHeight="827" math="0" shadow="0">
      <root>
        <mxCell id="0" />
        <mxCell id="1" parent="0" />
        <mxCell id="muPb0ULLePb-Bv5Z3iu3-1" value="boarding_pass" style="rounded=0;whiteSpace=wrap;html=1;" vertex="1" parent="1">
          <mxGeometry x="420" y="240" width="120" height="60" as="geometry" />
        </mxCell>
        <mxCell id="Cq2chqoBVonN359cNT5u-1" value="no_booking" style="ellipse;whiteSpace=wrap;html=1;" vertex="1" parent="1">
          <mxGeometry x="530" y="120" width="120" height="80" as="geometry" />
        </mxCell>
        <mxCell id="Cq2chqoBVonN359cNT5u-2" value="no_penerbangan" style="ellipse;whiteSpace=wrap;html=1;" vertex="1" parent="1">
          <mxGeometry x="340" y="110" width="120" height="80" as="geometry" />
        </mxCell>
        <mxCell id="Cq2chqoBVonN359cNT5u-3" value="nama_depan" style="ellipse;whiteSpace=wrap;html=1;" vertex="1" parent="1">
          <mxGeometry x="560" y="320" width="120" height="80" as="geometry" />
        </mxCell>
        <mxCell id="Cq2chqoBVonN359cNT5u-4" value="no_urut_check_in" style="ellipse;whiteSpace=wrap;html=1;" vertex="1" parent="1">
          <mxGeometry x="320" y="330" width="120" height="80" as="geometry" />
        </mxCell>
        <mxCell id="bTXXqevieUQqATVehhtJ-2" value="" style="endArrow=none;html=1;rounded=0;exitX=0.85;exitY=0;exitDx=0;exitDy=0;exitPerimeter=0;entryX=0;entryY=1;entryDx=0;entryDy=0;" edge="1" parent="1" source="muPb0ULLePb-Bv5Z3iu3-1" target="Cq2chqoBVonN359cNT5u-1">
          <mxGeometry width="50" height="50" relative="1" as="geometry">
            <mxPoint x="510" y="280" as="sourcePoint" />
            <mxPoint x="560" y="230" as="targetPoint" />
          </mxGeometry>
        </mxCell>
        <mxCell id="bTXXqevieUQqATVehhtJ-3" value="" style="endArrow=none;html=1;rounded=0;entryX=0.558;entryY=1.025;entryDx=0;entryDy=0;entryPerimeter=0;" edge="1" parent="1" source="muPb0ULLePb-Bv5Z3iu3-1" target="Cq2chqoBVonN359cNT5u-2">
          <mxGeometry width="50" height="50" relative="1" as="geometry">
            <mxPoint x="510" y="280" as="sourcePoint" />
            <mxPoint x="560" y="230" as="targetPoint" />
          </mxGeometry>
        </mxCell>
        <mxCell id="bTXXqevieUQqATVehhtJ-4" value="" style="endArrow=none;html=1;rounded=0;entryX=0.667;entryY=0.038;entryDx=0;entryDy=0;entryPerimeter=0;exitX=0.25;exitY=1;exitDx=0;exitDy=0;" edge="1" parent="1" source="muPb0ULLePb-Bv5Z3iu3-1" target="Cq2chqoBVonN359cNT5u-4">
          <mxGeometry width="50" height="50" relative="1" as="geometry">
            <mxPoint x="510" y="280" as="sourcePoint" />
            <mxPoint x="560" y="230" as="targetPoint" />
          </mxGeometry>
        </mxCell>
        <mxCell id="bTXXqevieUQqATVehhtJ-5" value="" style="endArrow=none;html=1;rounded=0;entryX=0;entryY=0;entryDx=0;entryDy=0;exitX=1;exitY=1;exitDx=0;exitDy=0;" edge="1" parent="1" source="muPb0ULLePb-Bv5Z3iu3-1" target="Cq2chqoBVonN359cNT5u-3">
          <mxGeometry width="50" height="50" relative="1" as="geometry">
            <mxPoint x="510" y="280" as="sourcePoint" />
            <mxPoint x="560" y="230" as="targetPoint" />
          </mxGeometry>
        </mxCell>
        <mxCell id="bTXXqevieUQqATVehhtJ-7" value="Penumpang" style="rounded=0;whiteSpace=wrap;html=1;" vertex="1" parent="1">
          <mxGeometry x="90" y="240" width="120" height="60" as="geometry" />
        </mxCell>
        <mxCell id="bTXXqevieUQqATVehhtJ-8" value="id_penumpang" style="ellipse;whiteSpace=wrap;html=1;" vertex="1" parent="1">
          <mxGeometry x="110" y="100" width="120" height="80" as="geometry" />
        </mxCell>
        <mxCell id="bTXXqevieUQqATVehhtJ-9" value="no_booking" style="ellipse;whiteSpace=wrap;html=1;" vertex="1" parent="1">
          <mxGeometry x="-90" y="100" width="120" height="80" as="geometry" />
        </mxCell>
        <mxCell id="bTXXqevieUQqATVehhtJ-10" value="nama_belakang" style="ellipse;whiteSpace=wrap;html=1;" vertex="1" parent="1">
          <mxGeometry x="-110" y="320" width="120" height="80" as="geometry" />
        </mxCell>
      </root>
    </mxGraphModel>
  </diagram>
  <diagram id="Y-KJRoHs3xegmIgPwvlZ" name="Page-4">
    <mxGraphModel dx="3472" dy="1572" grid="1" gridSize="10" guides="1" tooltips="1" connect="1" arrows="1" fold="1" page="1" pageScale="1" pageWidth="1700" pageHeight="1100" math="0" shadow="0">
      <root>
        <mxCell id="0" />
        <mxCell id="1" parent="0" />
        <mxCell id="C3_z8CRFhnpYh4-SrTuu-27" value="pelayanan" style="rounded=0;whiteSpace=wrap;html=1;" parent="1" vertex="1">
          <mxGeometry x="1366.5" y="107" width="120" height="60" as="geometry" />
        </mxCell>
        <mxCell id="C3_z8CRFhnpYh4-SrTuu-28" value="&lt;u&gt;kode_pelayanan&lt;/u&gt;" style="ellipse;whiteSpace=wrap;html=1;" parent="1" vertex="1">
          <mxGeometry x="1289" y="50" width="110" height="40" as="geometry" />
        </mxCell>
        <mxCell id="C3_z8CRFhnpYh4-SrTuu-29" value="nama_pelayanan" style="ellipse;whiteSpace=wrap;html=1;" parent="1" vertex="1">
          <mxGeometry x="1459" y="50" width="110" height="40" as="geometry" />
        </mxCell>
        <mxCell id="C3_z8CRFhnpYh4-SrTuu-30" value="" style="endArrow=none;html=1;rounded=0;exitX=0.25;exitY=0;exitDx=0;exitDy=0;" parent="1" source="C3_z8CRFhnpYh4-SrTuu-27" target="C3_z8CRFhnpYh4-SrTuu-28" edge="1">
          <mxGeometry width="50" height="50" relative="1" as="geometry">
            <mxPoint x="1304" y="157" as="sourcePoint" />
            <mxPoint x="1143.0918868480157" y="80.72645365364122" as="targetPoint" />
          </mxGeometry>
        </mxCell>
        <mxCell id="C3_z8CRFhnpYh4-SrTuu-31" value="" style="endArrow=none;html=1;rounded=0;exitX=0.819;exitY=0.01;exitDx=0;exitDy=0;exitPerimeter=0;" parent="1" source="C3_z8CRFhnpYh4-SrTuu-27" target="C3_z8CRFhnpYh4-SrTuu-29" edge="1">
          <mxGeometry width="50" height="50" relative="1" as="geometry">
            <mxPoint x="1314" y="167" as="sourcePoint" />
            <mxPoint x="1153.0918868480157" y="90.72645365364122" as="targetPoint" />
          </mxGeometry>
        </mxCell>
        <mxCell id="C3_z8CRFhnpYh4-SrTuu-32" value="boarding_pass" style="rounded=0;whiteSpace=wrap;html=1;" parent="1" vertex="1">
          <mxGeometry x="924.0699999999999" y="340" width="120" height="60" as="geometry" />
        </mxCell>
        <mxCell id="C3_z8CRFhnpYh4-SrTuu-33" value="&lt;u&gt;no_booking&lt;/u&gt;" style="ellipse;whiteSpace=wrap;html=1;" parent="1" vertex="1">
          <mxGeometry x="1014.0699999999999" y="440" width="110" height="40" as="geometry" />
        </mxCell>
        <mxCell id="C3_z8CRFhnpYh4-SrTuu-34" value="no_penerbangan" style="ellipse;whiteSpace=wrap;html=1;" parent="1" vertex="1">
          <mxGeometry x="868.9999999999999" y="267" width="110" height="40" as="geometry" />
        </mxCell>
        <mxCell id="C3_z8CRFhnpYh4-SrTuu-38" value="nu_urut_check_in" style="ellipse;whiteSpace=wrap;html=1;" parent="1" vertex="1">
          <mxGeometry x="854.0699999999999" y="440" width="140" height="40" as="geometry" />
        </mxCell>
        <mxCell id="C3_z8CRFhnpYh4-SrTuu-41" value="" style="endArrow=none;html=1;rounded=0;" parent="1" target="C3_z8CRFhnpYh4-SrTuu-33" edge="1">
          <mxGeometry width="50" height="50" relative="1" as="geometry">
            <mxPoint x="1011.5699999999999" y="400" as="sourcePoint" />
            <mxPoint x="1194.07" y="270" as="targetPoint" />
          </mxGeometry>
        </mxCell>
        <mxCell id="C3_z8CRFhnpYh4-SrTuu-42" value="" style="endArrow=none;html=1;rounded=0;exitX=0.5;exitY=0;exitDx=0;exitDy=0;" parent="1" source="C3_z8CRFhnpYh4-SrTuu-32" target="C3_z8CRFhnpYh4-SrTuu-34" edge="1">
          <mxGeometry width="50" height="50" relative="1" as="geometry">
            <mxPoint x="994.0699999999999" y="350" as="sourcePoint" />
            <mxPoint x="833.1618868480157" y="273.7264536536412" as="targetPoint" />
          </mxGeometry>
        </mxCell>
        <mxCell id="C3_z8CRFhnpYh4-SrTuu-48" value="" style="endArrow=none;html=1;rounded=0;" parent="1" source="C3_z8CRFhnpYh4-SrTuu-32" target="C3_z8CRFhnpYh4-SrTuu-38" edge="1">
          <mxGeometry width="50" height="50" relative="1" as="geometry">
            <mxPoint x="1054.07" y="410" as="sourcePoint" />
            <mxPoint x="893.1618868480157" y="333.7264536536412" as="targetPoint" />
          </mxGeometry>
        </mxCell>
        <mxCell id="C3_z8CRFhnpYh4-SrTuu-53" value="penumpang" style="rounded=0;whiteSpace=wrap;html=1;" parent="1" vertex="1">
          <mxGeometry x="1366.5" y="340" width="120" height="60" as="geometry" />
        </mxCell>
        <mxCell id="C3_z8CRFhnpYh4-SrTuu-54" value="id_penumpang" style="ellipse;whiteSpace=wrap;html=1;" parent="1" vertex="1">
          <mxGeometry x="1228.59" y="307" width="100" height="40" as="geometry" />
        </mxCell>
        <mxCell id="C3_z8CRFhnpYh4-SrTuu-55" value="no_booking" style="ellipse;whiteSpace=wrap;html=1;" parent="1" vertex="1">
          <mxGeometry x="1294" y="247" width="110" height="40" as="geometry" />
        </mxCell>
        <mxCell id="C3_z8CRFhnpYh4-SrTuu-56" value="nama_belakang" style="ellipse;whiteSpace=wrap;html=1;" parent="1" vertex="1">
          <mxGeometry x="1420" y="480" width="110" height="40" as="geometry" />
        </mxCell>
        <mxCell id="C3_z8CRFhnpYh4-SrTuu-57" value="no_kursi" style="ellipse;whiteSpace=wrap;html=1;" parent="1" vertex="1">
          <mxGeometry x="1204" y="380" width="140" height="40" as="geometry" />
        </mxCell>
        <mxCell id="C3_z8CRFhnpYh4-SrTuu-58" value="kewarganegaraan" style="ellipse;whiteSpace=wrap;html=1;" parent="1" vertex="1">
          <mxGeometry x="1259" y="460" width="110" height="40" as="geometry" />
        </mxCell>
        <mxCell id="C3_z8CRFhnpYh4-SrTuu-59" value="nama_depan" style="ellipse;whiteSpace=wrap;html=1;" parent="1" vertex="1">
          <mxGeometry x="1484" y="217" width="110" height="40" as="geometry" />
        </mxCell>
        <mxCell id="C3_z8CRFhnpYh4-SrTuu-60" value="" style="endArrow=none;html=1;rounded=0;exitX=0.5;exitY=0;exitDx=0;exitDy=0;" parent="1" source="C3_z8CRFhnpYh4-SrTuu-53" target="C3_z8CRFhnpYh4-SrTuu-54" edge="1">
          <mxGeometry width="50" height="50" relative="1" as="geometry">
            <mxPoint x="1609" y="355" as="sourcePoint" />
            <mxPoint x="1659" y="305" as="targetPoint" />
          </mxGeometry>
        </mxCell>
        <mxCell id="C3_z8CRFhnpYh4-SrTuu-61" value="" style="endArrow=none;html=1;rounded=0;exitX=0.5;exitY=0;exitDx=0;exitDy=0;" parent="1" source="C3_z8CRFhnpYh4-SrTuu-53" target="C3_z8CRFhnpYh4-SrTuu-55" edge="1">
          <mxGeometry width="50" height="50" relative="1" as="geometry">
            <mxPoint x="1459" y="385" as="sourcePoint" />
            <mxPoint x="1298.0918868480157" y="308.72645365364133" as="targetPoint" />
          </mxGeometry>
        </mxCell>
        <mxCell id="C3_z8CRFhnpYh4-SrTuu-62" value="" style="endArrow=none;html=1;rounded=0;" parent="1" source="C3_z8CRFhnpYh4-SrTuu-53" target="C3_z8CRFhnpYh4-SrTuu-56" edge="1">
          <mxGeometry width="50" height="50" relative="1" as="geometry">
            <mxPoint x="1469" y="395" as="sourcePoint" />
            <mxPoint x="1308.0918868480157" y="318.72645365364133" as="targetPoint" />
          </mxGeometry>
        </mxCell>
        <mxCell id="C3_z8CRFhnpYh4-SrTuu-63" value="" style="endArrow=none;html=1;rounded=0;entryX=0;entryY=1;entryDx=0;entryDy=0;" parent="1" source="C3_z8CRFhnpYh4-SrTuu-53" target="C3_z8CRFhnpYh4-SrTuu-59" edge="1">
          <mxGeometry width="50" height="50" relative="1" as="geometry">
            <mxPoint x="1479" y="405" as="sourcePoint" />
            <mxPoint x="1318.0918868480157" y="328.72645365364133" as="targetPoint" />
          </mxGeometry>
        </mxCell>
        <mxCell id="C3_z8CRFhnpYh4-SrTuu-64" value="" style="endArrow=none;html=1;rounded=0;" parent="1" source="C3_z8CRFhnpYh4-SrTuu-53" target="C3_z8CRFhnpYh4-SrTuu-58" edge="1">
          <mxGeometry width="50" height="50" relative="1" as="geometry">
            <mxPoint x="1489" y="415" as="sourcePoint" />
            <mxPoint x="1328.0918868480157" y="338.72645365364133" as="targetPoint" />
          </mxGeometry>
        </mxCell>
        <mxCell id="C3_z8CRFhnpYh4-SrTuu-65" value="" style="endArrow=none;html=1;rounded=0;" parent="1" source="C3_z8CRFhnpYh4-SrTuu-53" target="C3_z8CRFhnpYh4-SrTuu-57" edge="1">
          <mxGeometry width="50" height="50" relative="1" as="geometry">
            <mxPoint x="1469" y="425" as="sourcePoint" />
            <mxPoint x="1348.0918868480157" y="358.72645365364133" as="targetPoint" />
          </mxGeometry>
        </mxCell>
        <mxCell id="C3_z8CRFhnpYh4-SrTuu-66" value="no_paspor" style="ellipse;whiteSpace=wrap;html=1;" parent="1" vertex="1">
          <mxGeometry x="1478" y="420" width="130" height="40" as="geometry" />
        </mxCell>
        <mxCell id="C3_z8CRFhnpYh4-SrTuu-68" value="" style="endArrow=none;html=1;rounded=0;entryX=0;entryY=0;entryDx=0;entryDy=0;" parent="1" source="C3_z8CRFhnpYh4-SrTuu-53" target="C3_z8CRFhnpYh4-SrTuu-66" edge="1">
          <mxGeometry width="50" height="50" relative="1" as="geometry">
            <mxPoint x="1529" y="404.27006470118226" as="sourcePoint" />
            <mxPoint x="1573.994036664135" y="388.72467355317985" as="targetPoint" />
          </mxGeometry>
        </mxCell>
        <mxCell id="C3_z8CRFhnpYh4-SrTuu-69" value="penerbangan" style="rounded=0;whiteSpace=wrap;html=1;" parent="1" vertex="1">
          <mxGeometry x="594" y="340.25" width="120" height="60" as="geometry" />
        </mxCell>
        <mxCell id="C3_z8CRFhnpYh4-SrTuu-70" value="&lt;u&gt;no_penerbangan&lt;/u&gt;" style="ellipse;whiteSpace=wrap;html=1;" parent="1" vertex="1">
          <mxGeometry x="459" y="257" width="100" height="40" as="geometry" />
        </mxCell>
        <mxCell id="C3_z8CRFhnpYh4-SrTuu-72" value="kode_bandara_keberangkatan" style="ellipse;whiteSpace=wrap;html=1;" parent="1" vertex="1">
          <mxGeometry x="771.5" y="197" width="200" height="50" as="geometry" />
        </mxCell>
        <mxCell id="C3_z8CRFhnpYh4-SrTuu-73" value="gerbang_keberangkatan&lt;span style=&quot;color: rgba(0, 0, 0, 0); font-family: monospace; font-size: 0px; text-align: start;&quot;&gt;%3CmxGraphModel%3E%3Croot%3E%3CmxCell%20id%3D%220%22%2F%3E%3CmxCell%20id%3D%221%22%20parent%3D%220%22%2F%3E%3CmxCell%20id%3D%222%22%20value%3D%22Penumpang%22%20style%3D%22rounded%3D0%3BwhiteSpace%3Dwrap%3Bhtml%3D1%3B%22%20vertex%3D%221%22%20parent%3D%221%22%3E%3CmxGeometry%20x%3D%222510%22%20y%3D%22185%22%20width%3D%22120%22%20height%3D%2260%22%20as%3D%22geometry%22%2F%3E%3C%2FmxCell%3E%3CmxCell%20id%3D%223%22%20value%3D%22id_penumpang%22%20style%3D%22ellipse%3BwhiteSpace%3Dwrap%3Bhtml%3D1%3B%22%20vertex%3D%221%22%20parent%3D%221%22%3E%3CmxGeometry%20x%3D%222320%22%20y%3D%2275%22%20width%3D%22100%22%20height%3D%2240%22%20as%3D%22geometry%22%2F%3E%3C%2FmxCell%3E%3CmxCell%20id%3D%224%22%20value%3D%22nama_depan%22%20style%3D%22ellipse%3BwhiteSpace%3Dwrap%3Bhtml%3D1%3B%22%20vertex%3D%221%22%20parent%3D%221%22%3E%3CmxGeometry%20x%3D%222430%22%20y%3D%2275%22%20width%3D%22110%22%20height%3D%2240%22%20as%3D%22geometry%22%2F%3E%3C%2FmxCell%3E%3CmxCell%20id%3D%225%22%20value%3D%22nama_belakang%22%20style%3D%22ellipse%3BwhiteSpace%3Dwrap%3Bhtml%3D1%3B%22%20vertex%3D%221%22%20parent%3D%221%22%3E%3CmxGeometry%20x%3D%222550%22%20y%3D%2275%22%20width%3D%22110%22%20height%3D%2240%22%20as%3D%22geometry%22%2F%3E%3C%2FmxCell%3E%3CmxCell%20id%3D%226%22%20value%3D%22no_telp%22%20style%3D%22ellipse%3BwhiteSpace%3Dwrap%3Bhtml%3D1%3B%22%20vertex%3D%221%22%20parent%3D%221%22%3E%3CmxGeometry%20x%3D%222260%22%20y%3D%22125%22%20width%3D%22140%22%20height%3D%2240%22%20as%3D%22geometry%22%2F%3E%3C%2FmxCell%3E%3CmxCell%20id%3D%227%22%20value%3D%22tanggal_lahir%22%20style%3D%22ellipse%3BwhiteSpace%3Dwrap%3Bhtml%3D1%3B%22%20vertex%3D%221%22%20parent%3D%221%22%3E%3CmxGeometry%20x%3D%222800%22%20y%3D%2255%22%20width%3D%22110%22%20height%3D%2240%22%20as%3D%22geometry%22%2F%3E%3C%2FmxCell%3E%3CmxCell%20id%3D%228%22%20value%3D%22jenis_kelamin%22%20style%3D%22ellipse%3BwhiteSpace%3Dwrap%3Bhtml%3D1%3B%22%20vertex%3D%221%22%20parent%3D%221%22%3E%3CmxGeometry%20x%3D%222670%22%20y%3D%2275%22%20width%3D%22110%22%20height%3D%2240%22%20as%3D%22geometry%22%2F%3E%3C%2FmxCell%3E%3CmxCell%20id%3D%229%22%20value%3D%22%22%20style%3D%22endArrow%3Dnone%3Bhtml%3D1%3Brounded%3D0%3BexitX%3D0.5%3BexitY%3D0%3BexitDx%3D0%3BexitDy%3D0%3B%22%20edge%3D%221%22%20source%3D%222%22%20target%3D%223%22%20parent%3D%221%22%3E%3CmxGeometry%20width%3D%2250%22%20height%3D%2250%22%20relative%3D%221%22%20as%3D%22geometry%22%3E%3CmxPoint%20x%3D%222730%22%20y%3D%22165%22%20as%3D%22sourcePoint%22%2F%3E%3CmxPoint%20x%3D%222780%22%20y%3D%22115%22%20as%3D%22targetPoint%22%2F%3E%3C%2FmxGeometry%3E%3C%2FmxCell%3E%3CmxCell%20id%3D%2210%22%20value%3D%22%22%20style%3D%22endArrow%3Dnone%3Bhtml%3D1%3Brounded%3D0%3BexitX%3D0.5%3BexitY%3D0%3BexitDx%3D0%3BexitDy%3D0%3B%22%20edge%3D%221%22%20source%3D%222%22%20target%3D%224%22%20parent%3D%221%22%3E%3CmxGeometry%20width%3D%2250%22%20height%3D%2250%22%20relative%3D%221%22%20as%3D%22geometry%22%3E%3CmxPoint%20x%3D%222580%22%20y%3D%22195%22%20as%3D%22sourcePoint%22%2F%3E%3CmxPoint%20x%3D%222419.0918868480157%22%20y%3D%22118.72645365364122%22%20as%3D%22targetPoint%22%2F%3E%3C%2FmxGeometry%3E%3C%2FmxCell%3E%3CmxCell%20id%3D%2211%22%20value%3D%22%22%20style%3D%22endArrow%3Dnone%3Bhtml%3D1%3Brounded%3D0%3B%22%20edge%3D%221%22%20source%3D%222%22%20target%3D%225%22%20parent%3D%221%22%3E%3CmxGeometry%20width%3D%2250%22%20height%3D%2250%22%20relative%3D%221%22%20as%3D%22geometry%22%3E%3CmxPoint%20x%3D%222590%22%20y%3D%22205%22%20as%3D%22sourcePoint%22%2F%3E%3CmxPoint%20x%3D%222429.0918868480157%22%20y%3D%22128.72645365364122%22%20as%3D%22targetPoint%22%2F%3E%3C%2FmxGeometry%3E%3C%2FmxCell%3E%3CmxCell%20id%3D%2212%22%20value%3D%22%22%20style%3D%22endArrow%3Dnone%3Bhtml%3D1%3Brounded%3D0%3BentryX%3D0%3BentryY%3D1%3BentryDx%3D0%3BentryDy%3D0%3B%22%20edge%3D%221%22%20source%3D%222%22%20target%3D%228%22%20parent%3D%221%22%3E%3CmxGeometry%20width%3D%2250%22%20height%3D%2250%22%20relative%3D%221%22%20as%3D%22geometry%22%3E%3CmxPoint%20x%3D%222600%22%20y%3D%22215%22%20as%3D%22sourcePoint%22%2F%3E%3CmxPoint%20x%3D%222439.0918868480157%22%20y%3D%22138.72645365364122%22%20as%3D%22targetPoint%22%2F%3E%3C%2FmxGeometry%3E%3C%2FmxCell%3E%3CmxCell%20id%3D%2213%22%20value%3D%22%22%20style%3D%22endArrow%3Dnone%3Bhtml%3D1%3Brounded%3D0%3B%22%20edge%3D%221%22%20source%3D%222%22%20target%3D%227%22%20parent%3D%221%22%3E%3CmxGeometry%20width%3D%2250%22%20height%3D%2250%22%20relative%3D%221%22%20as%3D%22geometry%22%3E%3CmxPoint%20x%3D%222610%22%20y%3D%22225%22%20as%3D%22sourcePoint%22%2F%3E%3CmxPoint%20x%3D%222449.0918868480157%22%20y%3D%22148.72645365364122%22%20as%3D%22targetPoint%22%2F%3E%3C%2FmxGeometry%3E%3C%2FmxCell%3E%3CmxCell%20id%3D%2214%22%20value%3D%22%22%20style%3D%22endArrow%3Dnone%3Bhtml%3D1%3Brounded%3D0%3B%22%20edge%3D%221%22%20source%3D%222%22%20target%3D%226%22%20parent%3D%221%22%3E%3CmxGeometry%20width%3D%2250%22%20height%3D%2250%22%20relative%3D%221%22%20as%3D%22geometry%22%3E%3CmxPoint%20x%3D%222590%22%20y%3D%22235%22%20as%3D%22sourcePoint%22%2F%3E%3CmxPoint%20x%3D%222469.0918868480157%22%20y%3D%22168.72645365364122%22%20as%3D%22targetPoint%22%2F%3E%3C%2FmxGeometry%3E%3C%2FmxCell%3E%3CmxCell%20id%3D%2215%22%20value%3D%22kewarganegaraan%22%20style%3D%22ellipse%3BwhiteSpace%3Dwrap%3Bhtml%3D1%3B%22%20vertex%3D%221%22%20parent%3D%221%22%3E%3CmxGeometry%20x%3D%222730%22%20y%3D%22135%22%20width%3D%22130%22%20height%3D%2240%22%20as%3D%22geometry%22%2F%3E%3C%2FmxCell%3E%3CmxCell%20id%3D%2216%22%20value%3D%22email%22%20style%3D%22ellipse%3BwhiteSpace%3Dwrap%3Bhtml%3D1%3B%22%20vertex%3D%221%22%20parent%3D%221%22%3E%3CmxGeometry%20x%3D%222690%22%20y%3D%22245%22%20width%3D%22130%22%20height%3D%2240%22%20as%3D%22geometry%22%2F%3E%3C%2FmxCell%3E%3CmxCell%20id%3D%2217%22%20value%3D%22%22%20style%3D%22endArrow%3Dnone%3Bhtml%3D1%3Brounded%3D0%3B%22%20edge%3D%221%22%20source%3D%222%22%20target%3D%2215%22%20parent%3D%221%22%3E%3CmxGeometry%20width%3D%2250%22%20height%3D%2250%22%20relative%3D%221%22%20as%3D%22geometry%22%3E%3CmxPoint%20x%3D%222640%22%20y%3D%22204.27006470118226%22%20as%3D%22sourcePoint%22%2F%3E%3CmxPoint%20x%3D%222684.994036664135%22%20y%3D%22188.72467355317974%22%20as%3D%22targetPoint%22%2F%3E%3C%2FmxGeometry%3E%3C%2FmxCell%3E%3CmxCell%20id%3D%2218%22%20value%3D%22%22%20style%3D%22endArrow%3Dnone%3Bhtml%3D1%3Brounded%3D0%3BentryX%3D0%3BentryY%3D0%3BentryDx%3D0%3BentryDy%3D0%3B%22%20edge%3D%221%22%20source%3D%222%22%20target%3D%2216%22%20parent%3D%221%22%3E%3CmxGeometry%20width%3D%2250%22%20height%3D%2250%22%20relative%3D%221%22%20as%3D%22geometry%22%3E%3CmxPoint%20x%3D%222650%22%20y%3D%22214.27006470118226%22%20as%3D%22sourcePoint%22%2F%3E%3CmxPoint%20x%3D%222694.994036664135%22%20y%3D%22198.72467355317974%22%20as%3D%22targetPoint%22%2F%3E%3C%2FmxGeometry%3E%3C%2FmxCell%3E%3C%2Froot%3E%3C%2FmxGraphModel%3E&lt;/span&gt;" style="ellipse;whiteSpace=wrap;html=1;" parent="1" vertex="1">
          <mxGeometry x="706.5" y="145" width="140" height="40" as="geometry" />
        </mxCell>
        <mxCell id="C3_z8CRFhnpYh4-SrTuu-76" value="" style="endArrow=none;html=1;rounded=0;exitX=0.154;exitY=0.011;exitDx=0;exitDy=0;exitPerimeter=0;" parent="1" source="C3_z8CRFhnpYh4-SrTuu-69" target="C3_z8CRFhnpYh4-SrTuu-70" edge="1">
          <mxGeometry width="50" height="50" relative="1" as="geometry">
            <mxPoint x="739" y="342.5" as="sourcePoint" />
            <mxPoint x="789" y="292.5" as="targetPoint" />
          </mxGeometry>
        </mxCell>
        <mxCell id="C3_z8CRFhnpYh4-SrTuu-78" value="" style="endArrow=none;html=1;rounded=0;" parent="1" target="C3_z8CRFhnpYh4-SrTuu-72" edge="1">
          <mxGeometry width="50" height="50" relative="1" as="geometry">
            <mxPoint x="704" y="340" as="sourcePoint" />
            <mxPoint x="438.09188684801575" y="306.22645365364133" as="targetPoint" />
          </mxGeometry>
        </mxCell>
        <mxCell id="C3_z8CRFhnpYh4-SrTuu-81" value="" style="endArrow=none;html=1;rounded=0;" parent="1" target="C3_z8CRFhnpYh4-SrTuu-73" edge="1">
          <mxGeometry width="50" height="50" relative="1" as="geometry">
            <mxPoint x="684" y="340" as="sourcePoint" />
            <mxPoint x="478.09188684801575" y="346.22645365364133" as="targetPoint" />
          </mxGeometry>
        </mxCell>
        <mxCell id="C3_z8CRFhnpYh4-SrTuu-88" value="pegawai" style="rounded=0;whiteSpace=wrap;html=1;" parent="1" vertex="1">
          <mxGeometry x="209" y="540.25" width="120" height="60" as="geometry" />
        </mxCell>
        <mxCell id="C3_z8CRFhnpYh4-SrTuu-89" value="&lt;u&gt;id_pegawai&lt;/u&gt;" style="ellipse;whiteSpace=wrap;html=1;" parent="1" vertex="1">
          <mxGeometry x="119" y="465.25" width="80" height="40" as="geometry" />
        </mxCell>
        <mxCell id="C3_z8CRFhnpYh4-SrTuu-90" value="no_penerbangan" style="ellipse;whiteSpace=wrap;html=1;" parent="1" vertex="1">
          <mxGeometry x="114" y="630.25" width="110" height="40" as="geometry" />
        </mxCell>
        <mxCell id="C3_z8CRFhnpYh4-SrTuu-91" value="nama_depan" style="ellipse;whiteSpace=wrap;html=1;" parent="1" vertex="1">
          <mxGeometry x="160" y="680.25" width="110" height="40" as="geometry" />
        </mxCell>
        <mxCell id="C3_z8CRFhnpYh4-SrTuu-92" value="no_lisensi" style="ellipse;whiteSpace=wrap;html=1;" parent="1" vertex="1">
          <mxGeometry x="44" y="517.05" width="140" height="40" as="geometry" />
        </mxCell>
        <mxCell id="C3_z8CRFhnpYh4-SrTuu-93" value="alamat" style="ellipse;whiteSpace=wrap;html=1;" parent="1" vertex="1">
          <mxGeometry x="284" y="465.25" width="110" height="40" as="geometry" />
        </mxCell>
        <mxCell id="C3_z8CRFhnpYh4-SrTuu-94" value="jenis_pekerjaan" style="ellipse;whiteSpace=wrap;html=1;" parent="1" vertex="1">
          <mxGeometry x="29" y="570.25" width="140" height="40" as="geometry" />
        </mxCell>
        <mxCell id="C3_z8CRFhnpYh4-SrTuu-95" value="nama_belakang" style="ellipse;whiteSpace=wrap;html=1;" parent="1" vertex="1">
          <mxGeometry x="284" y="699.5" width="110" height="40" as="geometry" />
        </mxCell>
        <mxCell id="C3_z8CRFhnpYh4-SrTuu-96" value="" style="endArrow=none;html=1;rounded=0;exitX=0.298;exitY=0;exitDx=0;exitDy=0;exitPerimeter=0;" parent="1" source="C3_z8CRFhnpYh4-SrTuu-88" target="C3_z8CRFhnpYh4-SrTuu-89" edge="1">
          <mxGeometry width="50" height="50" relative="1" as="geometry">
            <mxPoint x="429" y="520.25" as="sourcePoint" />
            <mxPoint x="479" y="470.25" as="targetPoint" />
          </mxGeometry>
        </mxCell>
        <mxCell id="C3_z8CRFhnpYh4-SrTuu-97" value="" style="endArrow=none;html=1;rounded=0;" parent="1" source="C3_z8CRFhnpYh4-SrTuu-88" target="C3_z8CRFhnpYh4-SrTuu-90" edge="1">
          <mxGeometry width="50" height="50" relative="1" as="geometry">
            <mxPoint x="279" y="550.25" as="sourcePoint" />
            <mxPoint x="118.09188684801575" y="473.97645365364133" as="targetPoint" />
          </mxGeometry>
        </mxCell>
        <mxCell id="C3_z8CRFhnpYh4-SrTuu-98" value="" style="endArrow=none;html=1;rounded=0;exitX=0.368;exitY=0.991;exitDx=0;exitDy=0;exitPerimeter=0;" parent="1" source="C3_z8CRFhnpYh4-SrTuu-88" target="C3_z8CRFhnpYh4-SrTuu-91" edge="1">
          <mxGeometry width="50" height="50" relative="1" as="geometry">
            <mxPoint x="289" y="560.25" as="sourcePoint" />
            <mxPoint x="128.09188684801575" y="483.97645365364133" as="targetPoint" />
          </mxGeometry>
        </mxCell>
        <mxCell id="C3_z8CRFhnpYh4-SrTuu-99" value="" style="endArrow=none;html=1;rounded=0;entryX=0;entryY=0;entryDx=0;entryDy=0;exitX=0.653;exitY=1.019;exitDx=0;exitDy=0;exitPerimeter=0;" parent="1" source="C3_z8CRFhnpYh4-SrTuu-88" target="C3_z8CRFhnpYh4-SrTuu-95" edge="1">
          <mxGeometry width="50" height="50" relative="1" as="geometry">
            <mxPoint x="234" y="643.45" as="sourcePoint" />
            <mxPoint x="73.09188684801575" y="567.1764536536414" as="targetPoint" />
          </mxGeometry>
        </mxCell>
        <mxCell id="C3_z8CRFhnpYh4-SrTuu-100" value="" style="endArrow=none;html=1;rounded=0;exitX=0.75;exitY=0;exitDx=0;exitDy=0;" parent="1" source="C3_z8CRFhnpYh4-SrTuu-88" target="C3_z8CRFhnpYh4-SrTuu-93" edge="1">
          <mxGeometry width="50" height="50" relative="1" as="geometry">
            <mxPoint x="309" y="580.25" as="sourcePoint" />
            <mxPoint x="148.09188684801575" y="503.97645365364133" as="targetPoint" />
          </mxGeometry>
        </mxCell>
        <mxCell id="C3_z8CRFhnpYh4-SrTuu-101" value="" style="endArrow=none;html=1;rounded=0;" parent="1" source="C3_z8CRFhnpYh4-SrTuu-88" target="C3_z8CRFhnpYh4-SrTuu-92" edge="1">
          <mxGeometry width="50" height="50" relative="1" as="geometry">
            <mxPoint x="289" y="590.25" as="sourcePoint" />
            <mxPoint x="168.09188684801575" y="523.9764536536413" as="targetPoint" />
          </mxGeometry>
        </mxCell>
        <mxCell id="C3_z8CRFhnpYh4-SrTuu-102" value="" style="endArrow=none;html=1;rounded=0;" parent="1" source="C3_z8CRFhnpYh4-SrTuu-88" target="C3_z8CRFhnpYh4-SrTuu-94" edge="1">
          <mxGeometry width="50" height="50" relative="1" as="geometry">
            <mxPoint x="339" y="610.25" as="sourcePoint" />
            <mxPoint x="178.09188684801575" y="533.9764536536413" as="targetPoint" />
          </mxGeometry>
        </mxCell>
        <mxCell id="C3_z8CRFhnpYh4-SrTuu-103" value="no_telepon" style="ellipse;whiteSpace=wrap;html=1;" parent="1" vertex="1">
          <mxGeometry x="179" y="420.25" width="130" height="40" as="geometry" />
        </mxCell>
        <mxCell id="C3_z8CRFhnpYh4-SrTuu-104" value="lokasi_tujuan" style="ellipse;whiteSpace=wrap;html=1;" parent="1" vertex="1">
          <mxGeometry x="331.5" y="629.5" width="130" height="40" as="geometry" />
        </mxCell>
        <mxCell id="C3_z8CRFhnpYh4-SrTuu-105" value="" style="endArrow=none;html=1;rounded=0;exitX=0.437;exitY=-0.039;exitDx=0;exitDy=0;exitPerimeter=0;" parent="1" source="C3_z8CRFhnpYh4-SrTuu-88" target="C3_z8CRFhnpYh4-SrTuu-103" edge="1">
          <mxGeometry width="50" height="50" relative="1" as="geometry">
            <mxPoint x="339" y="559.5200647011823" as="sourcePoint" />
            <mxPoint x="383.9940366641349" y="543.9746735531799" as="targetPoint" />
          </mxGeometry>
        </mxCell>
        <mxCell id="C3_z8CRFhnpYh4-SrTuu-106" value="" style="endArrow=none;html=1;rounded=0;entryX=0;entryY=0;entryDx=0;entryDy=0;" parent="1" source="C3_z8CRFhnpYh4-SrTuu-88" target="C3_z8CRFhnpYh4-SrTuu-104" edge="1">
          <mxGeometry width="50" height="50" relative="1" as="geometry">
            <mxPoint x="349" y="569.5200647011823" as="sourcePoint" />
            <mxPoint x="393.9940366641349" y="553.9746735531799" as="targetPoint" />
          </mxGeometry>
        </mxCell>
        <mxCell id="C3_z8CRFhnpYh4-SrTuu-107" value="pesawat" style="rounded=0;whiteSpace=wrap;html=1;" parent="1" vertex="1">
          <mxGeometry x="901.0899999999999" y="599.5" width="120" height="60" as="geometry" />
        </mxCell>
        <mxCell id="C3_z8CRFhnpYh4-SrTuu-108" value="&lt;u&gt;no_pesawat&lt;/u&gt;" style="ellipse;whiteSpace=wrap;html=1;" parent="1" vertex="1">
          <mxGeometry x="851.5" y="524.5" width="80" height="40" as="geometry" />
        </mxCell>
        <mxCell id="C3_z8CRFhnpYh4-SrTuu-109" value="no_maskapai" style="ellipse;whiteSpace=wrap;html=1;" parent="1" vertex="1">
          <mxGeometry x="821.4999999999999" y="699.5" width="110" height="40" as="geometry" />
        </mxCell>
        <mxCell id="C3_z8CRFhnpYh4-SrTuu-110" value="no_model" style="ellipse;whiteSpace=wrap;html=1;" parent="1" vertex="1">
          <mxGeometry x="971.5" y="699.5" width="110" height="40" as="geometry" />
        </mxCell>
        <mxCell id="C3_z8CRFhnpYh4-SrTuu-111" value="no_manufaktur" style="ellipse;whiteSpace=wrap;html=1;" parent="1" vertex="1">
          <mxGeometry x="971.5" y="524.5" width="110" height="40" as="geometry" />
        </mxCell>
        <mxCell id="C3_z8CRFhnpYh4-SrTuu-112" value="" style="endArrow=none;html=1;rounded=0;exitX=0.25;exitY=0;exitDx=0;exitDy=0;" parent="1" source="C3_z8CRFhnpYh4-SrTuu-107" target="C3_z8CRFhnpYh4-SrTuu-108" edge="1">
          <mxGeometry width="50" height="50" relative="1" as="geometry">
            <mxPoint x="990.8925947399246" y="666.3" as="sourcePoint" />
            <mxPoint x="1461.0899999999997" y="714.3000000000002" as="targetPoint" />
          </mxGeometry>
        </mxCell>
        <mxCell id="C3_z8CRFhnpYh4-SrTuu-113" value="" style="endArrow=none;html=1;rounded=0;exitX=0.25;exitY=1;exitDx=0;exitDy=0;" parent="1" source="C3_z8CRFhnpYh4-SrTuu-107" target="C3_z8CRFhnpYh4-SrTuu-109" edge="1">
          <mxGeometry width="50" height="50" relative="1" as="geometry">
            <mxPoint x="1020.9590302786121" y="666.3" as="sourcePoint" />
            <mxPoint x="1100.1818868480157" y="718.026453653641" as="targetPoint" />
          </mxGeometry>
        </mxCell>
        <mxCell id="C3_z8CRFhnpYh4-SrTuu-114" value="" style="endArrow=none;html=1;rounded=0;exitX=0.663;exitY=1.01;exitDx=0;exitDy=0;exitPerimeter=0;" parent="1" source="C3_z8CRFhnpYh4-SrTuu-107" target="C3_z8CRFhnpYh4-SrTuu-110" edge="1">
          <mxGeometry width="50" height="50" relative="1" as="geometry">
            <mxPoint x="1058.1238751322524" y="666.3" as="sourcePoint" />
            <mxPoint x="1100.1818868480157" y="644.8264536536412" as="targetPoint" />
          </mxGeometry>
        </mxCell>
        <mxCell id="C3_z8CRFhnpYh4-SrTuu-115" value="" style="endArrow=none;html=1;rounded=0;exitX=0.623;exitY=-0.003;exitDx=0;exitDy=0;exitPerimeter=0;" parent="1" source="C3_z8CRFhnpYh4-SrTuu-107" target="C3_z8CRFhnpYh4-SrTuu-111" edge="1">
          <mxGeometry width="50" height="50" relative="1" as="geometry">
            <mxPoint x="1061.09" y="642.2244185216468" as="sourcePoint" />
            <mxPoint x="1110.1818868480157" y="654.8264536536412" as="targetPoint" />
          </mxGeometry>
        </mxCell>
        <mxCell id="C3_z8CRFhnpYh4-SrTuu-116" value="maskapai" style="rounded=0;whiteSpace=wrap;html=1;" parent="1" vertex="1">
          <mxGeometry x="614" y="597.7" width="120" height="60" as="geometry" />
        </mxCell>
        <mxCell id="C3_z8CRFhnpYh4-SrTuu-117" value="&lt;u&gt;no_maskapai&lt;/u&gt;" style="ellipse;whiteSpace=wrap;html=1;" parent="1" vertex="1">
          <mxGeometry x="509" y="680.25" width="80" height="40" as="geometry" />
        </mxCell>
        <mxCell id="C3_z8CRFhnpYh4-SrTuu-118" value="nama_maskapai" style="ellipse;whiteSpace=wrap;html=1;" parent="1" vertex="1">
          <mxGeometry x="706.5" y="532.55" width="102.5" height="37.7" as="geometry" />
        </mxCell>
        <mxCell id="C3_z8CRFhnpYh4-SrTuu-119" value="asal_negara_maskapai" style="ellipse;whiteSpace=wrap;html=1;" parent="1" vertex="1">
          <mxGeometry x="504" y="544.5" width="130" height="40" as="geometry" />
        </mxCell>
        <mxCell id="C3_z8CRFhnpYh4-SrTuu-120" value="" style="endArrow=none;html=1;rounded=0;entryX=1;entryY=0.5;entryDx=0;entryDy=0;exitX=0.25;exitY=1;exitDx=0;exitDy=0;" parent="1" source="C3_z8CRFhnpYh4-SrTuu-116" target="C3_z8CRFhnpYh4-SrTuu-117" edge="1">
          <mxGeometry width="50" height="50" relative="1" as="geometry">
            <mxPoint x="1379" y="194.5" as="sourcePoint" />
            <mxPoint x="562.8405951573975" y="636.5196190575512" as="targetPoint" />
          </mxGeometry>
        </mxCell>
        <mxCell id="C3_z8CRFhnpYh4-SrTuu-121" value="" style="endArrow=none;html=1;rounded=0;" parent="1" source="C3_z8CRFhnpYh4-SrTuu-116" target="C3_z8CRFhnpYh4-SrTuu-118" edge="1">
          <mxGeometry width="50" height="50" relative="1" as="geometry">
            <mxPoint x="1229" y="224.5" as="sourcePoint" />
            <mxPoint x="1068.0918868480157" y="148.22645365364122" as="targetPoint" />
          </mxGeometry>
        </mxCell>
        <mxCell id="C3_z8CRFhnpYh4-SrTuu-122" value="" style="endArrow=none;html=1;rounded=0;" parent="1" source="C3_z8CRFhnpYh4-SrTuu-116" target="C3_z8CRFhnpYh4-SrTuu-119" edge="1">
          <mxGeometry width="50" height="50" relative="1" as="geometry">
            <mxPoint x="1239" y="234.5" as="sourcePoint" />
            <mxPoint x="1078.0918868480157" y="158.22645365364122" as="targetPoint" />
          </mxGeometry>
        </mxCell>
        <mxCell id="C3_z8CRFhnpYh4-SrTuu-123" value="berangkat" style="rounded=0;whiteSpace=wrap;html=1;" parent="1" vertex="1">
          <mxGeometry x="184" y="337" width="120" height="60" as="geometry" />
        </mxCell>
        <mxCell id="C3_z8CRFhnpYh4-SrTuu-124" value="&lt;u&gt;kode_bandara_keberangkatan&lt;/u&gt;" style="ellipse;whiteSpace=wrap;html=1;" parent="1" vertex="1">
          <mxGeometry x="259" y="240" width="200" height="40" as="geometry" />
        </mxCell>
        <mxCell id="C3_z8CRFhnpYh4-SrTuu-127" value="" style="endArrow=none;html=1;rounded=0;" parent="1" source="C3_z8CRFhnpYh4-SrTuu-123" target="C3_z8CRFhnpYh4-SrTuu-124" edge="1">
          <mxGeometry width="50" height="50" relative="1" as="geometry">
            <mxPoint x="449" y="382" as="sourcePoint" />
            <mxPoint x="499" y="332" as="targetPoint" />
          </mxGeometry>
        </mxCell>
        <mxCell id="C3_z8CRFhnpYh4-SrTuu-131" value="tempat_keberangkatan" style="ellipse;whiteSpace=wrap;html=1;" parent="1" vertex="1">
          <mxGeometry x="91.5" y="240" width="155" height="40" as="geometry" />
        </mxCell>
        <mxCell id="C3_z8CRFhnpYh4-SrTuu-133" value="" style="endArrow=none;html=1;rounded=0;" parent="1" source="C3_z8CRFhnpYh4-SrTuu-123" target="C3_z8CRFhnpYh4-SrTuu-131" edge="1">
          <mxGeometry width="50" height="50" relative="1" as="geometry">
            <mxPoint x="300.49319339240583" y="412" as="sourcePoint" />
            <mxPoint x="303.2309549457568" y="356.99517141032265" as="targetPoint" />
          </mxGeometry>
        </mxCell>
        <mxCell id="C3_z8CRFhnpYh4-SrTuu-136" value="&lt;u&gt;no_kursi&lt;/u&gt;" style="ellipse;whiteSpace=wrap;html=1;" parent="1" vertex="1">
          <mxGeometry x="1579" y="650.25" width="110" height="40" as="geometry" />
        </mxCell>
        <mxCell id="C3_z8CRFhnpYh4-SrTuu-145" value="memiliki" style="rhombus;whiteSpace=wrap;html=1;" parent="1" vertex="1">
          <mxGeometry x="769" y="589.5" width="80" height="80" as="geometry" />
        </mxCell>
        <mxCell id="C3_z8CRFhnpYh4-SrTuu-146" value="" style="endArrow=none;html=1;rounded=0;exitX=0;exitY=0.5;exitDx=0;exitDy=0;" parent="1" source="C3_z8CRFhnpYh4-SrTuu-145" target="C3_z8CRFhnpYh4-SrTuu-116" edge="1">
          <mxGeometry relative="1" as="geometry">
            <mxPoint x="794" y="634.5" as="sourcePoint" />
            <mxPoint x="1649" y="149.5" as="targetPoint" />
          </mxGeometry>
        </mxCell>
        <mxCell id="C3_z8CRFhnpYh4-SrTuu-147" value="1" style="resizable=0;html=1;align=right;verticalAlign=bottom;" parent="C3_z8CRFhnpYh4-SrTuu-146" connectable="0" vertex="1">
          <mxGeometry x="1" relative="1" as="geometry">
            <mxPoint x="15" y="-10" as="offset" />
          </mxGeometry>
        </mxCell>
        <mxCell id="C3_z8CRFhnpYh4-SrTuu-148" value="" style="endArrow=none;html=1;rounded=0;entryX=0;entryY=0.5;entryDx=0;entryDy=0;exitX=1;exitY=0.5;exitDx=0;exitDy=0;" parent="1" source="C3_z8CRFhnpYh4-SrTuu-145" target="C3_z8CRFhnpYh4-SrTuu-107" edge="1">
          <mxGeometry relative="1" as="geometry">
            <mxPoint x="933.1020120120118" y="701.5120120120121" as="sourcePoint" />
            <mxPoint x="1001.0899999999999" y="636.3" as="targetPoint" />
          </mxGeometry>
        </mxCell>
        <mxCell id="C3_z8CRFhnpYh4-SrTuu-149" value="N" style="resizable=0;html=1;align=right;verticalAlign=bottom;" parent="C3_z8CRFhnpYh4-SrTuu-148" connectable="0" vertex="1">
          <mxGeometry x="1" relative="1" as="geometry">
            <mxPoint x="-10" y="-2" as="offset" />
          </mxGeometry>
        </mxCell>
        <mxCell id="C3_z8CRFhnpYh4-SrTuu-158" value="tanggung jawab" style="rhombus;whiteSpace=wrap;html=1;" parent="1" vertex="1">
          <mxGeometry x="379" y="524.5" width="80" height="87.5" as="geometry" />
        </mxCell>
        <mxCell id="C3_z8CRFhnpYh4-SrTuu-160" value="" style="endArrow=none;html=1;rounded=0;exitX=0.333;exitY=0.99;exitDx=0;exitDy=0;exitPerimeter=0;" parent="1" source="C3_z8CRFhnpYh4-SrTuu-69" target="C3_z8CRFhnpYh4-SrTuu-158" edge="1">
          <mxGeometry width="50" height="50" relative="1" as="geometry">
            <mxPoint x="599.003125" y="452.4999999999998" as="sourcePoint" />
            <mxPoint x="853.3" y="586.8299999999999" as="targetPoint" />
            <Array as="points" />
          </mxGeometry>
        </mxCell>
        <mxCell id="C3_z8CRFhnpYh4-SrTuu-161" value="tanggung jawab" style="rhombus;whiteSpace=wrap;html=1;" parent="1" vertex="1">
          <mxGeometry x="629" y="464.5" width="80" height="80" as="geometry" />
        </mxCell>
        <mxCell id="C3_z8CRFhnpYh4-SrTuu-162" value="" style="endArrow=none;html=1;rounded=0;exitX=0.5;exitY=1;exitDx=0;exitDy=0;" parent="1" source="C3_z8CRFhnpYh4-SrTuu-161" target="C3_z8CRFhnpYh4-SrTuu-116" edge="1">
          <mxGeometry width="50" height="50" relative="1" as="geometry">
            <mxPoint x="668.3131578947364" y="472.5" as="sourcePoint" />
            <mxPoint x="871.5" y="507.6621936466686" as="targetPoint" />
          </mxGeometry>
        </mxCell>
        <mxCell id="C3_z8CRFhnpYh4-SrTuu-163" value="" style="endArrow=none;html=1;rounded=0;entryX=0.5;entryY=0;entryDx=0;entryDy=0;startArrow=none;" parent="1" target="C3_z8CRFhnpYh4-SrTuu-161" edge="1">
          <mxGeometry width="50" height="50" relative="1" as="geometry">
            <mxPoint x="674" y="400" as="sourcePoint" />
            <mxPoint x="905.8099999999995" y="477.5" as="targetPoint" />
            <Array as="points" />
          </mxGeometry>
        </mxCell>
        <mxCell id="C3_z8CRFhnpYh4-SrTuu-164" value="keberangkatan" style="rhombus;whiteSpace=wrap;html=1;" parent="1" vertex="1">
          <mxGeometry x="344" y="324.5" width="105" height="90" as="geometry" />
        </mxCell>
        <mxCell id="C3_z8CRFhnpYh4-SrTuu-165" value="" style="endArrow=none;html=1;rounded=0;" parent="1" source="C3_z8CRFhnpYh4-SrTuu-164" target="C3_z8CRFhnpYh4-SrTuu-123" edge="1">
          <mxGeometry width="50" height="50" relative="1" as="geometry">
            <mxPoint x="175.9117647058829" y="391.91176470588243" as="sourcePoint" />
            <mxPoint x="1486.5" y="295.628090657935" as="targetPoint" />
          </mxGeometry>
        </mxCell>
        <mxCell id="C3_z8CRFhnpYh4-SrTuu-166" value="" style="endArrow=none;html=1;rounded=0;entryX=1;entryY=0.5;entryDx=0;entryDy=0;" parent="1" source="C3_z8CRFhnpYh4-SrTuu-69" target="C3_z8CRFhnpYh4-SrTuu-164" edge="1">
          <mxGeometry width="50" height="50" relative="1" as="geometry">
            <mxPoint x="908.9999999999995" y="192.79441067513403" as="sourcePoint" />
            <mxPoint x="424" y="372" as="targetPoint" />
            <Array as="points" />
          </mxGeometry>
        </mxCell>
        <mxCell id="C3_z8CRFhnpYh4-SrTuu-167" value="melakukan" style="rhombus;whiteSpace=wrap;html=1;" parent="1" vertex="1">
          <mxGeometry x="771.5" y="330.25" width="80" height="80" as="geometry" />
        </mxCell>
        <mxCell id="C3_z8CRFhnpYh4-SrTuu-168" value="" style="endArrow=none;html=1;rounded=0;entryX=0;entryY=0.5;entryDx=0;entryDy=0;" parent="1" target="C3_z8CRFhnpYh4-SrTuu-32" edge="1">
          <mxGeometry width="50" height="50" relative="1" as="geometry">
            <mxPoint x="828.9960628465803" y="370.1760628465804" as="sourcePoint" />
            <mxPoint x="1106.57" y="372.5" as="targetPoint" />
          </mxGeometry>
        </mxCell>
        <mxCell id="C3_z8CRFhnpYh4-SrTuu-169" value="" style="endArrow=none;html=1;rounded=0;entryX=0;entryY=0.5;entryDx=0;entryDy=0;" parent="1" source="C3_z8CRFhnpYh4-SrTuu-69" target="C3_z8CRFhnpYh4-SrTuu-167" edge="1">
          <mxGeometry width="50" height="50" relative="1" as="geometry">
            <mxPoint x="299" y="470.166614027984" as="sourcePoint" />
            <mxPoint x="774" y="372" as="targetPoint" />
            <Array as="points" />
          </mxGeometry>
        </mxCell>
        <mxCell id="C3_z8CRFhnpYh4-SrTuu-174" value="nama_depan" style="ellipse;whiteSpace=wrap;html=1;" parent="1" vertex="1">
          <mxGeometry x="999.0699999999999" y="271" width="140" height="40" as="geometry" />
        </mxCell>
        <mxCell id="C3_z8CRFhnpYh4-SrTuu-175" value="" style="endArrow=none;html=1;rounded=0;exitX=1;exitY=0;exitDx=0;exitDy=0;" parent="1" source="C3_z8CRFhnpYh4-SrTuu-32" target="C3_z8CRFhnpYh4-SrTuu-174" edge="1">
          <mxGeometry width="50" height="50" relative="1" as="geometry">
            <mxPoint x="1180.6700000000003" y="361.1" as="sourcePoint" />
            <mxPoint x="1113.6558458061093" y="290.00038033862313" as="targetPoint" />
          </mxGeometry>
        </mxCell>
        <mxCell id="C3_z8CRFhnpYh4-SrTuu-176" value="kode_layanan" style="ellipse;whiteSpace=wrap;html=1;" parent="1" vertex="1">
          <mxGeometry x="1514" y="280" width="110" height="40" as="geometry" />
        </mxCell>
        <mxCell id="C3_z8CRFhnpYh4-SrTuu-177" value="" style="endArrow=none;html=1;rounded=0;exitX=1;exitY=0;exitDx=0;exitDy=0;entryX=0;entryY=0.5;entryDx=0;entryDy=0;" parent="1" source="C3_z8CRFhnpYh4-SrTuu-53" target="C3_z8CRFhnpYh4-SrTuu-176" edge="1">
          <mxGeometry width="50" height="50" relative="1" as="geometry">
            <mxPoint x="1114" y="280" as="sourcePoint" />
            <mxPoint x="1164" y="230" as="targetPoint" />
            <Array as="points" />
          </mxGeometry>
        </mxCell>
        <mxCell id="C3_z8CRFhnpYh4-SrTuu-178" value="" style="endArrow=none;html=1;rounded=0;exitX=1;exitY=0.5;exitDx=0;exitDy=0;" parent="1" source="C3_z8CRFhnpYh4-SrTuu-32" target="C3_z8CRFhnpYh4-SrTuu-179" edge="1">
          <mxGeometry width="50" height="50" relative="1" as="geometry">
            <mxPoint x="801.5699999999999" y="530" as="sourcePoint" />
            <mxPoint x="1091.57" y="370" as="targetPoint" />
          </mxGeometry>
        </mxCell>
        <mxCell id="C3_z8CRFhnpYh4-SrTuu-179" value="memiliki" style="rhombus;whiteSpace=wrap;html=1;" parent="1" vertex="1">
          <mxGeometry x="1104" y="325" width="100" height="90" as="geometry" />
        </mxCell>
        <mxCell id="C3_z8CRFhnpYh4-SrTuu-181" value="" style="endArrow=none;html=1;rounded=0;exitX=1;exitY=0.5;exitDx=0;exitDy=0;entryX=0;entryY=0.5;entryDx=0;entryDy=0;" parent="1" source="C3_z8CRFhnpYh4-SrTuu-179" target="C3_z8CRFhnpYh4-SrTuu-53" edge="1">
          <mxGeometry width="50" height="50" relative="1" as="geometry">
            <mxPoint x="824" y="530" as="sourcePoint" />
            <mxPoint x="874" y="480" as="targetPoint" />
            <Array as="points" />
          </mxGeometry>
        </mxCell>
        <mxCell id="C3_z8CRFhnpYh4-SrTuu-182" value="tempat_duduk" style="rounded=0;whiteSpace=wrap;html=1;" parent="1" vertex="1">
          <mxGeometry x="1554" y="499.5" width="120" height="60" as="geometry" />
        </mxCell>
        <mxCell id="C3_z8CRFhnpYh4-SrTuu-189" value="zona" style="ellipse;whiteSpace=wrap;html=1;" parent="1" vertex="1">
          <mxGeometry x="1509" y="589.5" width="110" height="40" as="geometry" />
        </mxCell>
        <mxCell id="C3_z8CRFhnpYh4-SrTuu-190" value="" style="endArrow=none;html=1;rounded=0;exitX=0.5;exitY=0;exitDx=0;exitDy=0;entryX=0.25;entryY=1;entryDx=0;entryDy=0;" parent="1" source="C3_z8CRFhnpYh4-SrTuu-189" target="C3_z8CRFhnpYh4-SrTuu-182" edge="1">
          <mxGeometry width="50" height="50" relative="1" as="geometry">
            <mxPoint x="1174" y="469.5" as="sourcePoint" />
            <mxPoint x="1344" y="369.5" as="targetPoint" />
          </mxGeometry>
        </mxCell>
        <mxCell id="C3_z8CRFhnpYh4-SrTuu-191" value="" style="endArrow=none;html=1;rounded=0;entryX=0.75;entryY=1;entryDx=0;entryDy=0;exitX=0.425;exitY=0.006;exitDx=0;exitDy=0;exitPerimeter=0;" parent="1" source="C3_z8CRFhnpYh4-SrTuu-136" target="C3_z8CRFhnpYh4-SrTuu-182" edge="1">
          <mxGeometry width="50" height="50" relative="1" as="geometry">
            <mxPoint x="1484" y="459.5" as="sourcePoint" />
            <mxPoint x="1224" y="419.5" as="targetPoint" />
          </mxGeometry>
        </mxCell>
        <mxCell id="C3_z8CRFhnpYh4-SrTuu-192" value="memilih" style="rhombus;whiteSpace=wrap;html=1;" parent="1" vertex="1">
          <mxGeometry x="1594" y="329.5" width="80" height="80" as="geometry" />
        </mxCell>
        <mxCell id="C3_z8CRFhnpYh4-SrTuu-193" value="" style="endArrow=none;html=1;rounded=0;exitX=1;exitY=0.5;exitDx=0;exitDy=0;entryX=0;entryY=0.5;entryDx=0;entryDy=0;" parent="1" source="C3_z8CRFhnpYh4-SrTuu-53" target="C3_z8CRFhnpYh4-SrTuu-192" edge="1">
          <mxGeometry width="50" height="50" relative="1" as="geometry">
            <mxPoint x="1734" y="770" as="sourcePoint" />
            <mxPoint x="1784" y="720" as="targetPoint" />
          </mxGeometry>
        </mxCell>
        <mxCell id="C3_z8CRFhnpYh4-SrTuu-196" value="" style="endArrow=none;html=1;rounded=0;exitX=0.339;exitY=0.01;exitDx=0;exitDy=0;exitPerimeter=0;" parent="1" source="C3_z8CRFhnpYh4-SrTuu-69" target="C3_z8CRFhnpYh4-SrTuu-195" edge="1">
          <mxGeometry width="50" height="50" relative="1" as="geometry">
            <mxPoint x="561.5" y="343" as="sourcePoint" />
            <mxPoint x="348.09188684801575" y="606.2264536536413" as="targetPoint" />
          </mxGeometry>
        </mxCell>
        <mxCell id="C3_z8CRFhnpYh4-SrTuu-197" value="tujuan" style="rounded=0;whiteSpace=wrap;html=1;" parent="1" vertex="1">
          <mxGeometry x="594" y="90" width="120" height="60" as="geometry" />
        </mxCell>
        <mxCell id="C3_z8CRFhnpYh4-SrTuu-198" value="" style="endArrow=none;html=1;rounded=0;" parent="1" source="C3_z8CRFhnpYh4-SrTuu-197" target="C3_z8CRFhnpYh4-SrTuu-202" edge="1">
          <mxGeometry width="50" height="50" relative="1" as="geometry">
            <mxPoint x="521.5" y="-32.5" as="sourcePoint" />
            <mxPoint x="571.5" y="-82.5" as="targetPoint" />
          </mxGeometry>
        </mxCell>
        <mxCell id="C3_z8CRFhnpYh4-SrTuu-199" value="" style="endArrow=none;html=1;rounded=0;" parent="1" source="C3_z8CRFhnpYh4-SrTuu-197" target="C3_z8CRFhnpYh4-SrTuu-203" edge="1">
          <mxGeometry width="50" height="50" relative="1" as="geometry">
            <mxPoint x="372.99319339240583" y="-2.5" as="sourcePoint" />
            <mxPoint x="375.7309549457568" y="-57.504828589677345" as="targetPoint" />
          </mxGeometry>
        </mxCell>
        <mxCell id="C3_z8CRFhnpYh4-SrTuu-200" value="tujuan" style="rhombus;whiteSpace=wrap;html=1;" parent="1" vertex="1">
          <mxGeometry x="601.5" y="185" width="105" height="90" as="geometry" />
        </mxCell>
        <mxCell id="C3_z8CRFhnpYh4-SrTuu-201" value="" style="endArrow=none;html=1;rounded=0;entryX=0.5;entryY=1;entryDx=0;entryDy=0;" parent="1" source="C3_z8CRFhnpYh4-SrTuu-200" target="C3_z8CRFhnpYh4-SrTuu-197" edge="1">
          <mxGeometry width="50" height="50" relative="1" as="geometry">
            <mxPoint x="460.9117647058829" y="-28.088235294117567" as="sourcePoint" />
            <mxPoint x="574" y="72.5" as="targetPoint" />
          </mxGeometry>
        </mxCell>
        <mxCell id="C3_z8CRFhnpYh4-SrTuu-202" value="&lt;u&gt;kode_bandara_tujuan&lt;/u&gt;" style="ellipse;whiteSpace=wrap;html=1;" parent="1" vertex="1">
          <mxGeometry x="669" y="30" width="200" height="40" as="geometry" />
        </mxCell>
        <mxCell id="C3_z8CRFhnpYh4-SrTuu-203" value="tempat_tujuan" style="ellipse;whiteSpace=wrap;html=1;" parent="1" vertex="1">
          <mxGeometry x="479" y="30" width="155" height="40" as="geometry" />
        </mxCell>
        <mxCell id="C3_z8CRFhnpYh4-SrTuu-204" value="" style="endArrow=none;html=1;rounded=0;exitX=0.5;exitY=1;exitDx=0;exitDy=0;entryX=0.5;entryY=0;entryDx=0;entryDy=0;" parent="1" source="C3_z8CRFhnpYh4-SrTuu-200" target="C3_z8CRFhnpYh4-SrTuu-69" edge="1">
          <mxGeometry width="50" height="50" relative="1" as="geometry">
            <mxPoint x="661.5" y="284.75" as="sourcePoint" />
            <mxPoint x="509" y="220.25" as="targetPoint" />
          </mxGeometry>
        </mxCell>
        <mxCell id="C3_z8CRFhnpYh4-SrTuu-213" value="" style="endArrow=none;html=1;rounded=0;exitX=0.5;exitY=1;exitDx=0;exitDy=0;entryX=0.5;entryY=0;entryDx=0;entryDy=0;" parent="1" source="C3_z8CRFhnpYh4-SrTuu-192" target="C3_z8CRFhnpYh4-SrTuu-182" edge="1">
          <mxGeometry width="50" height="50" relative="1" as="geometry">
            <mxPoint x="1144" y="679.5" as="sourcePoint" />
            <mxPoint x="1194" y="629.5" as="targetPoint" />
          </mxGeometry>
        </mxCell>
        <mxCell id="C3_z8CRFhnpYh4-SrTuu-214" value="memilih" style="rhombus;whiteSpace=wrap;html=1;" parent="1" vertex="1">
          <mxGeometry x="1386.5" y="191" width="80" height="80" as="geometry" />
        </mxCell>
        <mxCell id="C3_z8CRFhnpYh4-SrTuu-215" value="" style="endArrow=none;html=1;rounded=0;entryX=0.5;entryY=0;entryDx=0;entryDy=0;exitX=0.5;exitY=1;exitDx=0;exitDy=0;" parent="1" source="C3_z8CRFhnpYh4-SrTuu-27" target="C3_z8CRFhnpYh4-SrTuu-214" edge="1">
          <mxGeometry width="50" height="50" relative="1" as="geometry">
            <mxPoint x="1104" y="157" as="sourcePoint" />
            <mxPoint x="1254" y="347" as="targetPoint" />
          </mxGeometry>
        </mxCell>
        <mxCell id="C3_z8CRFhnpYh4-SrTuu-216" value="" style="endArrow=none;html=1;rounded=0;exitX=0.5;exitY=1;exitDx=0;exitDy=0;entryX=0.5;entryY=0;entryDx=0;entryDy=0;" parent="1" source="C3_z8CRFhnpYh4-SrTuu-214" target="C3_z8CRFhnpYh4-SrTuu-53" edge="1">
          <mxGeometry width="50" height="50" relative="1" as="geometry">
            <mxPoint x="1204" y="350" as="sourcePoint" />
            <mxPoint x="1254" y="300" as="targetPoint" />
          </mxGeometry>
        </mxCell>
        <mxCell id="C3_z8CRFhnpYh4-SrTuu-217" value="passpor" style="rounded=0;whiteSpace=wrap;html=1;" parent="1" vertex="1">
          <mxGeometry x="1326.5" y="630.25" width="120" height="60" as="geometry" />
        </mxCell>
        <mxCell id="C3_z8CRFhnpYh4-SrTuu-218" value="&lt;u&gt;no_passpor&lt;/u&gt;" style="ellipse;whiteSpace=wrap;html=1;" parent="1" vertex="1">
          <mxGeometry x="1399" y="727.7" width="110" height="40" as="geometry" />
        </mxCell>
        <mxCell id="C3_z8CRFhnpYh4-SrTuu-219" value="tanggal_kadaluarsa" style="ellipse;whiteSpace=wrap;html=1;" parent="1" vertex="1">
          <mxGeometry x="1279" y="727.7" width="110" height="40" as="geometry" />
        </mxCell>
        <mxCell id="C3_z8CRFhnpYh4-SrTuu-220" value="" style="endArrow=none;html=1;rounded=0;exitX=0.75;exitY=1;exitDx=0;exitDy=0;" parent="1" source="C3_z8CRFhnpYh4-SrTuu-217" target="C3_z8CRFhnpYh4-SrTuu-218" edge="1">
          <mxGeometry width="50" height="50" relative="1" as="geometry">
            <mxPoint x="1149" y="937.7" as="sourcePoint" />
            <mxPoint x="988.0918868480157" y="861.4264536536414" as="targetPoint" />
          </mxGeometry>
        </mxCell>
        <mxCell id="C3_z8CRFhnpYh4-SrTuu-221" value="" style="endArrow=none;html=1;rounded=0;exitX=0.171;exitY=0.995;exitDx=0;exitDy=0;exitPerimeter=0;" parent="1" source="C3_z8CRFhnpYh4-SrTuu-217" target="C3_z8CRFhnpYh4-SrTuu-219" edge="1">
          <mxGeometry width="50" height="50" relative="1" as="geometry">
            <mxPoint x="1159" y="947.7" as="sourcePoint" />
            <mxPoint x="998.0918868480157" y="871.4264536536414" as="targetPoint" />
          </mxGeometry>
        </mxCell>
        <mxCell id="C3_z8CRFhnpYh4-SrTuu-222" value="memiliki" style="rhombus;whiteSpace=wrap;html=1;" parent="1" vertex="1">
          <mxGeometry x="1346.5" y="520.25" width="80" height="80" as="geometry" />
        </mxCell>
        <mxCell id="C3_z8CRFhnpYh4-SrTuu-223" value="" style="endArrow=none;html=1;rounded=0;exitX=0.5;exitY=1;exitDx=0;exitDy=0;entryX=0.5;entryY=0;entryDx=0;entryDy=0;" parent="1" source="C3_z8CRFhnpYh4-SrTuu-222" target="C3_z8CRFhnpYh4-SrTuu-217" edge="1">
          <mxGeometry width="50" height="50" relative="1" as="geometry">
            <mxPoint x="1234" y="820" as="sourcePoint" />
            <mxPoint x="1284" y="770" as="targetPoint" />
          </mxGeometry>
        </mxCell>
        <mxCell id="C3_z8CRFhnpYh4-SrTuu-224" value="" style="endArrow=none;html=1;rounded=0;exitX=0.5;exitY=0;exitDx=0;exitDy=0;entryX=0.5;entryY=1;entryDx=0;entryDy=0;" parent="1" source="C3_z8CRFhnpYh4-SrTuu-222" target="C3_z8CRFhnpYh4-SrTuu-53" edge="1">
          <mxGeometry width="50" height="50" relative="1" as="geometry">
            <mxPoint x="1234" y="820" as="sourcePoint" />
            <mxPoint x="1094" y="650" as="targetPoint" />
          </mxGeometry>
        </mxCell>
        <mxCell id="jsuA0puicGzOgIlmDkKQ-6" value="1" style="text;html=1;strokeColor=none;fillColor=none;align=center;verticalAlign=middle;whiteSpace=wrap;rounded=0;" parent="1" vertex="1">
          <mxGeometry x="1399" y="400" width="25" height="20" as="geometry" />
        </mxCell>
        <mxCell id="jsuA0puicGzOgIlmDkKQ-7" value="0..1" style="text;html=1;strokeColor=none;fillColor=none;align=center;verticalAlign=middle;whiteSpace=wrap;rounded=0;" parent="1" vertex="1">
          <mxGeometry x="1389" y="171" width="25" height="20" as="geometry" />
        </mxCell>
        <mxCell id="jsuA0puicGzOgIlmDkKQ-8" value="1" style="text;html=1;strokeColor=none;fillColor=none;align=center;verticalAlign=middle;whiteSpace=wrap;rounded=0;" parent="1" vertex="1">
          <mxGeometry x="1604" y="479.5" width="25" height="20" as="geometry" />
        </mxCell>
        <mxCell id="jsuA0puicGzOgIlmDkKQ-9" value="1" style="text;html=1;strokeColor=none;fillColor=none;align=center;verticalAlign=middle;whiteSpace=wrap;rounded=0;" parent="1" vertex="1">
          <mxGeometry x="899.0699999999999" y="340.25" width="25" height="20" as="geometry" />
        </mxCell>
        <mxCell id="jsuA0puicGzOgIlmDkKQ-11" value="1" style="text;html=1;strokeColor=none;fillColor=none;align=center;verticalAlign=middle;whiteSpace=wrap;rounded=0;" parent="1" vertex="1">
          <mxGeometry x="714" y="347.25" width="25" height="20" as="geometry" />
        </mxCell>
        <mxCell id="jsuA0puicGzOgIlmDkKQ-12" value="N" style="text;html=1;strokeColor=none;fillColor=none;align=center;verticalAlign=middle;whiteSpace=wrap;rounded=0;" parent="1" vertex="1">
          <mxGeometry x="681.5" y="400.25" width="25" height="20" as="geometry" />
        </mxCell>
        <mxCell id="jsuA0puicGzOgIlmDkKQ-13" value="1" style="text;html=1;strokeColor=none;fillColor=none;align=center;verticalAlign=middle;whiteSpace=wrap;rounded=0;" parent="1" vertex="1">
          <mxGeometry x="641.5" y="577.7" width="25" height="20" as="geometry" />
        </mxCell>
        <mxCell id="jsuA0puicGzOgIlmDkKQ-15" value="N" style="text;html=1;strokeColor=none;fillColor=none;align=center;verticalAlign=middle;whiteSpace=wrap;rounded=0;" parent="1" vertex="1">
          <mxGeometry x="329" y="570.25" width="25" height="20" as="geometry" />
        </mxCell>
        <mxCell id="jsuA0puicGzOgIlmDkKQ-16" value="" style="endArrow=none;html=1;rounded=0;entryX=1;entryY=0.5;entryDx=0;entryDy=0;exitX=0;exitY=0.5;exitDx=0;exitDy=0;" parent="1" source="C3_z8CRFhnpYh4-SrTuu-158" target="C3_z8CRFhnpYh4-SrTuu-88" edge="1">
          <mxGeometry width="50" height="50" relative="1" as="geometry">
            <mxPoint x="274.80479452054806" y="549.0547945205478" as="sourcePoint" />
            <mxPoint x="186.5" y="698.25" as="targetPoint" />
          </mxGeometry>
        </mxCell>
        <mxCell id="jsuA0puicGzOgIlmDkKQ-17" value="1" style="text;html=1;strokeColor=none;fillColor=none;align=center;verticalAlign=middle;whiteSpace=wrap;rounded=0;" parent="1" vertex="1">
          <mxGeometry x="304" y="367" width="25" height="20" as="geometry" />
        </mxCell>
        <mxCell id="jsuA0puicGzOgIlmDkKQ-18" value="1" style="text;html=1;strokeColor=none;fillColor=none;align=center;verticalAlign=middle;whiteSpace=wrap;rounded=0;" parent="1" vertex="1">
          <mxGeometry x="564" y="347.25" width="25" height="20" as="geometry" />
        </mxCell>
        <mxCell id="jsuA0puicGzOgIlmDkKQ-19" value="1" style="text;html=1;strokeColor=none;fillColor=none;align=center;verticalAlign=middle;whiteSpace=wrap;rounded=0;" parent="1" vertex="1">
          <mxGeometry x="624" y="150" width="25" height="20" as="geometry" />
        </mxCell>
        <mxCell id="jsuA0puicGzOgIlmDkKQ-20" value="1" style="text;html=1;strokeColor=none;fillColor=none;align=center;verticalAlign=middle;whiteSpace=wrap;rounded=0;" parent="1" vertex="1">
          <mxGeometry x="1044.07" y="340.25" width="25" height="20" as="geometry" />
        </mxCell>
        <mxCell id="jsuA0puicGzOgIlmDkKQ-21" value="1" style="text;html=1;strokeColor=none;fillColor=none;align=center;verticalAlign=middle;whiteSpace=wrap;rounded=0;" parent="1" vertex="1">
          <mxGeometry x="1404" y="307" width="25" height="20" as="geometry" />
        </mxCell>
        <mxCell id="jsuA0puicGzOgIlmDkKQ-22" value="1" style="text;html=1;strokeColor=none;fillColor=none;align=center;verticalAlign=middle;whiteSpace=wrap;rounded=0;" parent="1" vertex="1">
          <mxGeometry x="1404" y="614.5" width="25" height="20" as="geometry" />
        </mxCell>
        <mxCell id="jsuA0puicGzOgIlmDkKQ-38" value="kewarganegaraan" style="ellipse;whiteSpace=wrap;html=1;" parent="1" vertex="1">
          <mxGeometry x="1259" y="460" width="110" height="40" as="geometry" />
        </mxCell>
        <mxCell id="jsuA0puicGzOgIlmDkKQ-39" value="no_kursi" style="ellipse;whiteSpace=wrap;html=1;" parent="1" vertex="1">
          <mxGeometry x="1204" y="380" width="140" height="40" as="geometry" />
        </mxCell>
        <mxCell id="jsuA0puicGzOgIlmDkKQ-40" value="id_penumpang" style="ellipse;whiteSpace=wrap;html=1;" parent="1" vertex="1">
          <mxGeometry x="1228.59" y="307" width="100" height="40" as="geometry" />
        </mxCell>
        <mxCell id="jsuA0puicGzOgIlmDkKQ-41" value="no_booking" style="ellipse;whiteSpace=wrap;html=1;" parent="1" vertex="1">
          <mxGeometry x="1294" y="247" width="110" height="40" as="geometry" />
        </mxCell>
        <mxCell id="jsuA0puicGzOgIlmDkKQ-61" value="1" style="text;html=1;strokeColor=none;fillColor=none;align=center;verticalAlign=middle;whiteSpace=wrap;rounded=0;" parent="1" vertex="1">
          <mxGeometry x="649" y="317.25" width="25" height="20" as="geometry" />
        </mxCell>
        <mxCell id="C3_z8CRFhnpYh4-SrTuu-195" value="kode_bandara_tujuan" style="ellipse;whiteSpace=wrap;html=1;" parent="1" vertex="1">
          <mxGeometry x="459" y="164" width="170" height="40" as="geometry" />
        </mxCell>
        <mxCell id="jsuA0puicGzOgIlmDkKQ-65" value="1" style="text;html=1;strokeColor=none;fillColor=none;align=center;verticalAlign=middle;whiteSpace=wrap;rounded=0;" parent="1" vertex="1">
          <mxGeometry x="589" y="400.25" width="25" height="20" as="geometry" />
        </mxCell>
        <mxCell id="jsuA0puicGzOgIlmDkKQ-74" value="1" style="text;html=1;strokeColor=none;fillColor=none;align=center;verticalAlign=middle;whiteSpace=wrap;rounded=0;" parent="1" vertex="1">
          <mxGeometry x="1341.5" y="347.25" width="25" height="20" as="geometry" />
        </mxCell>
        <mxCell id="jsuA0puicGzOgIlmDkKQ-75" value="1" style="text;html=1;strokeColor=none;fillColor=none;align=center;verticalAlign=middle;whiteSpace=wrap;rounded=0;" parent="1" vertex="1">
          <mxGeometry x="1489" y="347" width="25" height="20" as="geometry" />
        </mxCell>
      </root>
    </mxGraphModel>
  </diagram>
</mxfile>
